<?xml version="1.0" encoding="utf-8" standalone="no"?>
<!DOCTYPE svg PUBLIC "-//W3C//DTD SVG 1.1//EN"
  "http://www.w3.org/Graphics/SVG/1.1/DTD/svg11.dtd">
<!-- Created with matplotlib (http://matplotlib.org/) -->
<svg height="576pt" version="1.1" viewBox="0 0 576 576" width="576pt" xmlns="http://www.w3.org/2000/svg" xmlns:xlink="http://www.w3.org/1999/xlink">
 <defs>
  <style type="text/css">
*{stroke-linecap:butt;stroke-linejoin:round;}
  </style>
 </defs>
 <g id="figure_1">
  <g id="patch_1">
   <path d="M 0 576 
L 576 576 
L 576 0 
L 0 0 
z
" style="fill:#ffffff;"/>
  </g>
  <g id="patch_2">
   <path d="M 0 576 
L 576 576 
L 576 0 
L 0 0 
z
" style="fill:#ffffff;"/>
  </g>
  <g id="pane3d_1">
   <g id="patch_3">
    <path d="M 76.357701 448.724299 
L 241.211914 307.502151 
L 238.467267 37.649803 
L 64.42135 164.534999 
" style="fill:#f2f2f2;opacity:0.5;stroke:#f2f2f2;stroke-linejoin:miter;"/>
   </g>
  </g>
  <g id="pane3d_2">
   <g id="patch_4">
    <path d="M 241.211914 307.502151 
L 508.260241 386.454445 
L 519.433224 108.46481 
L 238.467267 37.649803 
" style="fill:#e6e6e6;opacity:0.5;stroke:#e6e6e6;stroke-linejoin:miter;"/>
   </g>
  </g>
  <g id="pane3d_3">
   <g id="patch_5">
    <path d="M 76.357701 448.724299 
L 357.328625 540.677111 
L 508.260241 386.454445 
L 241.211914 307.502151 
" style="fill:#ececec;opacity:0.5;stroke:#ececec;stroke-linejoin:miter;"/>
   </g>
  </g>
  <g id="axis3d_1">
   <g id="line2d_1">
    <path d="M 76.357701 448.724299 
L 357.328625 540.677111 
" style="fill:none;stroke:#000000;stroke-linecap:square;stroke-width:0.8;"/>
   </g>
   <g id="text_1">
    <!-- Principal Component 1 -->
    <defs>
     <path d="M 19.671875 64.796875 
L 19.671875 37.40625 
L 32.078125 37.40625 
Q 38.96875 37.40625 42.71875 40.96875 
Q 46.484375 44.53125 46.484375 51.125 
Q 46.484375 57.671875 42.71875 61.234375 
Q 38.96875 64.796875 32.078125 64.796875 
z
M 9.8125 72.90625 
L 32.078125 72.90625 
Q 44.34375 72.90625 50.609375 67.359375 
Q 56.890625 61.8125 56.890625 51.125 
Q 56.890625 40.328125 50.609375 34.8125 
Q 44.34375 29.296875 32.078125 29.296875 
L 19.671875 29.296875 
L 19.671875 0 
L 9.8125 0 
z
" id="DejaVuSans-50"/>
     <path d="M 41.109375 46.296875 
Q 39.59375 47.171875 37.8125 47.578125 
Q 36.03125 48 33.890625 48 
Q 26.265625 48 22.1875 43.046875 
Q 18.109375 38.09375 18.109375 28.8125 
L 18.109375 0 
L 9.078125 0 
L 9.078125 54.6875 
L 18.109375 54.6875 
L 18.109375 46.1875 
Q 20.953125 51.171875 25.484375 53.578125 
Q 30.03125 56 36.53125 56 
Q 37.453125 56 38.578125 55.875 
Q 39.703125 55.765625 41.0625 55.515625 
z
" id="DejaVuSans-72"/>
     <path d="M 9.421875 54.6875 
L 18.40625 54.6875 
L 18.40625 0 
L 9.421875 0 
z
M 9.421875 75.984375 
L 18.40625 75.984375 
L 18.40625 64.59375 
L 9.421875 64.59375 
z
" id="DejaVuSans-69"/>
     <path d="M 54.890625 33.015625 
L 54.890625 0 
L 45.90625 0 
L 45.90625 32.71875 
Q 45.90625 40.484375 42.875 44.328125 
Q 39.84375 48.1875 33.796875 48.1875 
Q 26.515625 48.1875 22.3125 43.546875 
Q 18.109375 38.921875 18.109375 30.90625 
L 18.109375 0 
L 9.078125 0 
L 9.078125 54.6875 
L 18.109375 54.6875 
L 18.109375 46.1875 
Q 21.34375 51.125 25.703125 53.5625 
Q 30.078125 56 35.796875 56 
Q 45.21875 56 50.046875 50.171875 
Q 54.890625 44.34375 54.890625 33.015625 
z
" id="DejaVuSans-6e"/>
     <path d="M 48.78125 52.59375 
L 48.78125 44.1875 
Q 44.96875 46.296875 41.140625 47.34375 
Q 37.3125 48.390625 33.40625 48.390625 
Q 24.65625 48.390625 19.8125 42.84375 
Q 14.984375 37.3125 14.984375 27.296875 
Q 14.984375 17.28125 19.8125 11.734375 
Q 24.65625 6.203125 33.40625 6.203125 
Q 37.3125 6.203125 41.140625 7.25 
Q 44.96875 8.296875 48.78125 10.40625 
L 48.78125 2.09375 
Q 45.015625 0.34375 40.984375 -0.53125 
Q 36.96875 -1.421875 32.421875 -1.421875 
Q 20.0625 -1.421875 12.78125 6.34375 
Q 5.515625 14.109375 5.515625 27.296875 
Q 5.515625 40.671875 12.859375 48.328125 
Q 20.21875 56 33.015625 56 
Q 37.15625 56 41.109375 55.140625 
Q 45.0625 54.296875 48.78125 52.59375 
z
" id="DejaVuSans-63"/>
     <path d="M 18.109375 8.203125 
L 18.109375 -20.796875 
L 9.078125 -20.796875 
L 9.078125 54.6875 
L 18.109375 54.6875 
L 18.109375 46.390625 
Q 20.953125 51.265625 25.265625 53.625 
Q 29.59375 56 35.59375 56 
Q 45.5625 56 51.78125 48.09375 
Q 58.015625 40.1875 58.015625 27.296875 
Q 58.015625 14.40625 51.78125 6.484375 
Q 45.5625 -1.421875 35.59375 -1.421875 
Q 29.59375 -1.421875 25.265625 0.953125 
Q 20.953125 3.328125 18.109375 8.203125 
z
M 48.6875 27.296875 
Q 48.6875 37.203125 44.609375 42.84375 
Q 40.53125 48.484375 33.40625 48.484375 
Q 26.265625 48.484375 22.1875 42.84375 
Q 18.109375 37.203125 18.109375 27.296875 
Q 18.109375 17.390625 22.1875 11.75 
Q 26.265625 6.109375 33.40625 6.109375 
Q 40.53125 6.109375 44.609375 11.75 
Q 48.6875 17.390625 48.6875 27.296875 
z
" id="DejaVuSans-70"/>
     <path d="M 34.28125 27.484375 
Q 23.390625 27.484375 19.1875 25 
Q 14.984375 22.515625 14.984375 16.5 
Q 14.984375 11.71875 18.140625 8.90625 
Q 21.296875 6.109375 26.703125 6.109375 
Q 34.1875 6.109375 38.703125 11.40625 
Q 43.21875 16.703125 43.21875 25.484375 
L 43.21875 27.484375 
z
M 52.203125 31.203125 
L 52.203125 0 
L 43.21875 0 
L 43.21875 8.296875 
Q 40.140625 3.328125 35.546875 0.953125 
Q 30.953125 -1.421875 24.3125 -1.421875 
Q 15.921875 -1.421875 10.953125 3.296875 
Q 6 8.015625 6 15.921875 
Q 6 25.140625 12.171875 29.828125 
Q 18.359375 34.515625 30.609375 34.515625 
L 43.21875 34.515625 
L 43.21875 35.40625 
Q 43.21875 41.609375 39.140625 45 
Q 35.0625 48.390625 27.6875 48.390625 
Q 23 48.390625 18.546875 47.265625 
Q 14.109375 46.140625 10.015625 43.890625 
L 10.015625 52.203125 
Q 14.9375 54.109375 19.578125 55.046875 
Q 24.21875 56 28.609375 56 
Q 40.484375 56 46.34375 49.84375 
Q 52.203125 43.703125 52.203125 31.203125 
z
" id="DejaVuSans-61"/>
     <path d="M 9.421875 75.984375 
L 18.40625 75.984375 
L 18.40625 0 
L 9.421875 0 
z
" id="DejaVuSans-6c"/>
     <path id="DejaVuSans-20"/>
     <path d="M 64.40625 67.28125 
L 64.40625 56.890625 
Q 59.421875 61.53125 53.78125 63.8125 
Q 48.140625 66.109375 41.796875 66.109375 
Q 29.296875 66.109375 22.65625 58.46875 
Q 16.015625 50.828125 16.015625 36.375 
Q 16.015625 21.96875 22.65625 14.328125 
Q 29.296875 6.6875 41.796875 6.6875 
Q 48.140625 6.6875 53.78125 8.984375 
Q 59.421875 11.28125 64.40625 15.921875 
L 64.40625 5.609375 
Q 59.234375 2.09375 53.4375 0.328125 
Q 47.65625 -1.421875 41.21875 -1.421875 
Q 24.65625 -1.421875 15.125 8.703125 
Q 5.609375 18.84375 5.609375 36.375 
Q 5.609375 53.953125 15.125 64.078125 
Q 24.65625 74.21875 41.21875 74.21875 
Q 47.75 74.21875 53.53125 72.484375 
Q 59.328125 70.75 64.40625 67.28125 
z
" id="DejaVuSans-43"/>
     <path d="M 30.609375 48.390625 
Q 23.390625 48.390625 19.1875 42.75 
Q 14.984375 37.109375 14.984375 27.296875 
Q 14.984375 17.484375 19.15625 11.84375 
Q 23.34375 6.203125 30.609375 6.203125 
Q 37.796875 6.203125 41.984375 11.859375 
Q 46.1875 17.53125 46.1875 27.296875 
Q 46.1875 37.015625 41.984375 42.703125 
Q 37.796875 48.390625 30.609375 48.390625 
z
M 30.609375 56 
Q 42.328125 56 49.015625 48.375 
Q 55.71875 40.765625 55.71875 27.296875 
Q 55.71875 13.875 49.015625 6.21875 
Q 42.328125 -1.421875 30.609375 -1.421875 
Q 18.84375 -1.421875 12.171875 6.21875 
Q 5.515625 13.875 5.515625 27.296875 
Q 5.515625 40.765625 12.171875 48.375 
Q 18.84375 56 30.609375 56 
z
" id="DejaVuSans-6f"/>
     <path d="M 52 44.1875 
Q 55.375 50.25 60.0625 53.125 
Q 64.75 56 71.09375 56 
Q 79.640625 56 84.28125 50.015625 
Q 88.921875 44.046875 88.921875 33.015625 
L 88.921875 0 
L 79.890625 0 
L 79.890625 32.71875 
Q 79.890625 40.578125 77.09375 44.375 
Q 74.3125 48.1875 68.609375 48.1875 
Q 61.625 48.1875 57.5625 43.546875 
Q 53.515625 38.921875 53.515625 30.90625 
L 53.515625 0 
L 44.484375 0 
L 44.484375 32.71875 
Q 44.484375 40.625 41.703125 44.40625 
Q 38.921875 48.1875 33.109375 48.1875 
Q 26.21875 48.1875 22.15625 43.53125 
Q 18.109375 38.875 18.109375 30.90625 
L 18.109375 0 
L 9.078125 0 
L 9.078125 54.6875 
L 18.109375 54.6875 
L 18.109375 46.1875 
Q 21.1875 51.21875 25.484375 53.609375 
Q 29.78125 56 35.6875 56 
Q 41.65625 56 45.828125 52.96875 
Q 50 49.953125 52 44.1875 
z
" id="DejaVuSans-6d"/>
     <path d="M 56.203125 29.59375 
L 56.203125 25.203125 
L 14.890625 25.203125 
Q 15.484375 15.921875 20.484375 11.0625 
Q 25.484375 6.203125 34.421875 6.203125 
Q 39.59375 6.203125 44.453125 7.46875 
Q 49.3125 8.734375 54.109375 11.28125 
L 54.109375 2.78125 
Q 49.265625 0.734375 44.1875 -0.34375 
Q 39.109375 -1.421875 33.890625 -1.421875 
Q 20.796875 -1.421875 13.15625 6.1875 
Q 5.515625 13.8125 5.515625 26.8125 
Q 5.515625 40.234375 12.765625 48.109375 
Q 20.015625 56 32.328125 56 
Q 43.359375 56 49.78125 48.890625 
Q 56.203125 41.796875 56.203125 29.59375 
z
M 47.21875 32.234375 
Q 47.125 39.59375 43.09375 43.984375 
Q 39.0625 48.390625 32.421875 48.390625 
Q 24.90625 48.390625 20.390625 44.140625 
Q 15.875 39.890625 15.1875 32.171875 
z
" id="DejaVuSans-65"/>
     <path d="M 18.3125 70.21875 
L 18.3125 54.6875 
L 36.8125 54.6875 
L 36.8125 47.703125 
L 18.3125 47.703125 
L 18.3125 18.015625 
Q 18.3125 11.328125 20.140625 9.421875 
Q 21.96875 7.515625 27.59375 7.515625 
L 36.8125 7.515625 
L 36.8125 0 
L 27.59375 0 
Q 17.1875 0 13.234375 3.875 
Q 9.28125 7.765625 9.28125 18.015625 
L 9.28125 47.703125 
L 2.6875 47.703125 
L 2.6875 54.6875 
L 9.28125 54.6875 
L 9.28125 70.21875 
z
" id="DejaVuSans-74"/>
     <path d="M 12.40625 8.296875 
L 28.515625 8.296875 
L 28.515625 63.921875 
L 10.984375 60.40625 
L 10.984375 69.390625 
L 28.421875 72.90625 
L 38.28125 72.90625 
L 38.28125 8.296875 
L 54.390625 8.296875 
L 54.390625 0 
L 12.40625 0 
z
" id="DejaVuSans-31"/>
    </defs>
    <g transform="translate(117.495429 507.213484)rotate(-341.878381)scale(0.15 -0.15)">
     <use xlink:href="#DejaVuSans-50"/>
     <use x="60.287109" xlink:href="#DejaVuSans-72"/>
     <use x="101.400391" xlink:href="#DejaVuSans-69"/>
     <use x="129.183594" xlink:href="#DejaVuSans-6e"/>
     <use x="192.5625" xlink:href="#DejaVuSans-63"/>
     <use x="247.542969" xlink:href="#DejaVuSans-69"/>
     <use x="275.326172" xlink:href="#DejaVuSans-70"/>
     <use x="338.802734" xlink:href="#DejaVuSans-61"/>
     <use x="400.082031" xlink:href="#DejaVuSans-6c"/>
     <use x="427.865234" xlink:href="#DejaVuSans-20"/>
     <use x="459.652344" xlink:href="#DejaVuSans-43"/>
     <use x="529.476562" xlink:href="#DejaVuSans-6f"/>
     <use x="590.658203" xlink:href="#DejaVuSans-6d"/>
     <use x="688.070312" xlink:href="#DejaVuSans-70"/>
     <use x="751.546875" xlink:href="#DejaVuSans-6f"/>
     <use x="812.728516" xlink:href="#DejaVuSans-6e"/>
     <use x="876.107422" xlink:href="#DejaVuSans-65"/>
     <use x="937.630859" xlink:href="#DejaVuSans-6e"/>
     <use x="1001.009766" xlink:href="#DejaVuSans-74"/>
     <use x="1040.21875" xlink:href="#DejaVuSans-20"/>
     <use x="1072.005859" xlink:href="#DejaVuSans-31"/>
    </g>
   </g>
   <g id="Line3DCollection_1">
    <path d="M 81.730847 450.482759 
L 246.335639 309.01697 
L 243.846516 39.005596 
" style="fill:none;stroke:#b0b0b0;stroke-width:0.8;"/>
    <path d="M 118.835797 462.626024 
L 281.700213 319.472434 
L 280.98701 48.366532 
" style="fill:none;stroke:#b0b0b0;stroke-width:0.8;"/>
    <path d="M 156.401526 474.920087 
L 317.472019 330.048295 
L 318.576974 57.840753 
" style="fill:none;stroke:#b0b0b0;stroke-width:0.8;"/>
    <path d="M 194.43667 487.367776 
L 353.658131 340.746646 
L 356.624619 67.430328 
" style="fill:none;stroke:#b0b0b0;stroke-width:0.8;"/>
    <path d="M 232.950084 499.971986 
L 390.26579 351.569626 
L 395.138354 77.137377 
" style="fill:none;stroke:#b0b0b0;stroke-width:0.8;"/>
    <path d="M 271.950846 512.73569 
L 427.302405 362.519426 
L 434.126797 86.964072 
" style="fill:none;stroke:#b0b0b0;stroke-width:0.8;"/>
    <path d="M 311.448264 525.661934 
L 464.77556 373.598287 
L 473.598778 96.912639 
" style="fill:none;stroke:#b0b0b0;stroke-width:0.8;"/>
    <path d="M 351.451887 538.753842 
L 502.693018 384.808507 
L 513.563349 106.985359 
" style="fill:none;stroke:#b0b0b0;stroke-width:0.8;"/>
   </g>
   <g id="xtick_1">
    <g id="line2d_2">
     <path d="M 83.148805 449.264128 
L 78.889654 452.924557 
" style="fill:none;stroke:#000000;stroke-linecap:square;stroke-width:0.8;"/>
    </g>
    <g id="text_2">
     <!-- −4 -->
     <defs>
      <path d="M 10.59375 35.5 
L 73.1875 35.5 
L 73.1875 27.203125 
L 10.59375 27.203125 
z
" id="DejaVuSans-2212"/>
      <path d="M 37.796875 64.3125 
L 12.890625 25.390625 
L 37.796875 25.390625 
z
M 35.203125 72.90625 
L 47.609375 72.90625 
L 47.609375 25.390625 
L 58.015625 25.390625 
L 58.015625 17.1875 
L 47.609375 17.1875 
L 47.609375 0 
L 37.796875 0 
L 37.796875 17.1875 
L 4.890625 17.1875 
L 4.890625 26.703125 
z
" id="DejaVuSans-34"/>
     </defs>
     <g transform="translate(67.978554 474.277766)scale(0.1 -0.1)">
      <use xlink:href="#DejaVuSans-2212"/>
      <use x="83.789062" xlink:href="#DejaVuSans-34"/>
     </g>
    </g>
   </g>
   <g id="xtick_2">
    <g id="line2d_3">
     <path d="M 120.239379 461.392312 
L 116.023375 465.09807 
" style="fill:none;stroke:#000000;stroke-linecap:square;stroke-width:0.8;"/>
    </g>
    <g id="text_3">
     <!-- −3 -->
     <defs>
      <path d="M 40.578125 39.3125 
Q 47.65625 37.796875 51.625 33 
Q 55.609375 28.21875 55.609375 21.1875 
Q 55.609375 10.40625 48.1875 4.484375 
Q 40.765625 -1.421875 27.09375 -1.421875 
Q 22.515625 -1.421875 17.65625 -0.515625 
Q 12.796875 0.390625 7.625 2.203125 
L 7.625 11.71875 
Q 11.71875 9.328125 16.59375 8.109375 
Q 21.484375 6.890625 26.8125 6.890625 
Q 36.078125 6.890625 40.9375 10.546875 
Q 45.796875 14.203125 45.796875 21.1875 
Q 45.796875 27.640625 41.28125 31.265625 
Q 36.765625 34.90625 28.71875 34.90625 
L 20.21875 34.90625 
L 20.21875 43.015625 
L 29.109375 43.015625 
Q 36.375 43.015625 40.234375 45.921875 
Q 44.09375 48.828125 44.09375 54.296875 
Q 44.09375 59.90625 40.109375 62.90625 
Q 36.140625 65.921875 28.71875 65.921875 
Q 24.65625 65.921875 20.015625 65.03125 
Q 15.375 64.15625 9.8125 62.3125 
L 9.8125 71.09375 
Q 15.4375 72.65625 20.34375 73.4375 
Q 25.25 74.21875 29.59375 74.21875 
Q 40.828125 74.21875 47.359375 69.109375 
Q 53.90625 64.015625 53.90625 55.328125 
Q 53.90625 49.265625 50.4375 45.09375 
Q 46.96875 40.921875 40.578125 39.3125 
z
" id="DejaVuSans-33"/>
     </defs>
     <g transform="translate(105.081075 486.533181)scale(0.1 -0.1)">
      <use xlink:href="#DejaVuSans-2212"/>
      <use x="83.789062" xlink:href="#DejaVuSans-33"/>
     </g>
    </g>
   </g>
   <g id="xtick_3">
    <g id="line2d_4">
     <path d="M 157.790266 473.671012 
L 153.618812 477.422946 
" style="fill:none;stroke:#000000;stroke-linecap:square;stroke-width:0.8;"/>
    </g>
    <g id="text_4">
     <!-- −2 -->
     <defs>
      <path d="M 19.1875 8.296875 
L 53.609375 8.296875 
L 53.609375 0 
L 7.328125 0 
L 7.328125 8.296875 
Q 12.9375 14.109375 22.625 23.890625 
Q 32.328125 33.6875 34.8125 36.53125 
Q 39.546875 41.84375 41.421875 45.53125 
Q 43.3125 49.21875 43.3125 52.78125 
Q 43.3125 58.59375 39.234375 62.25 
Q 35.15625 65.921875 28.609375 65.921875 
Q 23.96875 65.921875 18.8125 64.3125 
Q 13.671875 62.703125 7.8125 59.421875 
L 7.8125 69.390625 
Q 13.765625 71.78125 18.9375 73 
Q 24.125 74.21875 28.421875 74.21875 
Q 39.75 74.21875 46.484375 68.546875 
Q 53.21875 62.890625 53.21875 53.421875 
Q 53.21875 48.921875 51.53125 44.890625 
Q 49.859375 40.875 45.40625 35.40625 
Q 44.1875 33.984375 37.640625 27.21875 
Q 31.109375 20.453125 19.1875 8.296875 
z
" id="DejaVuSans-32"/>
     </defs>
     <g transform="translate(142.644806 498.940941)scale(0.1 -0.1)">
      <use xlink:href="#DejaVuSans-2212"/>
      <use x="83.789062" xlink:href="#DejaVuSans-32"/>
     </g>
    </g>
   </g>
   <g id="xtick_4">
    <g id="line2d_5">
     <path d="M 195.810086 486.103048 
L 191.68463 489.902027 
" style="fill:none;stroke:#000000;stroke-linecap:square;stroke-width:0.8;"/>
    </g>
    <g id="text_5">
     <!-- −1 -->
     <g transform="translate(180.678402 511.503902)scale(0.1 -0.1)">
      <use xlink:href="#DejaVuSans-2212"/>
      <use x="83.789062" xlink:href="#DejaVuSans-31"/>
     </g>
    </g>
   </g>
   <g id="xtick_5">
    <g id="line2d_6">
     <path d="M 234.30768 498.69131 
L 230.229712 502.538225 
" style="fill:none;stroke:#000000;stroke-linecap:square;stroke-width:0.8;"/>
    </g>
    <g id="text_6">
     <!-- 0 -->
     <defs>
      <path d="M 31.78125 66.40625 
Q 24.171875 66.40625 20.328125 58.90625 
Q 16.5 51.421875 16.5 36.375 
Q 16.5 21.390625 20.328125 13.890625 
Q 24.171875 6.390625 31.78125 6.390625 
Q 39.453125 6.390625 43.28125 13.890625 
Q 47.125 21.390625 47.125 36.375 
Q 47.125 51.421875 43.28125 58.90625 
Q 39.453125 66.40625 31.78125 66.40625 
z
M 31.78125 74.21875 
Q 44.046875 74.21875 50.515625 64.515625 
Q 56.984375 54.828125 56.984375 36.375 
Q 56.984375 17.96875 50.515625 8.265625 
Q 44.046875 -1.421875 31.78125 -1.421875 
Q 19.53125 -1.421875 13.0625 8.265625 
Q 6.59375 17.96875 6.59375 36.375 
Q 6.59375 54.828125 13.0625 64.515625 
Q 19.53125 74.21875 31.78125 74.21875 
z
" id="DejaVuSans-30"/>
     </defs>
     <g transform="translate(223.380577 524.224995)scale(0.1 -0.1)">
      <use xlink:href="#DejaVuSans-30"/>
     </g>
    </g>
   </g>
   <g id="xtick_6">
    <g id="line2d_7">
     <path d="M 273.29211 511.438762 
L 269.263166 515.334526 
" style="fill:none;stroke:#000000;stroke-linecap:square;stroke-width:0.8;"/>
    </g>
    <g id="text_7">
     <!-- 1 -->
     <g transform="translate(262.380741 537.107225)scale(0.1 -0.1)">
      <use xlink:href="#DejaVuSans-31"/>
     </g>
    </g>
   </g>
   <g id="xtick_7">
    <g id="line2d_8">
     <path d="M 312.77267 524.348443 
L 308.794334 528.293992 
" style="fill:none;stroke:#000000;stroke-linecap:square;stroke-width:0.8;"/>
    </g>
    <g id="text_8">
     <!-- 2 -->
     <g transform="translate(301.878065 550.153674)scale(0.1 -0.1)">
      <use xlink:href="#DejaVuSans-32"/>
     </g>
    </g>
   </g>
   <g id="xtick_8">
    <g id="line2d_9">
     <path d="M 352.758891 537.423469 
L 348.832796 541.419763 
" style="fill:none;stroke:#000000;stroke-linecap:square;stroke-width:0.8;"/>
    </g>
    <g id="text_9">
     <!-- 3 -->
     <g transform="translate(341.882116 563.3675)scale(0.1 -0.1)">
      <use xlink:href="#DejaVuSans-33"/>
     </g>
    </g>
   </g>
  </g>
  <g id="axis3d_2">
   <g id="line2d_10">
    <path d="M 508.260241 386.454445 
L 357.328625 540.677111 
" style="fill:none;stroke:#000000;stroke-linecap:square;stroke-width:0.8;"/>
   </g>
   <g id="text_10">
    <!-- Principal Component 3 -->
    <g transform="translate(402.347756 554.266837)rotate(-45.617904)scale(0.15 -0.15)">
     <use xlink:href="#DejaVuSans-50"/>
     <use x="60.287109" xlink:href="#DejaVuSans-72"/>
     <use x="101.400391" xlink:href="#DejaVuSans-69"/>
     <use x="129.183594" xlink:href="#DejaVuSans-6e"/>
     <use x="192.5625" xlink:href="#DejaVuSans-63"/>
     <use x="247.542969" xlink:href="#DejaVuSans-69"/>
     <use x="275.326172" xlink:href="#DejaVuSans-70"/>
     <use x="338.802734" xlink:href="#DejaVuSans-61"/>
     <use x="400.082031" xlink:href="#DejaVuSans-6c"/>
     <use x="427.865234" xlink:href="#DejaVuSans-20"/>
     <use x="459.652344" xlink:href="#DejaVuSans-43"/>
     <use x="529.476562" xlink:href="#DejaVuSans-6f"/>
     <use x="590.658203" xlink:href="#DejaVuSans-6d"/>
     <use x="688.070312" xlink:href="#DejaVuSans-70"/>
     <use x="751.546875" xlink:href="#DejaVuSans-6f"/>
     <use x="812.728516" xlink:href="#DejaVuSans-6e"/>
     <use x="876.107422" xlink:href="#DejaVuSans-65"/>
     <use x="937.630859" xlink:href="#DejaVuSans-6e"/>
     <use x="1001.009766" xlink:href="#DejaVuSans-74"/>
     <use x="1040.21875" xlink:href="#DejaVuSans-20"/>
     <use x="1072.005859" xlink:href="#DejaVuSans-33"/>
    </g>
   </g>
   <g id="Line3DCollection_2">
    <path d="M 68.180167 161.794698 
L 79.904448 445.685983 
L 360.586508 537.348189 
" style="fill:none;stroke:#b0b0b0;stroke-width:0.8;"/>
    <path d="M 103.651211 135.935141 
L 113.403632 416.988951 
L 391.334149 505.9301 
" style="fill:none;stroke:#b0b0b0;stroke-width:0.8;"/>
    <path d="M 138.046299 110.85999 
L 145.937509 389.118847 
L 421.155645 475.458349 
" style="fill:none;stroke:#b0b0b0;stroke-width:0.8;"/>
    <path d="M 171.413658 86.534089 
L 177.54721 362.040437 
L 450.09222 445.890815 
" style="fill:none;stroke:#b0b0b0;stroke-width:0.8;"/>
    <path d="M 203.798671 62.924349 
L 208.271564 335.720459 
L 478.182688 417.187837 
" style="fill:none;stroke:#b0b0b0;stroke-width:0.8;"/>
    <path d="M 235.24409 39.999605 
L 238.147253 310.127489 
L 505.463623 389.312043 
" style="fill:none;stroke:#b0b0b0;stroke-width:0.8;"/>
   </g>
   <g id="xtick_9">
    <g id="line2d_11">
     <path d="M 358.237081 536.580938 
L 365.290633 538.884413 
" style="fill:none;stroke:#000000;stroke-linecap:square;stroke-width:0.8;"/>
    </g>
    <g id="text_11">
     <!-- −2 -->
     <g transform="translate(364.340276 559.234896)scale(0.1 -0.1)">
      <use xlink:href="#DejaVuSans-2212"/>
      <use x="83.789062" xlink:href="#DejaVuSans-32"/>
     </g>
    </g>
   </g>
   <g id="xtick_10">
    <g id="line2d_12">
     <path d="M 389.009326 505.186129 
L 395.988927 507.419686 
" style="fill:none;stroke:#000000;stroke-linecap:square;stroke-width:0.8;"/>
    </g>
    <g id="text_12">
     <!-- −1 -->
     <g transform="translate(394.909474 527.606953)scale(0.1 -0.1)">
      <use xlink:href="#DejaVuSans-2212"/>
      <use x="83.789062" xlink:href="#DejaVuSans-31"/>
     </g>
    </g>
   </g>
   <g id="xtick_11">
    <g id="line2d_13">
     <path d="M 418.855022 474.736614 
L 425.761894 476.903389 
" style="fill:none;stroke:#000000;stroke-linecap:square;stroke-width:0.8;"/>
    </g>
    <g id="text_13">
     <!-- 0 -->
     <g transform="translate(428.747994 496.931414)scale(0.1 -0.1)">
      <use xlink:href="#DejaVuSans-30"/>
     </g>
    </g>
   </g>
   <g id="xtick_12">
    <g id="line2d_14">
     <path d="M 447.815395 445.190334 
L 454.650749 447.293278 
" style="fill:none;stroke:#000000;stroke-linecap:square;stroke-width:0.8;"/>
    </g>
    <g id="text_14">
     <!-- 1 -->
     <g transform="translate(457.51711 467.165897)scale(0.1 -0.1)">
      <use xlink:href="#DejaVuSans-31"/>
     </g>
    </g>
   </g>
   <g id="xtick_13">
    <g id="line2d_15">
     <path d="M 475.929262 416.507685 
L 482.694296 418.549578 
" style="fill:none;stroke:#000000;stroke-linecap:square;stroke-width:0.8;"/>
    </g>
    <g id="text_15">
     <!-- 2 -->
     <g transform="translate(485.445235 438.2705)scale(0.1 -0.1)">
      <use xlink:href="#DejaVuSans-32"/>
     </g>
    </g>
   </g>
   <g id="xtick_14">
    <g id="line2d_16">
     <path d="M 503.233204 388.651348 
L 509.929104 390.63481 
" style="fill:none;stroke:#000000;stroke-linecap:square;stroke-width:0.8;"/>
    </g>
    <g id="text_16">
     <!-- 3 -->
     <g transform="translate(512.568712 410.207618)scale(0.1 -0.1)">
      <use xlink:href="#DejaVuSans-33"/>
     </g>
    </g>
   </g>
  </g>
  <g id="axis3d_3">
   <g id="line2d_17">
    <path d="M 508.260241 386.454445 
L 519.433224 108.46481 
" style="fill:none;stroke:#000000;stroke-linecap:square;stroke-width:0.8;"/>
   </g>
   <g id="Line3DCollection_3">
    <path d="M 509.644027 352.025131 
L 240.871338 274.01681 
L 74.881599 413.580201 
" style="fill:none;stroke:#b0b0b0;stroke-width:0.8;"/>
    <path d="M 511.353274 309.498182 
L 240.450912 232.680808 
L 73.057456 370.149674 
" style="fill:none;stroke:#b0b0b0;stroke-width:0.8;"/>
    <path d="M 513.090062 266.285976 
L 240.023999 190.706961 
L 71.202935 325.995903 
" style="fill:none;stroke:#b0b0b0;stroke-width:0.8;"/>
    <path d="M 514.855064 222.371815 
L 239.590448 148.080392 
L 69.317272 281.100669 
" style="fill:none;stroke:#b0b0b0;stroke-width:0.8;"/>
    <path d="M 516.648972 177.738454 
L 239.150101 104.785755 
L 67.399676 235.445138 
" style="fill:none;stroke:#b0b0b0;stroke-width:0.8;"/>
    <path d="M 518.472501 132.368081 
L 238.702799 60.807223 
L 65.449328 189.009831 
" style="fill:none;stroke:#b0b0b0;stroke-width:0.8;"/>
   </g>
   <g id="xtick_15">
    <g id="line2d_18">
     <path d="M 507.400995 351.374116 
L 514.134784 353.328524 
" style="fill:none;stroke:#000000;stroke-linecap:square;stroke-width:0.8;"/>
    </g>
    <g id="text_17">
     <!-- −2 -->
     <g transform="translate(518.387857 357.341966)scale(0.1 -0.1)">
      <use xlink:href="#DejaVuSans-2212"/>
      <use x="83.789062" xlink:href="#DejaVuSans-32"/>
     </g>
    </g>
   </g>
   <g id="xtick_16">
    <g id="line2d_19">
     <path d="M 509.09172 308.856894 
L 515.881149 310.782112 
" style="fill:none;stroke:#000000;stroke-linecap:square;stroke-width:0.8;"/>
    </g>
    <g id="text_18">
     <!-- −1 -->
     <g transform="translate(520.223639 314.849123)scale(0.1 -0.1)">
      <use xlink:href="#DejaVuSans-2212"/>
      <use x="83.789062" xlink:href="#DejaVuSans-31"/>
     </g>
    </g>
   </g>
   <g id="xtick_17">
    <g id="line2d_20">
     <path d="M 510.80968 265.654814 
L 517.655674 267.549642 
" style="fill:none;stroke:#000000;stroke-linecap:square;stroke-width:0.8;"/>
    </g>
    <g id="text_19">
     <!-- 0 -->
     <g transform="translate(526.278808 271.672421)scale(0.1 -0.1)">
      <use xlink:href="#DejaVuSans-30"/>
     </g>
    </g>
   </g>
   <g id="xtick_18">
    <g id="line2d_21">
     <path d="M 512.555537 221.751193 
L 519.459045 223.614388 
" style="fill:none;stroke:#000000;stroke-linecap:square;stroke-width:0.8;"/>
    </g>
    <g id="text_20">
     <!-- 1 -->
     <g transform="translate(528.174397 227.795217)scale(0.1 -0.1)">
      <use xlink:href="#DejaVuSans-31"/>
     </g>
    </g>
   </g>
   <g id="xtick_19">
    <g id="line2d_22">
     <path d="M 514.329976 177.128805 
L 521.291972 178.95907 
" style="fill:none;stroke:#000000;stroke-linecap:square;stroke-width:0.8;"/>
    </g>
    <g id="text_21">
     <!-- 2 -->
     <g transform="translate(530.100992 183.200326)scale(0.1 -0.1)">
      <use xlink:href="#DejaVuSans-32"/>
     </g>
    </g>
   </g>
   <g id="xtick_20">
    <g id="line2d_23">
     <path d="M 516.133705 131.769852 
L 523.155188 133.565841 
" style="fill:none;stroke:#000000;stroke-linecap:square;stroke-width:0.8;"/>
    </g>
    <g id="text_22">
     <!-- 3 -->
     <g transform="translate(532.059359 137.869992)scale(0.1 -0.1)">
      <use xlink:href="#DejaVuSans-33"/>
     </g>
    </g>
   </g>
  </g>
  <g id="axes_1">
   <g id="Path3DCollection_1">
    <defs>
     <path d="M 0 3.535534 
C 0.937635 3.535534 1.836992 3.163008 2.5 2.5 
C 3.163008 1.836992 3.535534 0.937635 3.535534 0 
C 3.535534 -0.937635 3.163008 -1.836992 2.5 -2.5 
C 1.836992 -3.163008 0.937635 -3.535534 0 -3.535534 
C -0.937635 -3.535534 -1.836992 -3.163008 -2.5 -2.5 
C -3.163008 -1.836992 -3.535534 -0.937635 -3.535534 0 
C -3.535534 0.937635 -3.163008 1.836992 -2.5 2.5 
C -1.836992 3.163008 -0.937635 3.535534 0 3.535534 
z
" id="C0_0_cb221db16d"/>
    </defs>
    <g clip-path="url(#p1761046585)">
     <use style="fill:#0000ff;fill-opacity:0.811389;stroke:#0000ff;stroke-opacity:0.811389;" x="287.004488" xlink:href="#C0_0_cb221db16d" y="317.697451"/>
    </g>
    <g clip-path="url(#p1761046585)">
     <use style="fill:#0000ff;fill-opacity:0.747088;stroke:#0000ff;stroke-opacity:0.747088;" x="307.221789" xlink:href="#C0_0_cb221db16d" y="308.242853"/>
    </g>
    <g clip-path="url(#p1761046585)">
     <use style="fill:#0000ff;fill-opacity:0.912975;stroke:#0000ff;stroke-opacity:0.912975;" x="327.200593" xlink:href="#C0_0_cb221db16d" y="347.206835"/>
    </g>
    <g clip-path="url(#p1761046585)">
     <use style="fill:#0000ff;fill-opacity:0.690106;stroke:#0000ff;stroke-opacity:0.690106;" x="331.0328" xlink:href="#C0_0_cb221db16d" y="333.066886"/>
    </g>
    <g clip-path="url(#p1761046585)">
     <use style="fill:#0000ff;fill-opacity:0.691956;stroke:#0000ff;stroke-opacity:0.691956;" x="343.705986" xlink:href="#C0_0_cb221db16d" y="304.416638"/>
    </g>
    <g clip-path="url(#p1761046585)">
     <use style="fill:#0000ff;fill-opacity:0.789914;stroke:#0000ff;stroke-opacity:0.789914;" x="287.374896" xlink:href="#C0_0_cb221db16d" y="337.896589"/>
    </g>
    <g clip-path="url(#p1761046585)">
     <use style="fill:#0000ff;fill-opacity:0.671696;stroke:#0000ff;stroke-opacity:0.671696;" x="355.822502" xlink:href="#C0_0_cb221db16d" y="340.166966"/>
    </g>
    <g clip-path="url(#p1761046585)">
     <use style="fill:#0000ff;fill-opacity:0.570142;stroke:#0000ff;stroke-opacity:0.570142;" x="307.207585" xlink:href="#C0_0_cb221db16d" y="298.364112"/>
    </g>
    <g clip-path="url(#p1761046585)">
     <use style="fill:#0000ff;fill-opacity:0.740882;stroke:#0000ff;stroke-opacity:0.740882;" x="339.076095" xlink:href="#C0_0_cb221db16d" y="338.6048"/>
    </g>
    <g clip-path="url(#p1761046585)">
     <use style="fill:#0000ff;fill-opacity:0.893532;stroke:#0000ff;stroke-opacity:0.893532;" x="287.853707" xlink:href="#C0_0_cb221db16d" y="331.727968"/>
    </g>
    <g clip-path="url(#p1761046585)">
     <use style="fill:#0000ff;fill-opacity:0.691673;stroke:#0000ff;stroke-opacity:0.691673;" x="333.683791" xlink:href="#C0_0_cb221db16d" y="267.597266"/>
    </g>
    <g clip-path="url(#p1761046585)">
     <use style="fill:#0000ff;fill-opacity:0.562653;stroke:#0000ff;stroke-opacity:0.562653;" x="337.618449" xlink:href="#C0_0_cb221db16d" y="228.92111"/>
    </g>
    <g clip-path="url(#p1761046585)">
     <use style="fill:#0000ff;fill-opacity:0.960351;stroke:#0000ff;stroke-opacity:0.960351;" x="312.350845" xlink:href="#C0_0_cb221db16d" y="274.257968"/>
    </g>
    <g clip-path="url(#p1761046585)">
     <use style="fill:#0000ff;fill-opacity:0.843469;stroke:#0000ff;stroke-opacity:0.843469;" x="215.017825" xlink:href="#C0_0_cb221db16d" y="305.076939"/>
    </g>
    <g clip-path="url(#p1761046585)">
     <use style="fill:#0000ff;fill-opacity:0.801043;stroke:#0000ff;stroke-opacity:0.801043;" x="313.216891" xlink:href="#C0_0_cb221db16d" y="281.304169"/>
    </g>
    <g clip-path="url(#p1761046585)">
     <use style="fill:#0000ff;fill-opacity:0.874449;stroke:#0000ff;stroke-opacity:0.874449;" x="336.323037" xlink:href="#C0_0_cb221db16d" y="317.781787"/>
    </g>
    <g clip-path="url(#p1761046585)">
     <use style="fill:#0000ff;fill-opacity:0.823033;stroke:#0000ff;stroke-opacity:0.823033;" x="313.587196" xlink:href="#C0_0_cb221db16d" y="251.285849"/>
    </g>
    <g clip-path="url(#p1761046585)">
     <use style="fill:#0000ff;fill-opacity:0.789702;stroke:#0000ff;stroke-opacity:0.789702;" x="243.206789" xlink:href="#C0_0_cb221db16d" y="256.51062"/>
    </g>
    <g clip-path="url(#p1761046585)">
     <use style="fill:#0000ff;stroke:#0000ff;" x="304.99614" xlink:href="#C0_0_cb221db16d" y="299.538052"/>
    </g>
    <g clip-path="url(#p1761046585)">
     <use style="fill:#0000ff;fill-opacity:0.705933;stroke:#0000ff;stroke-opacity:0.705933;" x="291.137102" xlink:href="#C0_0_cb221db16d" y="223.859692"/>
    </g>
    <g clip-path="url(#p1761046585)">
     <use style="fill:#0000ff;fill-opacity:0.827498;stroke:#0000ff;stroke-opacity:0.827498;" x="261.509127" xlink:href="#C0_0_cb221db16d" y="260.307537"/>
    </g>
    <g clip-path="url(#p1761046585)">
     <use style="fill:#0000ff;fill-opacity:0.603002;stroke:#0000ff;stroke-opacity:0.603002;" x="279.562461" xlink:href="#C0_0_cb221db16d" y="255.33212"/>
    </g>
    <g clip-path="url(#p1761046585)">
     <use style="fill:#0000ff;fill-opacity:0.982691;stroke:#0000ff;stroke-opacity:0.982691;" x="247.351195" xlink:href="#C0_0_cb221db16d" y="318.435375"/>
    </g>
    <g clip-path="url(#p1761046585)">
     <use style="fill:#0000ff;fill-opacity:0.988114;stroke:#0000ff;stroke-opacity:0.988114;" x="318.929716" xlink:href="#C0_0_cb221db16d" y="172.346775"/>
    </g>
    <g clip-path="url(#p1761046585)">
     <use style="fill:#0000ff;fill-opacity:0.602151;stroke:#0000ff;stroke-opacity:0.602151;" x="243.753337" xlink:href="#C0_0_cb221db16d" y="172.212758"/>
    </g>
    <g clip-path="url(#p1761046585)">
     <use style="fill:#0000ff;fill-opacity:0.3;stroke:#0000ff;stroke-opacity:0.3;" x="308.410413" xlink:href="#C0_0_cb221db16d" y="167.386811"/>
    </g>
    <g clip-path="url(#p1761046585)">
     <use style="fill:#0000ff;fill-opacity:0.718812;stroke:#0000ff;stroke-opacity:0.718812;" x="284.25709" xlink:href="#C0_0_cb221db16d" y="282.600562"/>
    </g>
    <g clip-path="url(#p1761046585)">
     <use style="fill:#0000ff;fill-opacity:0.689349;stroke:#0000ff;stroke-opacity:0.689349;" x="332.981484" xlink:href="#C0_0_cb221db16d" y="327.905006"/>
    </g>
    <g clip-path="url(#p1761046585)">
     <use style="fill:#0000ff;fill-opacity:0.712615;stroke:#0000ff;stroke-opacity:0.712615;" x="270.909127" xlink:href="#C0_0_cb221db16d" y="336.026846"/>
    </g>
    <g clip-path="url(#p1761046585)">
     <use style="fill:#0000ff;fill-opacity:0.734258;stroke:#0000ff;stroke-opacity:0.734258;" x="329.344686" xlink:href="#C0_0_cb221db16d" y="328.418308"/>
    </g>
   </g>
   <g id="Path3DCollection_2">
    <defs>
     <path d="M 0 3.535534 
C 0.937635 3.535534 1.836992 3.163008 2.5 2.5 
C 3.163008 1.836992 3.535534 0.937635 3.535534 0 
C 3.535534 -0.937635 3.163008 -1.836992 2.5 -2.5 
C 1.836992 -3.163008 0.937635 -3.535534 0 -3.535534 
C -0.937635 -3.535534 -1.836992 -3.163008 -2.5 -2.5 
C -3.163008 -1.836992 -3.535534 -0.937635 -3.535534 0 
C -3.535534 0.937635 -3.163008 1.836992 -2.5 2.5 
C -1.836992 3.163008 -0.937635 3.535534 0 3.535534 
z
" id="C1_0_789ab28c6f"/>
    </defs>
    <g clip-path="url(#p1761046585)">
     <use style="fill:#ff0000;fill-opacity:0.895257;stroke:#ff0000;stroke-opacity:0.895257;" x="442.365757" xlink:href="#C1_0_789ab28c6f" y="360.703645"/>
    </g>
    <g clip-path="url(#p1761046585)">
     <use style="fill:#ff0000;fill-opacity:0.3573;stroke:#ff0000;stroke-opacity:0.3573;" x="192.506261" xlink:href="#C1_0_789ab28c6f" y="411.235351"/>
    </g>
    <g clip-path="url(#p1761046585)">
     <use style="fill:#ff0000;fill-opacity:0.78575;stroke:#ff0000;stroke-opacity:0.78575;" x="105.92503" xlink:href="#C1_0_789ab28c6f" y="426.10973"/>
    </g>
    <g clip-path="url(#p1761046585)">
     <use style="fill:#ff0000;fill-opacity:0.841642;stroke:#ff0000;stroke-opacity:0.841642;" x="96.67642" xlink:href="#C1_0_789ab28c6f" y="410.474496"/>
    </g>
    <g clip-path="url(#p1761046585)">
     <use style="fill:#ff0000;fill-opacity:0.625783;stroke:#ff0000;stroke-opacity:0.625783;" x="87.144796" xlink:href="#C1_0_789ab28c6f" y="401.059184"/>
    </g>
    <g clip-path="url(#p1761046585)">
     <use style="fill:#ff0000;fill-opacity:0.322678;stroke:#ff0000;stroke-opacity:0.322678;" x="306.966214" xlink:href="#C1_0_789ab28c6f" y="376.157187"/>
    </g>
    <g clip-path="url(#p1761046585)">
     <use style="fill:#ff0000;fill-opacity:0.3;stroke:#ff0000;stroke-opacity:0.3;" x="310.935635" xlink:href="#C1_0_789ab28c6f" y="357.921921"/>
    </g>
    <g clip-path="url(#p1761046585)">
     <use style="fill:#ff0000;fill-opacity:0.570336;stroke:#ff0000;stroke-opacity:0.570336;" x="216.406383" xlink:href="#C1_0_789ab28c6f" y="249.772082"/>
    </g>
    <g clip-path="url(#p1761046585)">
     <use style="fill:#ff0000;fill-opacity:0.37127;stroke:#ff0000;stroke-opacity:0.37127;" x="148.264476" xlink:href="#C1_0_789ab28c6f" y="129.995471"/>
    </g>
    <g clip-path="url(#p1761046585)">
     <use style="fill:#ff0000;fill-opacity:0.747338;stroke:#ff0000;stroke-opacity:0.747338;" x="431.02229" xlink:href="#C1_0_789ab28c6f" y="225.018901"/>
    </g>
    <g clip-path="url(#p1761046585)">
     <use style="fill:#ff0000;fill-opacity:0.685883;stroke:#ff0000;stroke-opacity:0.685883;" x="117.116789" xlink:href="#C1_0_789ab28c6f" y="350.841267"/>
    </g>
    <g clip-path="url(#p1761046585)">
     <use style="fill:#ff0000;fill-opacity:0.431895;stroke:#ff0000;stroke-opacity:0.431895;" x="354.456326" xlink:href="#C1_0_789ab28c6f" y="330.357763"/>
    </g>
    <g clip-path="url(#p1761046585)">
     <use style="fill:#ff0000;fill-opacity:0.356927;stroke:#ff0000;stroke-opacity:0.356927;" x="316.249749" xlink:href="#C1_0_789ab28c6f" y="336.341415"/>
    </g>
    <g clip-path="url(#p1761046585)">
     <use style="fill:#ff0000;fill-opacity:0.65494;stroke:#ff0000;stroke-opacity:0.65494;" x="116.700758" xlink:href="#C1_0_789ab28c6f" y="402.869176"/>
    </g>
    <g clip-path="url(#p1761046585)">
     <use style="fill:#ff0000;fill-opacity:0.840407;stroke:#ff0000;stroke-opacity:0.840407;" x="383.282286" xlink:href="#C1_0_789ab28c6f" y="305.074139"/>
    </g>
    <g clip-path="url(#p1761046585)">
     <use style="fill:#ff0000;fill-opacity:0.795237;stroke:#ff0000;stroke-opacity:0.795237;" x="123.796234" xlink:href="#C1_0_789ab28c6f" y="299.682861"/>
    </g>
    <g clip-path="url(#p1761046585)">
     <use style="fill:#ff0000;stroke:#ff0000;" x="114.952423" xlink:href="#C1_0_789ab28c6f" y="360.932622"/>
    </g>
   </g>
   <g id="Path3DCollection_3">
    <defs>
     <path d="M 0 3.535534 
C 0.937635 3.535534 1.836992 3.163008 2.5 2.5 
C 3.163008 1.836992 3.535534 0.937635 3.535534 0 
C 3.535534 -0.937635 3.163008 -1.836992 2.5 -2.5 
C 1.836992 -3.163008 0.937635 -3.535534 0 -3.535534 
C -0.937635 -3.535534 -1.836992 -3.163008 -2.5 -2.5 
C -3.163008 -1.836992 -3.535534 -0.937635 -3.535534 0 
C -3.535534 0.937635 -3.163008 1.836992 -2.5 2.5 
C -1.836992 3.163008 -0.937635 3.535534 0 3.535534 
z
" id="C2_0_306fdcb6d5"/>
    </defs>
    <g clip-path="url(#p1761046585)">
     <use style="fill:#008000;fill-opacity:0.3;stroke:#008000;stroke-opacity:0.3;" x="457.539237" xlink:href="#C2_0_306fdcb6d5" y="357.948206"/>
    </g>
    <g clip-path="url(#p1761046585)">
     <use style="fill:#008000;fill-opacity:0.372955;stroke:#008000;stroke-opacity:0.372955;" x="412.425374" xlink:href="#C2_0_306fdcb6d5" y="359.686013"/>
    </g>
    <g clip-path="url(#p1761046585)">
     <use style="fill:#008000;fill-opacity:0.633302;stroke:#008000;stroke-opacity:0.633302;" x="407.167523" xlink:href="#C2_0_306fdcb6d5" y="395.992809"/>
    </g>
    <g clip-path="url(#p1761046585)">
     <use style="fill:#008000;fill-opacity:0.744271;stroke:#008000;stroke-opacity:0.744271;" x="390.377285" xlink:href="#C2_0_306fdcb6d5" y="380.00061"/>
    </g>
    <g clip-path="url(#p1761046585)">
     <use style="fill:#008000;stroke:#008000;" x="472.725432" xlink:href="#C2_0_306fdcb6d5" y="391.907004"/>
    </g>
    <g clip-path="url(#p1761046585)">
     <use style="fill:#008000;fill-opacity:0.37203;stroke:#008000;stroke-opacity:0.37203;" x="432.439355" xlink:href="#C2_0_306fdcb6d5" y="330.358747"/>
    </g>
    <g clip-path="url(#p1761046585)">
     <use style="fill:#008000;fill-opacity:0.65533;stroke:#008000;stroke-opacity:0.65533;" x="341.567334" xlink:href="#C2_0_306fdcb6d5" y="359.487133"/>
    </g>
    <g clip-path="url(#p1761046585)">
     <use style="fill:#008000;fill-opacity:0.500307;stroke:#008000;stroke-opacity:0.500307;" x="316.399959" xlink:href="#C2_0_306fdcb6d5" y="393.929256"/>
    </g>
    <g clip-path="url(#p1761046585)">
     <use style="fill:#008000;fill-opacity:0.745588;stroke:#008000;stroke-opacity:0.745588;" x="390.295981" xlink:href="#C2_0_306fdcb6d5" y="420.212195"/>
    </g>
    <g clip-path="url(#p1761046585)">
     <use style="fill:#008000;fill-opacity:0.386937;stroke:#008000;stroke-opacity:0.386937;" x="444.692929" xlink:href="#C2_0_306fdcb6d5" y="354.801576"/>
    </g>
    <g clip-path="url(#p1761046585)">
     <use style="fill:#008000;fill-opacity:0.519171;stroke:#008000;stroke-opacity:0.519171;" x="377.761873" xlink:href="#C2_0_306fdcb6d5" y="320.973732"/>
    </g>
    <g clip-path="url(#p1761046585)">
     <use style="fill:#008000;fill-opacity:0.559901;stroke:#008000;stroke-opacity:0.559901;" x="319.780952" xlink:href="#C2_0_306fdcb6d5" y="307.101066"/>
    </g>
   </g>
   <g id="text_23">
    <!-- 3 Component PCA -->
    <defs>
     <path d="M 34.1875 63.1875 
L 20.796875 26.90625 
L 47.609375 26.90625 
z
M 28.609375 72.90625 
L 39.796875 72.90625 
L 67.578125 0 
L 57.328125 0 
L 50.6875 18.703125 
L 17.828125 18.703125 
L 11.1875 0 
L 0.78125 0 
z
" id="DejaVuSans-41"/>
    </defs>
    <g transform="translate(197.370313 40.08)scale(0.2 -0.2)">
     <use xlink:href="#DejaVuSans-33"/>
     <use x="63.623047" xlink:href="#DejaVuSans-20"/>
     <use x="95.410156" xlink:href="#DejaVuSans-43"/>
     <use x="165.234375" xlink:href="#DejaVuSans-6f"/>
     <use x="226.416016" xlink:href="#DejaVuSans-6d"/>
     <use x="323.828125" xlink:href="#DejaVuSans-70"/>
     <use x="387.304688" xlink:href="#DejaVuSans-6f"/>
     <use x="448.486328" xlink:href="#DejaVuSans-6e"/>
     <use x="511.865234" xlink:href="#DejaVuSans-65"/>
     <use x="573.388672" xlink:href="#DejaVuSans-6e"/>
     <use x="636.767578" xlink:href="#DejaVuSans-74"/>
     <use x="675.976562" xlink:href="#DejaVuSans-20"/>
     <use x="707.763672" xlink:href="#DejaVuSans-50"/>
     <use x="768.066406" xlink:href="#DejaVuSans-43"/>
     <use x="837.890625" xlink:href="#DejaVuSans-41"/>
    </g>
   </g>
   <g id="legend_1">
    <g id="patch_6">
     <path d="M 509.815625 52.034375 
L 569 52.034375 
Q 571 52.034375 571 50.034375 
L 571 7 
Q 571 5 569 5 
L 509.815625 5 
Q 507.815625 5 507.815625 7 
L 507.815625 50.034375 
Q 507.815625 52.034375 509.815625 52.034375 
z
" style="fill:#ffffff;opacity:0.8;stroke:#cccccc;stroke-linejoin:miter;"/>
    </g>
    <g id="Path3DCollection_4">
     <defs>
      <path d="M 0 3.535534 
C 0.937635 3.535534 1.836992 3.163008 2.5 2.5 
C 3.163008 1.836992 3.535534 0.937635 3.535534 0 
C 3.535534 -0.937635 3.163008 -1.836992 2.5 -2.5 
C 1.836992 -3.163008 0.937635 -3.535534 0 -3.535534 
C -0.937635 -3.535534 -1.836992 -3.163008 -2.5 -2.5 
C -3.163008 -1.836992 -3.535534 -0.937635 -3.535534 0 
C -3.535534 0.937635 -3.163008 1.836992 -2.5 2.5 
C -1.836992 3.163008 -0.937635 3.535534 0 3.535534 
z
" id="m82157137e7" style="stroke:#ff0000;"/>
     </defs>
     <g>
      <use style="fill:#ff0000;stroke:#ff0000;" x="521.815625" xlink:href="#m82157137e7" y="13.973437"/>
     </g>
    </g>
    <g id="text_24">
     <!-- NF -->
     <defs>
      <path d="M 9.8125 72.90625 
L 23.09375 72.90625 
L 55.421875 11.921875 
L 55.421875 72.90625 
L 64.984375 72.90625 
L 64.984375 0 
L 51.703125 0 
L 19.390625 60.984375 
L 19.390625 0 
L 9.8125 0 
z
" id="DejaVuSans-4e"/>
      <path d="M 9.8125 72.90625 
L 51.703125 72.90625 
L 51.703125 64.59375 
L 19.671875 64.59375 
L 19.671875 43.109375 
L 48.578125 43.109375 
L 48.578125 34.8125 
L 19.671875 34.8125 
L 19.671875 0 
L 9.8125 0 
z
" id="DejaVuSans-46"/>
     </defs>
     <g transform="translate(539.815625 16.598437)scale(0.1 -0.1)">
      <use xlink:href="#DejaVuSans-4e"/>
      <use x="74.804688" xlink:href="#DejaVuSans-46"/>
     </g>
    </g>
    <g id="Path3DCollection_5">
     <defs>
      <path d="M 0 3.535534 
C 0.937635 3.535534 1.836992 3.163008 2.5 2.5 
C 3.163008 1.836992 3.535534 0.937635 3.535534 0 
C 3.535534 -0.937635 3.163008 -1.836992 2.5 -2.5 
C 1.836992 -3.163008 0.937635 -3.535534 0 -3.535534 
C -0.937635 -3.535534 -1.836992 -3.163008 -2.5 -2.5 
C -3.163008 -1.836992 -3.535534 -0.937635 -3.535534 0 
C -3.535534 0.937635 -3.163008 1.836992 -2.5 2.5 
C -1.836992 3.163008 -0.937635 3.535534 0 3.535534 
z
" id="mac9ba40a37" style="stroke:#008000;"/>
     </defs>
     <g>
      <use style="fill:#008000;stroke:#008000;" x="521.815625" xlink:href="#mac9ba40a37" y="28.651562"/>
     </g>
    </g>
    <g id="text_25">
     <!-- PV+ -->
     <defs>
      <path d="M 28.609375 0 
L 0.78125 72.90625 
L 11.078125 72.90625 
L 34.1875 11.53125 
L 57.328125 72.90625 
L 67.578125 72.90625 
L 39.796875 0 
z
" id="DejaVuSans-56"/>
      <path d="M 46 62.703125 
L 46 35.5 
L 73.1875 35.5 
L 73.1875 27.203125 
L 46 27.203125 
L 46 0 
L 37.796875 0 
L 37.796875 27.203125 
L 10.59375 27.203125 
L 10.59375 35.5 
L 37.796875 35.5 
L 37.796875 62.703125 
z
" id="DejaVuSans-2b"/>
     </defs>
     <g transform="translate(539.815625 31.276562)scale(0.1 -0.1)">
      <use xlink:href="#DejaVuSans-50"/>
      <use x="60.302734" xlink:href="#DejaVuSans-56"/>
      <use x="128.710938" xlink:href="#DejaVuSans-2b"/>
     </g>
    </g>
    <g id="Path3DCollection_6">
     <defs>
      <path d="M 0 3.535534 
C 0.937635 3.535534 1.836992 3.163008 2.5 2.5 
C 3.163008 1.836992 3.535534 0.937635 3.535534 0 
C 3.535534 -0.937635 3.163008 -1.836992 2.5 -2.5 
C 1.836992 -3.163008 0.937635 -3.535534 0 -3.535534 
C -0.937635 -3.535534 -1.836992 -3.163008 -2.5 -2.5 
C -3.163008 -1.836992 -3.535534 -0.937635 -3.535534 0 
C -3.535534 0.937635 -3.163008 1.836992 -2.5 2.5 
C -1.836992 3.163008 -0.937635 3.535534 0 3.535534 
z
" id="mcb5c49bdcd" style="stroke:#0000ff;"/>
     </defs>
     <g>
      <use style="fill:#0000ff;stroke:#0000ff;" x="521.815625" xlink:href="#mcb5c49bdcd" y="43.329687"/>
     </g>
    </g>
    <g id="text_26">
     <!-- SST+ -->
     <defs>
      <path d="M 53.515625 70.515625 
L 53.515625 60.890625 
Q 47.90625 63.578125 42.921875 64.890625 
Q 37.9375 66.21875 33.296875 66.21875 
Q 25.25 66.21875 20.875 63.09375 
Q 16.5 59.96875 16.5 54.203125 
Q 16.5 49.359375 19.40625 46.890625 
Q 22.3125 44.4375 30.421875 42.921875 
L 36.375 41.703125 
Q 47.40625 39.59375 52.65625 34.296875 
Q 57.90625 29 57.90625 20.125 
Q 57.90625 9.515625 50.796875 4.046875 
Q 43.703125 -1.421875 29.984375 -1.421875 
Q 24.8125 -1.421875 18.96875 -0.25 
Q 13.140625 0.921875 6.890625 3.21875 
L 6.890625 13.375 
Q 12.890625 10.015625 18.65625 8.296875 
Q 24.421875 6.59375 29.984375 6.59375 
Q 38.421875 6.59375 43.015625 9.90625 
Q 47.609375 13.234375 47.609375 19.390625 
Q 47.609375 24.75 44.3125 27.78125 
Q 41.015625 30.8125 33.5 32.328125 
L 27.484375 33.5 
Q 16.453125 35.6875 11.515625 40.375 
Q 6.59375 45.0625 6.59375 53.421875 
Q 6.59375 63.09375 13.40625 68.65625 
Q 20.21875 74.21875 32.171875 74.21875 
Q 37.3125 74.21875 42.625 73.28125 
Q 47.953125 72.359375 53.515625 70.515625 
z
" id="DejaVuSans-53"/>
      <path d="M -0.296875 72.90625 
L 61.375 72.90625 
L 61.375 64.59375 
L 35.5 64.59375 
L 35.5 0 
L 25.59375 0 
L 25.59375 64.59375 
L -0.296875 64.59375 
z
" id="DejaVuSans-54"/>
     </defs>
     <g transform="translate(539.815625 45.954687)scale(0.1 -0.1)">
      <use xlink:href="#DejaVuSans-53"/>
      <use x="63.476562" xlink:href="#DejaVuSans-53"/>
      <use x="126.953125" xlink:href="#DejaVuSans-54"/>
      <use x="188.037109" xlink:href="#DejaVuSans-2b"/>
     </g>
    </g>
   </g>
  </g>
 </g>
 <defs>
  <clipPath id="p1761046585">
   <rect height="576" width="576" x="0" y="0"/>
  </clipPath>
 </defs>
</svg>
