<?xml version="1.0" encoding="utf-8" standalone="no"?>
<!DOCTYPE svg PUBLIC "-//W3C//DTD SVG 1.1//EN"
  "http://www.w3.org/Graphics/SVG/1.1/DTD/svg11.dtd">
<!-- Created with matplotlib (http://matplotlib.org/) -->
<svg height="720pt" version="1.1" viewBox="0 0 720 720" width="720pt" xmlns="http://www.w3.org/2000/svg" xmlns:xlink="http://www.w3.org/1999/xlink">
 <defs>
  <style type="text/css">
*{stroke-linecap:butt;stroke-linejoin:round;}
  </style>
 </defs>
 <g id="figure_1">
  <g id="patch_1">
   <path d="M 0 720 
L 720 720 
L 720 0 
L 0 0 
z
" style="fill:#ffffff;"/>
  </g>
  <g id="patch_2">
   <path d="M 0 720 
L 720 720 
L 720 0 
L 0 0 
z
" style="fill:#ffffff;"/>
  </g>
  <g id="pane3d_1">
   <g id="patch_3">
    <path d="M 95.447126 560.905374 
L 301.514893 384.377689 
L 298.084083 47.062254 
L 80.526688 205.668749 
" style="fill:#f2f2f2;opacity:0.5;stroke:#f2f2f2;stroke-linejoin:miter;"/>
   </g>
  </g>
  <g id="pane3d_2">
   <g id="patch_4">
    <path d="M 301.514893 384.377689 
L 635.325302 483.068056 
L 649.291529 135.581012 
L 298.084083 47.062254 
" style="fill:#e6e6e6;opacity:0.5;stroke:#e6e6e6;stroke-linejoin:miter;"/>
   </g>
  </g>
  <g id="pane3d_3">
   <g id="patch_5">
    <path d="M 95.447126 560.905374 
L 446.660781 675.846388 
L 635.325302 483.068056 
L 301.514893 384.377689 
" style="fill:#ececec;opacity:0.5;stroke:#ececec;stroke-linejoin:miter;"/>
   </g>
  </g>
  <g id="axis3d_1">
   <g id="line2d_1">
    <path d="M 95.447126 560.905374 
L 446.660781 675.846388 
" style="fill:none;stroke:#000000;stroke-linecap:square;stroke-width:0.8;"/>
   </g>
   <g id="text_1">
    <!-- Principal Component 1 -->
    <defs>
     <path d="M 19.671875 64.796875 
L 19.671875 37.40625 
L 32.078125 37.40625 
Q 38.96875 37.40625 42.71875 40.96875 
Q 46.484375 44.53125 46.484375 51.125 
Q 46.484375 57.671875 42.71875 61.234375 
Q 38.96875 64.796875 32.078125 64.796875 
z
M 9.8125 72.90625 
L 32.078125 72.90625 
Q 44.34375 72.90625 50.609375 67.359375 
Q 56.890625 61.8125 56.890625 51.125 
Q 56.890625 40.328125 50.609375 34.8125 
Q 44.34375 29.296875 32.078125 29.296875 
L 19.671875 29.296875 
L 19.671875 0 
L 9.8125 0 
z
" id="DejaVuSans-50"/>
     <path d="M 41.109375 46.296875 
Q 39.59375 47.171875 37.8125 47.578125 
Q 36.03125 48 33.890625 48 
Q 26.265625 48 22.1875 43.046875 
Q 18.109375 38.09375 18.109375 28.8125 
L 18.109375 0 
L 9.078125 0 
L 9.078125 54.6875 
L 18.109375 54.6875 
L 18.109375 46.1875 
Q 20.953125 51.171875 25.484375 53.578125 
Q 30.03125 56 36.53125 56 
Q 37.453125 56 38.578125 55.875 
Q 39.703125 55.765625 41.0625 55.515625 
z
" id="DejaVuSans-72"/>
     <path d="M 9.421875 54.6875 
L 18.40625 54.6875 
L 18.40625 0 
L 9.421875 0 
z
M 9.421875 75.984375 
L 18.40625 75.984375 
L 18.40625 64.59375 
L 9.421875 64.59375 
z
" id="DejaVuSans-69"/>
     <path d="M 54.890625 33.015625 
L 54.890625 0 
L 45.90625 0 
L 45.90625 32.71875 
Q 45.90625 40.484375 42.875 44.328125 
Q 39.84375 48.1875 33.796875 48.1875 
Q 26.515625 48.1875 22.3125 43.546875 
Q 18.109375 38.921875 18.109375 30.90625 
L 18.109375 0 
L 9.078125 0 
L 9.078125 54.6875 
L 18.109375 54.6875 
L 18.109375 46.1875 
Q 21.34375 51.125 25.703125 53.5625 
Q 30.078125 56 35.796875 56 
Q 45.21875 56 50.046875 50.171875 
Q 54.890625 44.34375 54.890625 33.015625 
z
" id="DejaVuSans-6e"/>
     <path d="M 48.78125 52.59375 
L 48.78125 44.1875 
Q 44.96875 46.296875 41.140625 47.34375 
Q 37.3125 48.390625 33.40625 48.390625 
Q 24.65625 48.390625 19.8125 42.84375 
Q 14.984375 37.3125 14.984375 27.296875 
Q 14.984375 17.28125 19.8125 11.734375 
Q 24.65625 6.203125 33.40625 6.203125 
Q 37.3125 6.203125 41.140625 7.25 
Q 44.96875 8.296875 48.78125 10.40625 
L 48.78125 2.09375 
Q 45.015625 0.34375 40.984375 -0.53125 
Q 36.96875 -1.421875 32.421875 -1.421875 
Q 20.0625 -1.421875 12.78125 6.34375 
Q 5.515625 14.109375 5.515625 27.296875 
Q 5.515625 40.671875 12.859375 48.328125 
Q 20.21875 56 33.015625 56 
Q 37.15625 56 41.109375 55.140625 
Q 45.0625 54.296875 48.78125 52.59375 
z
" id="DejaVuSans-63"/>
     <path d="M 18.109375 8.203125 
L 18.109375 -20.796875 
L 9.078125 -20.796875 
L 9.078125 54.6875 
L 18.109375 54.6875 
L 18.109375 46.390625 
Q 20.953125 51.265625 25.265625 53.625 
Q 29.59375 56 35.59375 56 
Q 45.5625 56 51.78125 48.09375 
Q 58.015625 40.1875 58.015625 27.296875 
Q 58.015625 14.40625 51.78125 6.484375 
Q 45.5625 -1.421875 35.59375 -1.421875 
Q 29.59375 -1.421875 25.265625 0.953125 
Q 20.953125 3.328125 18.109375 8.203125 
z
M 48.6875 27.296875 
Q 48.6875 37.203125 44.609375 42.84375 
Q 40.53125 48.484375 33.40625 48.484375 
Q 26.265625 48.484375 22.1875 42.84375 
Q 18.109375 37.203125 18.109375 27.296875 
Q 18.109375 17.390625 22.1875 11.75 
Q 26.265625 6.109375 33.40625 6.109375 
Q 40.53125 6.109375 44.609375 11.75 
Q 48.6875 17.390625 48.6875 27.296875 
z
" id="DejaVuSans-70"/>
     <path d="M 34.28125 27.484375 
Q 23.390625 27.484375 19.1875 25 
Q 14.984375 22.515625 14.984375 16.5 
Q 14.984375 11.71875 18.140625 8.90625 
Q 21.296875 6.109375 26.703125 6.109375 
Q 34.1875 6.109375 38.703125 11.40625 
Q 43.21875 16.703125 43.21875 25.484375 
L 43.21875 27.484375 
z
M 52.203125 31.203125 
L 52.203125 0 
L 43.21875 0 
L 43.21875 8.296875 
Q 40.140625 3.328125 35.546875 0.953125 
Q 30.953125 -1.421875 24.3125 -1.421875 
Q 15.921875 -1.421875 10.953125 3.296875 
Q 6 8.015625 6 15.921875 
Q 6 25.140625 12.171875 29.828125 
Q 18.359375 34.515625 30.609375 34.515625 
L 43.21875 34.515625 
L 43.21875 35.40625 
Q 43.21875 41.609375 39.140625 45 
Q 35.0625 48.390625 27.6875 48.390625 
Q 23 48.390625 18.546875 47.265625 
Q 14.109375 46.140625 10.015625 43.890625 
L 10.015625 52.203125 
Q 14.9375 54.109375 19.578125 55.046875 
Q 24.21875 56 28.609375 56 
Q 40.484375 56 46.34375 49.84375 
Q 52.203125 43.703125 52.203125 31.203125 
z
" id="DejaVuSans-61"/>
     <path d="M 9.421875 75.984375 
L 18.40625 75.984375 
L 18.40625 0 
L 9.421875 0 
z
" id="DejaVuSans-6c"/>
     <path id="DejaVuSans-20"/>
     <path d="M 64.40625 67.28125 
L 64.40625 56.890625 
Q 59.421875 61.53125 53.78125 63.8125 
Q 48.140625 66.109375 41.796875 66.109375 
Q 29.296875 66.109375 22.65625 58.46875 
Q 16.015625 50.828125 16.015625 36.375 
Q 16.015625 21.96875 22.65625 14.328125 
Q 29.296875 6.6875 41.796875 6.6875 
Q 48.140625 6.6875 53.78125 8.984375 
Q 59.421875 11.28125 64.40625 15.921875 
L 64.40625 5.609375 
Q 59.234375 2.09375 53.4375 0.328125 
Q 47.65625 -1.421875 41.21875 -1.421875 
Q 24.65625 -1.421875 15.125 8.703125 
Q 5.609375 18.84375 5.609375 36.375 
Q 5.609375 53.953125 15.125 64.078125 
Q 24.65625 74.21875 41.21875 74.21875 
Q 47.75 74.21875 53.53125 72.484375 
Q 59.328125 70.75 64.40625 67.28125 
z
" id="DejaVuSans-43"/>
     <path d="M 30.609375 48.390625 
Q 23.390625 48.390625 19.1875 42.75 
Q 14.984375 37.109375 14.984375 27.296875 
Q 14.984375 17.484375 19.15625 11.84375 
Q 23.34375 6.203125 30.609375 6.203125 
Q 37.796875 6.203125 41.984375 11.859375 
Q 46.1875 17.53125 46.1875 27.296875 
Q 46.1875 37.015625 41.984375 42.703125 
Q 37.796875 48.390625 30.609375 48.390625 
z
M 30.609375 56 
Q 42.328125 56 49.015625 48.375 
Q 55.71875 40.765625 55.71875 27.296875 
Q 55.71875 13.875 49.015625 6.21875 
Q 42.328125 -1.421875 30.609375 -1.421875 
Q 18.84375 -1.421875 12.171875 6.21875 
Q 5.515625 13.875 5.515625 27.296875 
Q 5.515625 40.765625 12.171875 48.375 
Q 18.84375 56 30.609375 56 
z
" id="DejaVuSans-6f"/>
     <path d="M 52 44.1875 
Q 55.375 50.25 60.0625 53.125 
Q 64.75 56 71.09375 56 
Q 79.640625 56 84.28125 50.015625 
Q 88.921875 44.046875 88.921875 33.015625 
L 88.921875 0 
L 79.890625 0 
L 79.890625 32.71875 
Q 79.890625 40.578125 77.09375 44.375 
Q 74.3125 48.1875 68.609375 48.1875 
Q 61.625 48.1875 57.5625 43.546875 
Q 53.515625 38.921875 53.515625 30.90625 
L 53.515625 0 
L 44.484375 0 
L 44.484375 32.71875 
Q 44.484375 40.625 41.703125 44.40625 
Q 38.921875 48.1875 33.109375 48.1875 
Q 26.21875 48.1875 22.15625 43.53125 
Q 18.109375 38.875 18.109375 30.90625 
L 18.109375 0 
L 9.078125 0 
L 9.078125 54.6875 
L 18.109375 54.6875 
L 18.109375 46.1875 
Q 21.1875 51.21875 25.484375 53.609375 
Q 29.78125 56 35.6875 56 
Q 41.65625 56 45.828125 52.96875 
Q 50 49.953125 52 44.1875 
z
" id="DejaVuSans-6d"/>
     <path d="M 56.203125 29.59375 
L 56.203125 25.203125 
L 14.890625 25.203125 
Q 15.484375 15.921875 20.484375 11.0625 
Q 25.484375 6.203125 34.421875 6.203125 
Q 39.59375 6.203125 44.453125 7.46875 
Q 49.3125 8.734375 54.109375 11.28125 
L 54.109375 2.78125 
Q 49.265625 0.734375 44.1875 -0.34375 
Q 39.109375 -1.421875 33.890625 -1.421875 
Q 20.796875 -1.421875 13.15625 6.1875 
Q 5.515625 13.8125 5.515625 26.8125 
Q 5.515625 40.234375 12.765625 48.109375 
Q 20.015625 56 32.328125 56 
Q 43.359375 56 49.78125 48.890625 
Q 56.203125 41.796875 56.203125 29.59375 
z
M 47.21875 32.234375 
Q 47.125 39.59375 43.09375 43.984375 
Q 39.0625 48.390625 32.421875 48.390625 
Q 24.90625 48.390625 20.390625 44.140625 
Q 15.875 39.890625 15.1875 32.171875 
z
" id="DejaVuSans-65"/>
     <path d="M 18.3125 70.21875 
L 18.3125 54.6875 
L 36.8125 54.6875 
L 36.8125 47.703125 
L 18.3125 47.703125 
L 18.3125 18.015625 
Q 18.3125 11.328125 20.140625 9.421875 
Q 21.96875 7.515625 27.59375 7.515625 
L 36.8125 7.515625 
L 36.8125 0 
L 27.59375 0 
Q 17.1875 0 13.234375 3.875 
Q 9.28125 7.765625 9.28125 18.015625 
L 9.28125 47.703125 
L 2.6875 47.703125 
L 2.6875 54.6875 
L 9.28125 54.6875 
L 9.28125 70.21875 
z
" id="DejaVuSans-74"/>
     <path d="M 12.40625 8.296875 
L 28.515625 8.296875 
L 28.515625 63.921875 
L 10.984375 60.40625 
L 10.984375 69.390625 
L 28.421875 72.90625 
L 38.28125 72.90625 
L 38.28125 8.296875 
L 54.390625 8.296875 
L 54.390625 0 
L 12.40625 0 
z
" id="DejaVuSans-31"/>
    </defs>
    <g transform="translate(170.909811 630.610104)rotate(-341.878381)scale(0.15 -0.15)">
     <use xlink:href="#DejaVuSans-50"/>
     <use x="60.287109" xlink:href="#DejaVuSans-72"/>
     <use x="101.400391" xlink:href="#DejaVuSans-69"/>
     <use x="129.183594" xlink:href="#DejaVuSans-6e"/>
     <use x="192.5625" xlink:href="#DejaVuSans-63"/>
     <use x="247.542969" xlink:href="#DejaVuSans-69"/>
     <use x="275.326172" xlink:href="#DejaVuSans-70"/>
     <use x="338.802734" xlink:href="#DejaVuSans-61"/>
     <use x="400.082031" xlink:href="#DejaVuSans-6c"/>
     <use x="427.865234" xlink:href="#DejaVuSans-20"/>
     <use x="459.652344" xlink:href="#DejaVuSans-43"/>
     <use x="529.476562" xlink:href="#DejaVuSans-6f"/>
     <use x="590.658203" xlink:href="#DejaVuSans-6d"/>
     <use x="688.070312" xlink:href="#DejaVuSans-70"/>
     <use x="751.546875" xlink:href="#DejaVuSans-6f"/>
     <use x="812.728516" xlink:href="#DejaVuSans-6e"/>
     <use x="876.107422" xlink:href="#DejaVuSans-65"/>
     <use x="937.630859" xlink:href="#DejaVuSans-6e"/>
     <use x="1001.009766" xlink:href="#DejaVuSans-74"/>
     <use x="1040.21875" xlink:href="#DejaVuSans-20"/>
     <use x="1072.005859" xlink:href="#DejaVuSans-31"/>
    </g>
   </g>
   <g id="Line3DCollection_1">
    <path d="M 102.163559 563.103448 
L 307.919549 386.271212 
L 304.808145 48.756995 
" style="fill:none;stroke:#b0b0b0;stroke-width:0.8;"/>
    <path d="M 148.544746 578.28253 
L 352.125266 399.340542 
L 351.233762 60.458164 
" style="fill:none;stroke:#b0b0b0;stroke-width:0.8;"/>
    <path d="M 195.501907 593.650109 
L 396.840023 412.560369 
L 398.221218 72.300941 
" style="fill:none;stroke:#b0b0b0;stroke-width:0.8;"/>
    <path d="M 243.045838 609.209719 
L 442.072664 425.933307 
L 445.780774 84.28791 
" style="fill:none;stroke:#b0b0b0;stroke-width:0.8;"/>
    <path d="M 291.187605 624.964983 
L 487.832238 439.462032 
L 493.922943 96.421722 
" style="fill:none;stroke:#b0b0b0;stroke-width:0.8;"/>
    <path d="M 339.938557 640.919612 
L 534.128007 453.149282 
L 542.658496 108.705091 
" style="fill:none;stroke:#b0b0b0;stroke-width:0.8;"/>
    <path d="M 389.31033 657.077417 
L 580.96945 466.997859 
L 591.998472 121.140799 
" style="fill:none;stroke:#b0b0b0;stroke-width:0.8;"/>
    <path d="M 439.314859 673.442303 
L 628.366272 481.010633 
L 641.954187 133.731699 
" style="fill:none;stroke:#b0b0b0;stroke-width:0.8;"/>
   </g>
   <g id="xtick_1">
    <g id="line2d_2">
     <path d="M 103.936006 561.58016 
L 98.612067 566.155696 
" style="fill:none;stroke:#000000;stroke-linecap:square;stroke-width:0.8;"/>
    </g>
    <g id="text_2">
     <!-- −4 -->
     <defs>
      <path d="M 10.59375 35.5 
L 73.1875 35.5 
L 73.1875 27.203125 
L 10.59375 27.203125 
z
" id="DejaVuSans-2212"/>
      <path d="M 37.796875 64.3125 
L 12.890625 25.390625 
L 37.796875 25.390625 
z
M 35.203125 72.90625 
L 47.609375 72.90625 
L 47.609375 25.390625 
L 58.015625 25.390625 
L 58.015625 17.1875 
L 47.609375 17.1875 
L 47.609375 0 
L 37.796875 0 
L 37.796875 17.1875 
L 4.890625 17.1875 
L 4.890625 26.703125 
z
" id="DejaVuSans-34"/>
     </defs>
     <g transform="translate(88.41253 586.895247)scale(0.1 -0.1)">
      <use xlink:href="#DejaVuSans-2212"/>
      <use x="83.789062" xlink:href="#DejaVuSans-34"/>
     </g>
    </g>
   </g>
   <g id="xtick_2">
    <g id="line2d_3">
     <path d="M 150.299224 576.740389 
L 145.029219 581.372587 
" style="fill:none;stroke:#000000;stroke-linecap:square;stroke-width:0.8;"/>
    </g>
    <g id="text_3">
     <!-- −3 -->
     <defs>
      <path d="M 40.578125 39.3125 
Q 47.65625 37.796875 51.625 33 
Q 55.609375 28.21875 55.609375 21.1875 
Q 55.609375 10.40625 48.1875 4.484375 
Q 40.765625 -1.421875 27.09375 -1.421875 
Q 22.515625 -1.421875 17.65625 -0.515625 
Q 12.796875 0.390625 7.625 2.203125 
L 7.625 11.71875 
Q 11.71875 9.328125 16.59375 8.109375 
Q 21.484375 6.890625 26.8125 6.890625 
Q 36.078125 6.890625 40.9375 10.546875 
Q 45.796875 14.203125 45.796875 21.1875 
Q 45.796875 27.640625 41.28125 31.265625 
Q 36.765625 34.90625 28.71875 34.90625 
L 20.21875 34.90625 
L 20.21875 43.015625 
L 29.109375 43.015625 
Q 36.375 43.015625 40.234375 45.921875 
Q 44.09375 48.828125 44.09375 54.296875 
Q 44.09375 59.90625 40.109375 62.90625 
Q 36.140625 65.921875 28.71875 65.921875 
Q 24.65625 65.921875 20.015625 65.03125 
Q 15.375 64.15625 9.8125 62.3125 
L 9.8125 71.09375 
Q 15.4375 72.65625 20.34375 73.4375 
Q 25.25 74.21875 29.59375 74.21875 
Q 40.828125 74.21875 47.359375 69.109375 
Q 53.90625 64.015625 53.90625 55.328125 
Q 53.90625 49.265625 50.4375 45.09375 
Q 46.96875 40.921875 40.578125 39.3125 
z
" id="DejaVuSans-33"/>
     </defs>
     <g transform="translate(134.791296 602.186437)scale(0.1 -0.1)">
      <use xlink:href="#DejaVuSans-2212"/>
      <use x="83.789062" xlink:href="#DejaVuSans-33"/>
     </g>
    </g>
   </g>
   <g id="xtick_3">
    <g id="line2d_4">
     <path d="M 197.237832 592.088765 
L 192.023515 596.778683 
" style="fill:none;stroke:#000000;stroke-linecap:square;stroke-width:0.8;"/>
    </g>
    <g id="text_4">
     <!-- −2 -->
     <defs>
      <path d="M 19.1875 8.296875 
L 53.609375 8.296875 
L 53.609375 0 
L 7.328125 0 
L 7.328125 8.296875 
Q 12.9375 14.109375 22.625 23.890625 
Q 32.328125 33.6875 34.8125 36.53125 
Q 39.546875 41.84375 41.421875 45.53125 
Q 43.3125 49.21875 43.3125 52.78125 
Q 43.3125 58.59375 39.234375 62.25 
Q 35.15625 65.921875 28.609375 65.921875 
Q 23.96875 65.921875 18.8125 64.3125 
Q 13.671875 62.703125 7.8125 59.421875 
L 7.8125 69.390625 
Q 13.765625 71.78125 18.9375 73 
Q 24.125 74.21875 28.421875 74.21875 
Q 39.75 74.21875 46.484375 68.546875 
Q 53.21875 62.890625 53.21875 53.421875 
Q 53.21875 48.921875 51.53125 44.890625 
Q 49.859375 40.875 45.40625 35.40625 
Q 44.1875 33.984375 37.640625 27.21875 
Q 31.109375 20.453125 19.1875 8.296875 
z
" id="DejaVuSans-32"/>
     </defs>
     <g transform="translate(181.746468 617.667669)scale(0.1 -0.1)">
      <use xlink:href="#DejaVuSans-2212"/>
      <use x="83.789062" xlink:href="#DejaVuSans-32"/>
     </g>
    </g>
   </g>
   <g id="xtick_4">
    <g id="line2d_5">
     <path d="M 244.762608 607.62881 
L 239.605787 612.377534 
" style="fill:none;stroke:#000000;stroke-linecap:square;stroke-width:0.8;"/>
    </g>
    <g id="text_5">
     <!-- −1 -->
     <g transform="translate(229.288858 633.342508)scale(0.1 -0.1)">
      <use xlink:href="#DejaVuSans-2212"/>
      <use x="83.789062" xlink:href="#DejaVuSans-31"/>
     </g>
    </g>
   </g>
   <g id="xtick_5">
    <g id="line2d_6">
     <path d="M 292.8846 623.364138 
L 287.787139 628.172782 
" style="fill:none;stroke:#000000;stroke-linecap:square;stroke-width:0.8;"/>
    </g>
    <g id="text_6">
     <!-- 0 -->
     <defs>
      <path d="M 31.78125 66.40625 
Q 24.171875 66.40625 20.328125 58.90625 
Q 16.5 51.421875 16.5 36.375 
Q 16.5 21.390625 20.328125 13.890625 
Q 24.171875 6.390625 31.78125 6.390625 
Q 39.453125 6.390625 43.28125 13.890625 
Q 47.125 21.390625 47.125 36.375 
Q 47.125 51.421875 43.28125 58.90625 
Q 39.453125 66.40625 31.78125 66.40625 
z
M 31.78125 74.21875 
Q 44.046875 74.21875 50.515625 64.515625 
Q 56.984375 54.828125 56.984375 36.375 
Q 56.984375 17.96875 50.515625 8.265625 
Q 44.046875 -1.421875 31.78125 -1.421875 
Q 19.53125 -1.421875 13.0625 8.265625 
Q 6.59375 17.96875 6.59375 36.375 
Q 6.59375 54.828125 13.0625 64.515625 
Q 19.53125 74.21875 31.78125 74.21875 
z
" id="DejaVuSans-30"/>
     </defs>
     <g transform="translate(281.619396 649.214609)scale(0.1 -0.1)">
      <use xlink:href="#DejaVuSans-30"/>
     </g>
    </g>
   </g>
   <g id="xtick_6">
    <g id="line2d_7">
     <path d="M 341.615138 639.298453 
L 336.578958 644.168157 
" style="fill:none;stroke:#000000;stroke-linecap:square;stroke-width:0.8;"/>
    </g>
    <g id="text_7">
     <!-- 1 -->
     <g transform="translate(330.369758 665.28772)scale(0.1 -0.1)">
      <use xlink:href="#DejaVuSans-31"/>
     </g>
    </g>
   </g>
   <g id="xtick_7">
    <g id="line2d_8">
     <path d="M 390.965838 655.435554 
L 385.992918 660.367489 
" style="fill:none;stroke:#000000;stroke-linecap:square;stroke-width:0.8;"/>
    </g>
    <g id="text_8">
     <!-- 2 -->
     <g transform="translate(379.741445 681.565683)scale(0.1 -0.1)">
      <use xlink:href="#DejaVuSans-32"/>
     </g>
    </g>
   </g>
   <g id="xtick_8">
    <g id="line2d_9">
     <path d="M 440.948614 671.779337 
L 436.040996 676.774704 
" style="fill:none;stroke:#000000;stroke-linecap:square;stroke-width:0.8;"/>
    </g>
    <g id="text_9">
     <!-- 3 -->
     <g transform="translate(429.74641 698.052439)scale(0.1 -0.1)">
      <use xlink:href="#DejaVuSans-33"/>
     </g>
    </g>
   </g>
  </g>
  <g id="axis3d_2">
   <g id="line2d_10">
    <path d="M 635.325302 483.068056 
L 446.660781 675.846388 
" style="fill:none;stroke:#000000;stroke-linecap:square;stroke-width:0.8;"/>
   </g>
   <g id="text_10">
    <!-- Principal Component 3 -->
    <g transform="translate(511.283464 669.411328)rotate(-45.617904)scale(0.15 -0.15)">
     <use xlink:href="#DejaVuSans-50"/>
     <use x="60.287109" xlink:href="#DejaVuSans-72"/>
     <use x="101.400391" xlink:href="#DejaVuSans-69"/>
     <use x="129.183594" xlink:href="#DejaVuSans-6e"/>
     <use x="192.5625" xlink:href="#DejaVuSans-63"/>
     <use x="247.542969" xlink:href="#DejaVuSans-69"/>
     <use x="275.326172" xlink:href="#DejaVuSans-70"/>
     <use x="338.802734" xlink:href="#DejaVuSans-61"/>
     <use x="400.082031" xlink:href="#DejaVuSans-6c"/>
     <use x="427.865234" xlink:href="#DejaVuSans-20"/>
     <use x="459.652344" xlink:href="#DejaVuSans-43"/>
     <use x="529.476562" xlink:href="#DejaVuSans-6f"/>
     <use x="590.658203" xlink:href="#DejaVuSans-6d"/>
     <use x="688.070312" xlink:href="#DejaVuSans-70"/>
     <use x="751.546875" xlink:href="#DejaVuSans-6f"/>
     <use x="812.728516" xlink:href="#DejaVuSans-6e"/>
     <use x="876.107422" xlink:href="#DejaVuSans-65"/>
     <use x="937.630859" xlink:href="#DejaVuSans-6e"/>
     <use x="1001.009766" xlink:href="#DejaVuSans-74"/>
     <use x="1040.21875" xlink:href="#DejaVuSans-20"/>
     <use x="1072.005859" xlink:href="#DejaVuSans-33"/>
    </g>
   </g>
   <g id="Line3DCollection_2">
    <path d="M 107.846247 185.751892 
L 121.235775 538.813562 
L 470.340837 651.649991 
" style="fill:none;stroke:#b0b0b0;stroke-width:0.8;"/>
    <path d="M 132.462028 167.806178 
L 144.493767 518.889633 
L 491.680092 629.845436 
" style="fill:none;stroke:#b0b0b0;stroke-width:0.8;"/>
    <path d="M 156.657179 150.167117 
L 167.374321 499.289036 
L 512.657275 608.410848 
" style="fill:none;stroke:#b0b0b0;stroke-width:0.8;"/>
    <path d="M 180.442391 132.826916 
L 189.886551 480.003963 
L 533.281523 587.336889 
" style="fill:none;stroke:#b0b0b0;stroke-width:0.8;"/>
    <path d="M 203.827994 115.778042 
L 212.039279 461.026858 
L 553.56167 566.614536 
" style="fill:none;stroke:#b0b0b0;stroke-width:0.8;"/>
    <path d="M 226.823976 99.013215 
L 233.841049 442.3504 
L 573.506256 546.23506 
" style="fill:none;stroke:#b0b0b0;stroke-width:0.8;"/>
    <path d="M 249.439992 82.525396 
L 255.300135 423.967501 
L 593.123541 526.190022 
" style="fill:none;stroke:#b0b0b0;stroke-width:0.8;"/>
    <path d="M 271.685383 66.307774 
L 276.424554 405.871295 
L 612.421516 506.471257 
" style="fill:none;stroke:#b0b0b0;stroke-width:0.8;"/>
    <path d="M 293.569185 50.353763 
L 297.222074 388.055126 
L 631.407914 487.070862 
" style="fill:none;stroke:#b0b0b0;stroke-width:0.8;"/>
   </g>
   <g id="xtick_9">
    <g id="line2d_11">
     <path d="M 467.419689 650.705828 
L 476.189635 653.540417 
" style="fill:none;stroke:#000000;stroke-linecap:square;stroke-width:0.8;"/>
    </g>
    <g id="text_11">
     <!-- −3 -->
     <g transform="translate(474.004145 673.430452)scale(0.1 -0.1)">
      <use xlink:href="#DejaVuSans-2212"/>
      <use x="83.789062" xlink:href="#DejaVuSans-33"/>
     </g>
    </g>
   </g>
   <g id="xtick_10">
    <g id="line2d_12">
     <path d="M 488.77609 628.917358 
L 497.494503 631.703639 
" style="fill:none;stroke:#000000;stroke-linecap:square;stroke-width:0.8;"/>
    </g>
    <g id="text_12">
     <!-- −2 -->
     <g transform="translate(495.244358 651.509328)scale(0.1 -0.1)">
      <use xlink:href="#DejaVuSans-2212"/>
      <use x="83.789062" xlink:href="#DejaVuSans-32"/>
     </g>
    </g>
   </g>
   <g id="xtick_11">
    <g id="line2d_13">
     <path d="M 509.770261 607.498447 
L 518.437619 610.237644 
" style="fill:none;stroke:#000000;stroke-linecap:square;stroke-width:0.8;"/>
    </g>
    <g id="text_13">
     <!-- −1 -->
     <g transform="translate(516.124257 629.960069)scale(0.1 -0.1)">
      <use xlink:href="#DejaVuSans-2212"/>
      <use x="83.789062" xlink:href="#DejaVuSans-31"/>
     </g>
    </g>
   </g>
   <g id="xtick_12">
    <g id="line2d_14">
     <path d="M 530.411339 586.439773 
L 539.028119 589.133069 
" style="fill:none;stroke:#000000;stroke-linecap:square;stroke-width:0.8;"/>
    </g>
    <g id="text_14">
     <!-- 0 -->
     <g transform="translate(540.842777 608.773291)scale(0.1 -0.1)">
      <use xlink:href="#DejaVuSans-30"/>
     </g>
    </g>
   </g>
   <g id="xtick_13">
    <g id="line2d_15">
     <path d="M 550.708157 565.732322 
L 559.274835 568.380861 
" style="fill:none;stroke:#000000;stroke-linecap:square;stroke-width:0.8;"/>
    </g>
    <g id="text_15">
     <!-- 1 -->
     <g transform="translate(561.02902 587.939925)scale(0.1 -0.1)">
      <use xlink:href="#DejaVuSans-31"/>
     </g>
    </g>
   </g>
   <g id="xtick_14">
    <g id="line2d_16">
     <path d="M 570.669259 545.36738 
L 579.186304 547.97227 
" style="fill:none;stroke:#000000;stroke-linecap:square;stroke-width:0.8;"/>
    </g>
    <g id="text_16">
     <!-- 2 -->
     <g transform="translate(580.881326 567.451201)scale(0.1 -0.1)">
      <use xlink:href="#DejaVuSans-32"/>
     </g>
    </g>
   </g>
   <g id="xtick_15">
    <g id="line2d_17">
     <path d="M 590.302903 525.336521 
L 598.770785 527.898831 
" style="fill:none;stroke:#000000;stroke-linecap:square;stroke-width:0.8;"/>
    </g>
    <g id="text_17">
     <!-- 3 -->
     <g transform="translate(600.407913 547.298638)scale(0.1 -0.1)">
      <use xlink:href="#DejaVuSans-33"/>
     </g>
    </g>
   </g>
   <g id="xtick_16">
    <g id="line2d_18">
     <path d="M 609.617083 505.631589 
L 618.036268 508.152355 
" style="fill:none;stroke:#000000;stroke-linecap:square;stroke-width:0.8;"/>
    </g>
    <g id="text_18">
     <!-- 4 -->
     <g transform="translate(619.616732 527.474029)scale(0.1 -0.1)">
      <use xlink:href="#DejaVuSans-34"/>
     </g>
    </g>
   </g>
   <g id="xtick_17">
    <g id="line2d_19">
     <path d="M 628.619533 486.244694 
L 636.990482 488.724918 
" style="fill:none;stroke:#000000;stroke-linecap:square;stroke-width:0.8;"/>
    </g>
    <g id="text_19">
     <!-- 5 -->
     <defs>
      <path d="M 10.796875 72.90625 
L 49.515625 72.90625 
L 49.515625 64.59375 
L 19.828125 64.59375 
L 19.828125 46.734375 
Q 21.96875 47.46875 24.109375 47.828125 
Q 26.265625 48.1875 28.421875 48.1875 
Q 40.625 48.1875 47.75 41.5 
Q 54.890625 34.8125 54.890625 23.390625 
Q 54.890625 11.625 47.5625 5.09375 
Q 40.234375 -1.421875 26.90625 -1.421875 
Q 22.3125 -1.421875 17.546875 -0.640625 
Q 12.796875 0.140625 7.71875 1.703125 
L 7.71875 11.625 
Q 12.109375 9.234375 16.796875 8.0625 
Q 21.484375 6.890625 26.703125 6.890625 
Q 35.15625 6.890625 40.078125 11.328125 
Q 45.015625 15.765625 45.015625 23.390625 
Q 45.015625 31 40.078125 35.4375 
Q 35.15625 39.890625 26.703125 39.890625 
Q 22.75 39.890625 18.8125 39.015625 
Q 14.890625 38.140625 10.796875 36.28125 
z
" id="DejaVuSans-35"/>
     </defs>
     <g transform="translate(638.515478 507.969434)scale(0.1 -0.1)">
      <use xlink:href="#DejaVuSans-35"/>
     </g>
    </g>
   </g>
  </g>
  <g id="axis3d_3">
   <g id="line2d_20">
    <path d="M 635.325302 483.068056 
L 649.291529 135.581012 
" style="fill:none;stroke:#000000;stroke-linecap:square;stroke-width:0.8;"/>
   </g>
   <g id="Line3DCollection_3">
    <path d="M 637.055034 440.031414 
L 301.089172 342.521013 
L 93.601999 516.975251 
" style="fill:none;stroke:#b0b0b0;stroke-width:0.8;"/>
    <path d="M 639.191592 386.872728 
L 300.56364 290.851009 
L 91.32182 462.687093 
" style="fill:none;stroke:#b0b0b0;stroke-width:0.8;"/>
    <path d="M 641.362578 332.85747 
L 300.029999 238.383701 
L 89.003669 407.494878 
" style="fill:none;stroke:#b0b0b0;stroke-width:0.8;"/>
    <path d="M 643.56883 277.964769 
L 299.48806 185.10049 
L 86.64659 351.375836 
" style="fill:none;stroke:#b0b0b0;stroke-width:0.8;"/>
    <path d="M 645.811214 222.173068 
L 298.937627 130.982194 
L 84.249595 294.306423 
" style="fill:none;stroke:#b0b0b0;stroke-width:0.8;"/>
    <path d="M 648.090627 165.460101 
L 298.378499 76.009028 
L 81.81166 236.262289 
" style="fill:none;stroke:#b0b0b0;stroke-width:0.8;"/>
   </g>
   <g id="xtick_18">
    <g id="line2d_21">
     <path d="M 634.251243 439.217645 
L 642.66848 441.660655 
" style="fill:none;stroke:#000000;stroke-linecap:square;stroke-width:0.8;"/>
    </g>
    <g id="text_20">
     <!-- −2 -->
     <g transform="translate(645.802799 445.347691)scale(0.1 -0.1)">
      <use xlink:href="#DejaVuSans-2212"/>
      <use x="83.789062" xlink:href="#DejaVuSans-32"/>
     </g>
    </g>
   </g>
   <g id="xtick_19">
    <g id="line2d_22">
     <path d="M 636.364651 386.071117 
L 644.851436 388.47764 
" style="fill:none;stroke:#000000;stroke-linecap:square;stroke-width:0.8;"/>
    </g>
    <g id="text_21">
     <!-- −1 -->
     <g transform="translate(648.065954 392.223115)scale(0.1 -0.1)">
      <use xlink:href="#DejaVuSans-2212"/>
      <use x="83.789062" xlink:href="#DejaVuSans-31"/>
     </g>
    </g>
   </g>
   <g id="xtick_20">
    <g id="line2d_23">
     <path d="M 638.5121 332.068517 
L 647.069592 334.437053 
" style="fill:none;stroke:#000000;stroke-linecap:square;stroke-width:0.8;"/>
    </g>
    <g id="text_22">
     <!-- 0 -->
     <g transform="translate(654.555385 338.243366)scale(0.1 -0.1)">
      <use xlink:href="#DejaVuSans-30"/>
     </g>
    </g>
   </g>
   <g id="xtick_21">
    <g id="line2d_24">
     <path d="M 640.694421 277.188992 
L 649.323806 279.517984 
" style="fill:none;stroke:#000000;stroke-linecap:square;stroke-width:0.8;"/>
    </g>
    <g id="text_23">
     <!-- 1 -->
     <g transform="translate(656.89229 283.387627)scale(0.1 -0.1)">
      <use xlink:href="#DejaVuSans-31"/>
     </g>
    </g>
   </g>
   <g id="xtick_22">
    <g id="line2d_25">
     <path d="M 642.91247 221.411006 
L 651.614965 223.698837 
" style="fill:none;stroke:#000000;stroke-linecap:square;stroke-width:0.8;"/>
    </g>
    <g id="text_24">
     <!-- 2 -->
     <g transform="translate(659.267428 227.6344)scale(0.1 -0.1)">
      <use xlink:href="#DejaVuSans-32"/>
     </g>
    </g>
   </g>
   <g id="xtick_23">
    <g id="line2d_26">
     <path d="M 645.167131 164.712315 
L 653.943985 166.957301 
" style="fill:none;stroke:#000000;stroke-linecap:square;stroke-width:0.8;"/>
    </g>
    <g id="text_25">
     <!-- 3 -->
     <g transform="translate(661.681747 170.961479)scale(0.1 -0.1)">
      <use xlink:href="#DejaVuSans-33"/>
     </g>
    </g>
   </g>
  </g>
  <g id="axes_1">
   <g id="Path3DCollection_1">
    <defs>
     <path d="M 0 3.535534 
C 0.937635 3.535534 1.836992 3.163008 2.5 2.5 
C 3.163008 1.836992 3.535534 0.937635 3.535534 0 
C 3.535534 -0.937635 3.163008 -1.836992 2.5 -2.5 
C 1.836992 -3.163008 0.937635 -3.535534 0 -3.535534 
C -0.937635 -3.535534 -1.836992 -3.163008 -2.5 -2.5 
C -3.163008 -1.836992 -3.535534 -0.937635 -3.535534 0 
C -3.535534 0.937635 -3.163008 1.836992 -2.5 2.5 
C -1.836992 3.163008 -0.937635 3.535534 0 3.535534 
z
" id="C0_0_a0bc0aec1d"/>
    </defs>
    <g clip-path="url(#p3c007e028f)">
     <use style="fill:#0000ff;fill-opacity:0.75577;stroke:#0000ff;stroke-opacity:0.75577;" x="366.553033" xlink:href="#C0_0_a0bc0aec1d" y="390.25728"/>
    </g>
    <g clip-path="url(#p3c007e028f)">
     <use style="fill:#0000ff;fill-opacity:0.703922;stroke:#0000ff;stroke-opacity:0.703922;" x="381.240769" xlink:href="#C0_0_a0bc0aec1d" y="387.767922"/>
    </g>
    <g clip-path="url(#p3c007e028f)">
     <use style="fill:#0000ff;fill-opacity:0.862734;stroke:#0000ff;stroke-opacity:0.862734;" x="424.985533" xlink:href="#C0_0_a0bc0aec1d" y="419.428737"/>
    </g>
    <g clip-path="url(#p3c007e028f)">
     <use style="fill:#0000ff;fill-opacity:0.64779;stroke:#0000ff;stroke-opacity:0.64779;" x="404.874853" xlink:href="#C0_0_a0bc0aec1d" y="424.419555"/>
    </g>
    <g clip-path="url(#p3c007e028f)">
     <use style="fill:#0000ff;fill-opacity:0.665784;stroke:#0000ff;stroke-opacity:0.665784;" x="415.882643" xlink:href="#C0_0_a0bc0aec1d" y="392.874023"/>
    </g>
    <g clip-path="url(#p3c007e028f)">
     <use style="fill:#0000ff;fill-opacity:0.727019;stroke:#0000ff;stroke-opacity:0.727019;" x="367.136223" xlink:href="#C0_0_a0bc0aec1d" y="415.322425"/>
    </g>
    <g clip-path="url(#p3c007e028f)">
     <use style="fill:#0000ff;fill-opacity:0.637279;stroke:#0000ff;stroke-opacity:0.637279;" x="431.586262" xlink:href="#C0_0_a0bc0aec1d" y="437.365856"/>
    </g>
    <g clip-path="url(#p3c007e028f)">
     <use style="fill:#0000ff;fill-opacity:0.529305;stroke:#0000ff;stroke-opacity:0.529305;" x="361.577551" xlink:href="#C0_0_a0bc0aec1d" y="392.686481"/>
    </g>
    <g clip-path="url(#p3c007e028f)">
     <use style="fill:#0000ff;fill-opacity:0.700112;stroke:#0000ff;stroke-opacity:0.700112;" x="419.718098" xlink:href="#C0_0_a0bc0aec1d" y="427.024804"/>
    </g>
    <g clip-path="url(#p3c007e028f)">
     <use style="fill:#0000ff;fill-opacity:0.832243;stroke:#0000ff;stroke-opacity:0.832243;" x="377.640514" xlink:href="#C0_0_a0bc0aec1d" y="398.84257"/>
    </g>
    <g clip-path="url(#p3c007e028f)">
     <use style="fill:#0000ff;fill-opacity:0.67494;stroke:#0000ff;stroke-opacity:0.67494;" x="400.271691" xlink:href="#C0_0_a0bc0aec1d" y="349.24132"/>
    </g>
    <g clip-path="url(#p3c007e028f)">
     <use style="fill:#0000ff;fill-opacity:0.560384;stroke:#0000ff;stroke-opacity:0.560384;" x="386.66882" xlink:href="#C0_0_a0bc0aec1d" y="316.507181"/>
    </g>
    <g clip-path="url(#p3c007e028f)">
     <use style="fill:#0000ff;fill-opacity:0.93062;stroke:#0000ff;stroke-opacity:0.93062;" x="404.854216" xlink:href="#C0_0_a0bc0aec1d" y="330.2794"/>
    </g>
    <g clip-path="url(#p3c007e028f)">
     <use style="fill:#0000ff;fill-opacity:0.761232;stroke:#0000ff;stroke-opacity:0.761232;" x="288.89462" xlink:href="#C0_0_a0bc0aec1d" y="364.340414"/>
    </g>
    <g clip-path="url(#p3c007e028f)">
     <use style="fill:#0000ff;fill-opacity:0.770501;stroke:#0000ff;stroke-opacity:0.770501;" x="390.308271" xlink:href="#C0_0_a0bc0aec1d" y="352.690102"/>
    </g>
    <g clip-path="url(#p3c007e028f)">
     <use style="fill:#0000ff;fill-opacity:0.839759;stroke:#0000ff;stroke-opacity:0.839759;" x="427.806554" xlink:href="#C0_0_a0bc0aec1d" y="390.551909"/>
    </g>
    <g clip-path="url(#p3c007e028f)">
     <use style="fill:#0000ff;fill-opacity:0.803903;stroke:#0000ff;stroke-opacity:0.803903;" x="389.441927" xlink:href="#C0_0_a0bc0aec1d" y="316.292115"/>
    </g>
    <g clip-path="url(#p3c007e028f)">
     <use style="fill:#0000ff;fill-opacity:0.738162;stroke:#0000ff;stroke-opacity:0.738162;" x="308.380114" xlink:href="#C0_0_a0bc0aec1d" y="316.994556"/>
    </g>
    <g clip-path="url(#p3c007e028f)">
     <use style="fill:#0000ff;fill-opacity:0.95669;stroke:#0000ff;stroke-opacity:0.95669;" x="403.701464" xlink:href="#C0_0_a0bc0aec1d" y="354.678178"/>
    </g>
    <g clip-path="url(#p3c007e028f)">
     <use style="fill:#0000ff;fill-opacity:0.68727;stroke:#0000ff;stroke-opacity:0.68727;" x="348.891781" xlink:href="#C0_0_a0bc0aec1d" y="292.404397"/>
    </g>
    <g clip-path="url(#p3c007e028f)">
     <use style="fill:#0000ff;fill-opacity:0.782268;stroke:#0000ff;stroke-opacity:0.782268;" x="333.107796" xlink:href="#C0_0_a0bc0aec1d" y="320.142767"/>
    </g>
    <g clip-path="url(#p3c007e028f)">
     <use style="fill:#0000ff;fill-opacity:0.566716;stroke:#0000ff;stroke-opacity:0.566716;" x="328.864481" xlink:href="#C0_0_a0bc0aec1d" y="336.612223"/>
    </g>
    <g clip-path="url(#p3c007e028f)">
     <use style="fill:#0000ff;fill-opacity:0.907275;stroke:#0000ff;stroke-opacity:0.907275;" x="340.666227" xlink:href="#C0_0_a0bc0aec1d" y="370.839332"/>
    </g>
    <g clip-path="url(#p3c007e028f)">
     <use style="fill:#0000ff;stroke:#0000ff;" x="403.067749" xlink:href="#C0_0_a0bc0aec1d" y="211.806612"/>
    </g>
    <g clip-path="url(#p3c007e028f)">
     <use style="fill:#0000ff;fill-opacity:0.581331;stroke:#0000ff;stroke-opacity:0.581331;" x="278.470597" xlink:href="#C0_0_a0bc0aec1d" y="236.087769"/>
    </g>
    <g clip-path="url(#p3c007e028f)">
     <use style="fill:#0000ff;fill-opacity:0.3;stroke:#0000ff;stroke-opacity:0.3;" x="318.000765" xlink:href="#C0_0_a0bc0aec1d" y="264.366395"/>
    </g>
    <g clip-path="url(#p3c007e028f)">
     <use style="fill:#0000ff;fill-opacity:0.675281;stroke:#0000ff;stroke-opacity:0.675281;" x="349.644453" xlink:href="#C0_0_a0bc0aec1d" y="358.146385"/>
    </g>
    <g clip-path="url(#p3c007e028f)">
     <use style="fill:#0000ff;fill-opacity:0.649787;stroke:#0000ff;stroke-opacity:0.649787;" x="406.368449" xlink:href="#C0_0_a0bc0aec1d" y="418.80531"/>
    </g>
    <g clip-path="url(#p3c007e028f)">
     <use style="fill:#0000ff;fill-opacity:0.643503;stroke:#0000ff;stroke-opacity:0.643503;" x="340.575258" xlink:href="#C0_0_a0bc0aec1d" y="418.322834"/>
    </g>
    <g clip-path="url(#p3c007e028f)">
     <use style="fill:#0000ff;fill-opacity:0.693087;stroke:#0000ff;stroke-opacity:0.693087;" x="406.977856" xlink:href="#C0_0_a0bc0aec1d" y="414.77375"/>
    </g>
   </g>
   <g id="Path3DCollection_2">
    <defs>
     <path d="M 0 3.535534 
C 0.937635 3.535534 1.836992 3.163008 2.5 2.5 
C 3.163008 1.836992 3.535534 0.937635 3.535534 0 
C 3.535534 -0.937635 3.163008 -1.836992 2.5 -2.5 
C 1.836992 -3.163008 0.937635 -3.535534 0 -3.535534 
C -0.937635 -3.535534 -1.836992 -3.163008 -2.5 -2.5 
C -3.163008 -1.836992 -3.535534 -0.937635 -3.535534 0 
C -3.535534 0.937635 -3.163008 1.836992 -2.5 2.5 
C -1.836992 3.163008 -0.937635 3.535534 0 3.535534 
z
" id="C1_0_2b181a875b"/>
    </defs>
    <g clip-path="url(#p3c007e028f)">
     <use style="fill:#ff0000;stroke:#ff0000;" x="569.742351" xlink:href="#C1_0_2b181a875b" y="434.538317"/>
    </g>
    <g clip-path="url(#p3c007e028f)">
     <use style="fill:#ff0000;fill-opacity:0.3;stroke:#ff0000;stroke-opacity:0.3;" x="259.311661" xlink:href="#C1_0_2b181a875b" y="497.511419"/>
    </g>
    <g clip-path="url(#p3c007e028f)">
     <use style="fill:#ff0000;fill-opacity:0.660518;stroke:#ff0000;stroke-opacity:0.660518;" x="200.524374" xlink:href="#C1_0_2b181a875b" y="474.202282"/>
    </g>
    <g clip-path="url(#p3c007e028f)">
     <use style="fill:#ff0000;fill-opacity:0.716687;stroke:#ff0000;stroke-opacity:0.716687;" x="193.02716" xlink:href="#C1_0_2b181a875b" y="451.920216"/>
    </g>
    <g clip-path="url(#p3c007e028f)">
     <use style="fill:#ff0000;fill-opacity:0.50765;stroke:#ff0000;stroke-opacity:0.50765;" x="164.467803" xlink:href="#C1_0_2b181a875b" y="454.682627"/>
    </g>
    <g clip-path="url(#p3c007e028f)">
     <use style="fill:#ff0000;fill-opacity:0.349043;stroke:#ff0000;stroke-opacity:0.349043;" x="379.117098" xlink:href="#C1_0_2b181a875b" y="474.406991"/>
    </g>
    <g clip-path="url(#p3c007e028f)">
     <use style="fill:#ff0000;fill-opacity:0.337887;stroke:#ff0000;stroke-opacity:0.337887;" x="379.667696" xlink:href="#C1_0_2b181a875b" y="455.595031"/>
    </g>
    <g clip-path="url(#p3c007e028f)">
     <use style="fill:#ff0000;fill-opacity:0.605134;stroke:#ff0000;stroke-opacity:0.605134;" x="282.395795" xlink:href="#C1_0_2b181a875b" y="302.467092"/>
    </g>
    <g clip-path="url(#p3c007e028f)">
     <use style="fill:#ff0000;fill-opacity:0.429154;stroke:#ff0000;stroke-opacity:0.429154;" x="176.276456" xlink:href="#C1_0_2b181a875b" y="169.203372"/>
    </g>
    <g clip-path="url(#p3c007e028f)">
     <use style="fill:#ff0000;fill-opacity:0.920561;stroke:#ff0000;stroke-opacity:0.920561;" x="531.673393" xlink:href="#C1_0_2b181a875b" y="287.652993"/>
    </g>
    <g clip-path="url(#p3c007e028f)">
     <use style="fill:#ff0000;fill-opacity:0.608484;stroke:#ff0000;stroke-opacity:0.608484;" x="195.387426" xlink:href="#C1_0_2b181a875b" y="397.951526"/>
    </g>
    <g clip-path="url(#p3c007e028f)">
     <use style="fill:#ff0000;fill-opacity:0.508604;stroke:#ff0000;stroke-opacity:0.508604;" x="434.941813" xlink:href="#C1_0_2b181a875b" y="420.393619"/>
    </g>
    <g clip-path="url(#p3c007e028f)">
     <use style="fill:#ff0000;fill-opacity:0.408613;stroke:#ff0000;stroke-opacity:0.408613;" x="387.33039" xlink:href="#C1_0_2b181a875b" y="427.626014"/>
    </g>
    <g clip-path="url(#p3c007e028f)">
     <use style="fill:#ff0000;fill-opacity:0.552089;stroke:#ff0000;stroke-opacity:0.552089;" x="198.975" xlink:href="#C1_0_2b181a875b" y="458.365237"/>
    </g>
    <g clip-path="url(#p3c007e028f)">
     <use style="fill:#ff0000;fill-opacity:0.940163;stroke:#ff0000;stroke-opacity:0.940163;" x="493.902681" xlink:href="#C1_0_2b181a875b" y="367.77654"/>
    </g>
    <g clip-path="url(#p3c007e028f)">
     <use style="fill:#ff0000;fill-opacity:0.744148;stroke:#ff0000;stroke-opacity:0.744148;" x="204.899195" xlink:href="#C1_0_2b181a875b" y="334.05819"/>
    </g>
    <g clip-path="url(#p3c007e028f)">
     <use style="fill:#ff0000;fill-opacity:0.903939;stroke:#ff0000;stroke-opacity:0.903939;" x="218.954005" xlink:href="#C1_0_2b181a875b" y="388.516865"/>
    </g>
   </g>
   <g id="Path3DCollection_3">
    <defs>
     <path d="M 0 3.535534 
C 0.937635 3.535534 1.836992 3.163008 2.5 2.5 
C 3.163008 1.836992 3.535534 0.937635 3.535534 0 
C 3.535534 -0.937635 3.163008 -1.836992 2.5 -2.5 
C 1.836992 -3.163008 0.937635 -3.535534 0 -3.535534 
C -0.937635 -3.535534 -1.836992 -3.163008 -2.5 -2.5 
C -3.163008 -1.836992 -3.535534 -0.937635 -3.535534 0 
C -3.535534 0.937635 -3.163008 1.836992 -2.5 2.5 
C -1.836992 3.163008 -0.937635 3.535534 0 3.535534 
z
" id="C2_0_03d42f20eb"/>
    </defs>
    <g clip-path="url(#p3c007e028f)">
     <use style="fill:#008000;fill-opacity:0.3;stroke:#008000;stroke-opacity:0.3;" x="559.723422" xlink:href="#C2_0_03d42f20eb" y="459.389817"/>
    </g>
    <g clip-path="url(#p3c007e028f)">
     <use style="fill:#008000;fill-opacity:0.341578;stroke:#008000;stroke-opacity:0.341578;" x="513.640493" xlink:href="#C2_0_03d42f20eb" y="451.419601"/>
    </g>
    <g clip-path="url(#p3c007e028f)">
     <use style="fill:#008000;fill-opacity:0.58065;stroke:#008000;stroke-opacity:0.58065;" x="527.749425" xlink:href="#C2_0_03d42f20eb" y="476.688152"/>
    </g>
    <g clip-path="url(#p3c007e028f)">
     <use style="fill:#008000;fill-opacity:0.690601;stroke:#008000;stroke-opacity:0.690601;" x="514.078069" xlink:href="#C2_0_03d42f20eb" y="449.997418"/>
    </g>
    <g clip-path="url(#p3c007e028f)">
     <use style="fill:#008000;stroke:#008000;" x="621.969695" xlink:href="#C2_0_03d42f20eb" y="458.648342"/>
    </g>
    <g clip-path="url(#p3c007e028f)">
     <use style="fill:#008000;fill-opacity:0.373404;stroke:#008000;stroke-opacity:0.373404;" x="532.766311" xlink:href="#C2_0_03d42f20eb" y="420.364897"/>
    </g>
    <g clip-path="url(#p3c007e028f)">
     <use style="fill:#008000;fill-opacity:0.578277;stroke:#008000;stroke-opacity:0.578277;" x="452.244228" xlink:href="#C2_0_03d42f20eb" y="425.980093"/>
    </g>
    <g clip-path="url(#p3c007e028f)">
     <use style="fill:#008000;fill-opacity:0.38155;stroke:#008000;stroke-opacity:0.38155;" x="418.628124" xlink:href="#C2_0_03d42f20eb" y="470.901291"/>
    </g>
    <g clip-path="url(#p3c007e028f)">
     <use style="fill:#008000;fill-opacity:0.666484;stroke:#008000;stroke-opacity:0.666484;" x="518.532665" xlink:href="#C2_0_03d42f20eb" y="495.277042"/>
    </g>
    <g clip-path="url(#p3c007e028f)">
     <use style="fill:#008000;fill-opacity:0.382291;stroke:#008000;stroke-opacity:0.382291;" x="550.183072" xlink:href="#C2_0_03d42f20eb" y="449.024033"/>
    </g>
    <g clip-path="url(#p3c007e028f)">
     <use style="fill:#008000;fill-opacity:0.490452;stroke:#008000;stroke-opacity:0.490452;" x="479.559816" xlink:href="#C2_0_03d42f20eb" y="394.432997"/>
    </g>
    <g clip-path="url(#p3c007e028f)">
     <use style="fill:#008000;fill-opacity:0.498632;stroke:#008000;stroke-opacity:0.498632;" x="416.083944" xlink:href="#C2_0_03d42f20eb" y="369.330059"/>
    </g>
   </g>
   <g id="text_26">
    <!-- 3 Component PCA -->
    <defs>
     <path d="M 34.1875 63.1875 
L 20.796875 26.90625 
L 47.609375 26.90625 
z
M 28.609375 72.90625 
L 39.796875 72.90625 
L 67.578125 0 
L 57.328125 0 
L 50.6875 18.703125 
L 17.828125 18.703125 
L 11.1875 0 
L 0.78125 0 
z
" id="DejaVuSans-41"/>
    </defs>
    <g transform="translate(269.370313 51.6)scale(0.2 -0.2)">
     <use xlink:href="#DejaVuSans-33"/>
     <use x="63.623047" xlink:href="#DejaVuSans-20"/>
     <use x="95.410156" xlink:href="#DejaVuSans-43"/>
     <use x="165.234375" xlink:href="#DejaVuSans-6f"/>
     <use x="226.416016" xlink:href="#DejaVuSans-6d"/>
     <use x="323.828125" xlink:href="#DejaVuSans-70"/>
     <use x="387.304688" xlink:href="#DejaVuSans-6f"/>
     <use x="448.486328" xlink:href="#DejaVuSans-6e"/>
     <use x="511.865234" xlink:href="#DejaVuSans-65"/>
     <use x="573.388672" xlink:href="#DejaVuSans-6e"/>
     <use x="636.767578" xlink:href="#DejaVuSans-74"/>
     <use x="675.976562" xlink:href="#DejaVuSans-20"/>
     <use x="707.763672" xlink:href="#DejaVuSans-50"/>
     <use x="768.066406" xlink:href="#DejaVuSans-43"/>
     <use x="837.890625" xlink:href="#DejaVuSans-41"/>
    </g>
   </g>
   <g id="legend_1">
    <g id="patch_6">
     <path d="M 653.815625 52.034375 
L 713 52.034375 
Q 715 52.034375 715 50.034375 
L 715 7 
Q 715 5 713 5 
L 653.815625 5 
Q 651.815625 5 651.815625 7 
L 651.815625 50.034375 
Q 651.815625 52.034375 653.815625 52.034375 
z
" style="fill:#ffffff;opacity:0.8;stroke:#cccccc;stroke-linejoin:miter;"/>
    </g>
    <g id="Path3DCollection_4">
     <defs>
      <path d="M 0 3.535534 
C 0.937635 3.535534 1.836992 3.163008 2.5 2.5 
C 3.163008 1.836992 3.535534 0.937635 3.535534 0 
C 3.535534 -0.937635 3.163008 -1.836992 2.5 -2.5 
C 1.836992 -3.163008 0.937635 -3.535534 0 -3.535534 
C -0.937635 -3.535534 -1.836992 -3.163008 -2.5 -2.5 
C -3.163008 -1.836992 -3.535534 -0.937635 -3.535534 0 
C -3.535534 0.937635 -3.163008 1.836992 -2.5 2.5 
C -1.836992 3.163008 -0.937635 3.535534 0 3.535534 
z
" id="m14bd0d2d80" style="stroke:#ff0000;"/>
     </defs>
     <g>
      <use style="fill:#ff0000;stroke:#ff0000;" x="665.815625" xlink:href="#m14bd0d2d80" y="13.973437"/>
     </g>
    </g>
    <g id="text_27">
     <!-- NF -->
     <defs>
      <path d="M 9.8125 72.90625 
L 23.09375 72.90625 
L 55.421875 11.921875 
L 55.421875 72.90625 
L 64.984375 72.90625 
L 64.984375 0 
L 51.703125 0 
L 19.390625 60.984375 
L 19.390625 0 
L 9.8125 0 
z
" id="DejaVuSans-4e"/>
      <path d="M 9.8125 72.90625 
L 51.703125 72.90625 
L 51.703125 64.59375 
L 19.671875 64.59375 
L 19.671875 43.109375 
L 48.578125 43.109375 
L 48.578125 34.8125 
L 19.671875 34.8125 
L 19.671875 0 
L 9.8125 0 
z
" id="DejaVuSans-46"/>
     </defs>
     <g transform="translate(683.815625 16.598437)scale(0.1 -0.1)">
      <use xlink:href="#DejaVuSans-4e"/>
      <use x="74.804688" xlink:href="#DejaVuSans-46"/>
     </g>
    </g>
    <g id="Path3DCollection_5">
     <defs>
      <path d="M 0 3.535534 
C 0.937635 3.535534 1.836992 3.163008 2.5 2.5 
C 3.163008 1.836992 3.535534 0.937635 3.535534 0 
C 3.535534 -0.937635 3.163008 -1.836992 2.5 -2.5 
C 1.836992 -3.163008 0.937635 -3.535534 0 -3.535534 
C -0.937635 -3.535534 -1.836992 -3.163008 -2.5 -2.5 
C -3.163008 -1.836992 -3.535534 -0.937635 -3.535534 0 
C -3.535534 0.937635 -3.163008 1.836992 -2.5 2.5 
C -1.836992 3.163008 -0.937635 3.535534 0 3.535534 
z
" id="mf297bf4cc7" style="stroke:#008000;"/>
     </defs>
     <g>
      <use style="fill:#008000;stroke:#008000;" x="665.815625" xlink:href="#mf297bf4cc7" y="28.651562"/>
     </g>
    </g>
    <g id="text_28">
     <!-- PV+ -->
     <defs>
      <path d="M 28.609375 0 
L 0.78125 72.90625 
L 11.078125 72.90625 
L 34.1875 11.53125 
L 57.328125 72.90625 
L 67.578125 72.90625 
L 39.796875 0 
z
" id="DejaVuSans-56"/>
      <path d="M 46 62.703125 
L 46 35.5 
L 73.1875 35.5 
L 73.1875 27.203125 
L 46 27.203125 
L 46 0 
L 37.796875 0 
L 37.796875 27.203125 
L 10.59375 27.203125 
L 10.59375 35.5 
L 37.796875 35.5 
L 37.796875 62.703125 
z
" id="DejaVuSans-2b"/>
     </defs>
     <g transform="translate(683.815625 31.276562)scale(0.1 -0.1)">
      <use xlink:href="#DejaVuSans-50"/>
      <use x="60.302734" xlink:href="#DejaVuSans-56"/>
      <use x="128.710938" xlink:href="#DejaVuSans-2b"/>
     </g>
    </g>
    <g id="Path3DCollection_6">
     <defs>
      <path d="M 0 3.535534 
C 0.937635 3.535534 1.836992 3.163008 2.5 2.5 
C 3.163008 1.836992 3.535534 0.937635 3.535534 0 
C 3.535534 -0.937635 3.163008 -1.836992 2.5 -2.5 
C 1.836992 -3.163008 0.937635 -3.535534 0 -3.535534 
C -0.937635 -3.535534 -1.836992 -3.163008 -2.5 -2.5 
C -3.163008 -1.836992 -3.535534 -0.937635 -3.535534 0 
C -3.535534 0.937635 -3.163008 1.836992 -2.5 2.5 
C -1.836992 3.163008 -0.937635 3.535534 0 3.535534 
z
" id="m09108ef3e1" style="stroke:#0000ff;"/>
     </defs>
     <g>
      <use style="fill:#0000ff;stroke:#0000ff;" x="665.815625" xlink:href="#m09108ef3e1" y="43.329687"/>
     </g>
    </g>
    <g id="text_29">
     <!-- SST+ -->
     <defs>
      <path d="M 53.515625 70.515625 
L 53.515625 60.890625 
Q 47.90625 63.578125 42.921875 64.890625 
Q 37.9375 66.21875 33.296875 66.21875 
Q 25.25 66.21875 20.875 63.09375 
Q 16.5 59.96875 16.5 54.203125 
Q 16.5 49.359375 19.40625 46.890625 
Q 22.3125 44.4375 30.421875 42.921875 
L 36.375 41.703125 
Q 47.40625 39.59375 52.65625 34.296875 
Q 57.90625 29 57.90625 20.125 
Q 57.90625 9.515625 50.796875 4.046875 
Q 43.703125 -1.421875 29.984375 -1.421875 
Q 24.8125 -1.421875 18.96875 -0.25 
Q 13.140625 0.921875 6.890625 3.21875 
L 6.890625 13.375 
Q 12.890625 10.015625 18.65625 8.296875 
Q 24.421875 6.59375 29.984375 6.59375 
Q 38.421875 6.59375 43.015625 9.90625 
Q 47.609375 13.234375 47.609375 19.390625 
Q 47.609375 24.75 44.3125 27.78125 
Q 41.015625 30.8125 33.5 32.328125 
L 27.484375 33.5 
Q 16.453125 35.6875 11.515625 40.375 
Q 6.59375 45.0625 6.59375 53.421875 
Q 6.59375 63.09375 13.40625 68.65625 
Q 20.21875 74.21875 32.171875 74.21875 
Q 37.3125 74.21875 42.625 73.28125 
Q 47.953125 72.359375 53.515625 70.515625 
z
" id="DejaVuSans-53"/>
      <path d="M -0.296875 72.90625 
L 61.375 72.90625 
L 61.375 64.59375 
L 35.5 64.59375 
L 35.5 0 
L 25.59375 0 
L 25.59375 64.59375 
L -0.296875 64.59375 
z
" id="DejaVuSans-54"/>
     </defs>
     <g transform="translate(683.815625 45.954687)scale(0.1 -0.1)">
      <use xlink:href="#DejaVuSans-53"/>
      <use x="63.476562" xlink:href="#DejaVuSans-53"/>
      <use x="126.953125" xlink:href="#DejaVuSans-54"/>
      <use x="188.037109" xlink:href="#DejaVuSans-2b"/>
     </g>
    </g>
   </g>
  </g>
 </g>
 <defs>
  <clipPath id="p3c007e028f">
   <rect height="720" width="720" x="0" y="0"/>
  </clipPath>
 </defs>
</svg>
