<?xml version="1.0" encoding="utf-8" standalone="no"?>
<!DOCTYPE svg PUBLIC "-//W3C//DTD SVG 1.1//EN"
  "http://www.w3.org/Graphics/SVG/1.1/DTD/svg11.dtd">
<!-- Created with matplotlib (http://matplotlib.org/) -->
<svg height="288pt" version="1.1" viewBox="0 0 432 288" width="432pt" xmlns="http://www.w3.org/2000/svg" xmlns:xlink="http://www.w3.org/1999/xlink">
 <defs>
  <style type="text/css">
*{stroke-linecap:butt;stroke-linejoin:round;}
  </style>
 </defs>
 <g id="figure_1">
  <g id="patch_1">
   <path d="M 0 288 
L 432 288 
L 432 0 
L 0 0 
z
" style="fill:#ffffff;"/>
  </g>
  <g id="patch_2">
   <path d="M 0 288 
L 432 288 
L 432 0 
L 0 0 
z
" style="fill:#ffffff;"/>
  </g>
  <g id="pane3d_1">
   <g id="patch_3">
    <path d="M 57.268276 224.36215 
L 180.908936 153.751075 
L 178.85045 18.824902 
L 48.316013 82.2675 
" style="fill:#f2f2f2;opacity:0.5;stroke:#f2f2f2;stroke-linejoin:miter;"/>
   </g>
  </g>
  <g id="pane3d_2">
   <g id="patch_4">
    <path d="M 180.908936 153.751075 
L 381.195181 193.227223 
L 389.574918 54.232405 
L 178.85045 18.824902 
" style="fill:#e6e6e6;opacity:0.5;stroke:#e6e6e6;stroke-linejoin:miter;"/>
   </g>
  </g>
  <g id="pane3d_3">
   <g id="patch_5">
    <path d="M 57.268276 224.36215 
L 267.996469 270.338555 
L 381.195181 193.227223 
L 180.908936 153.751075 
" style="fill:#ececec;opacity:0.5;stroke:#ececec;stroke-linejoin:miter;"/>
   </g>
  </g>
  <g id="axis3d_1">
   <g id="line2d_1">
    <path d="M 57.268276 224.36215 
L 267.996469 270.338555 
" style="fill:none;stroke:#000000;stroke-linecap:square;stroke-width:0.8;"/>
   </g>
   <g id="text_1">
    <!-- Principal Component 1 -->
    <defs>
     <path d="M 19.671875 64.796875 
L 19.671875 37.40625 
L 32.078125 37.40625 
Q 38.96875 37.40625 42.71875 40.96875 
Q 46.484375 44.53125 46.484375 51.125 
Q 46.484375 57.671875 42.71875 61.234375 
Q 38.96875 64.796875 32.078125 64.796875 
z
M 9.8125 72.90625 
L 32.078125 72.90625 
Q 44.34375 72.90625 50.609375 67.359375 
Q 56.890625 61.8125 56.890625 51.125 
Q 56.890625 40.328125 50.609375 34.8125 
Q 44.34375 29.296875 32.078125 29.296875 
L 19.671875 29.296875 
L 19.671875 0 
L 9.8125 0 
z
" id="DejaVuSans-50"/>
     <path d="M 41.109375 46.296875 
Q 39.59375 47.171875 37.8125 47.578125 
Q 36.03125 48 33.890625 48 
Q 26.265625 48 22.1875 43.046875 
Q 18.109375 38.09375 18.109375 28.8125 
L 18.109375 0 
L 9.078125 0 
L 9.078125 54.6875 
L 18.109375 54.6875 
L 18.109375 46.1875 
Q 20.953125 51.171875 25.484375 53.578125 
Q 30.03125 56 36.53125 56 
Q 37.453125 56 38.578125 55.875 
Q 39.703125 55.765625 41.0625 55.515625 
z
" id="DejaVuSans-72"/>
     <path d="M 9.421875 54.6875 
L 18.40625 54.6875 
L 18.40625 0 
L 9.421875 0 
z
M 9.421875 75.984375 
L 18.40625 75.984375 
L 18.40625 64.59375 
L 9.421875 64.59375 
z
" id="DejaVuSans-69"/>
     <path d="M 54.890625 33.015625 
L 54.890625 0 
L 45.90625 0 
L 45.90625 32.71875 
Q 45.90625 40.484375 42.875 44.328125 
Q 39.84375 48.1875 33.796875 48.1875 
Q 26.515625 48.1875 22.3125 43.546875 
Q 18.109375 38.921875 18.109375 30.90625 
L 18.109375 0 
L 9.078125 0 
L 9.078125 54.6875 
L 18.109375 54.6875 
L 18.109375 46.1875 
Q 21.34375 51.125 25.703125 53.5625 
Q 30.078125 56 35.796875 56 
Q 45.21875 56 50.046875 50.171875 
Q 54.890625 44.34375 54.890625 33.015625 
z
" id="DejaVuSans-6e"/>
     <path d="M 48.78125 52.59375 
L 48.78125 44.1875 
Q 44.96875 46.296875 41.140625 47.34375 
Q 37.3125 48.390625 33.40625 48.390625 
Q 24.65625 48.390625 19.8125 42.84375 
Q 14.984375 37.3125 14.984375 27.296875 
Q 14.984375 17.28125 19.8125 11.734375 
Q 24.65625 6.203125 33.40625 6.203125 
Q 37.3125 6.203125 41.140625 7.25 
Q 44.96875 8.296875 48.78125 10.40625 
L 48.78125 2.09375 
Q 45.015625 0.34375 40.984375 -0.53125 
Q 36.96875 -1.421875 32.421875 -1.421875 
Q 20.0625 -1.421875 12.78125 6.34375 
Q 5.515625 14.109375 5.515625 27.296875 
Q 5.515625 40.671875 12.859375 48.328125 
Q 20.21875 56 33.015625 56 
Q 37.15625 56 41.109375 55.140625 
Q 45.0625 54.296875 48.78125 52.59375 
z
" id="DejaVuSans-63"/>
     <path d="M 18.109375 8.203125 
L 18.109375 -20.796875 
L 9.078125 -20.796875 
L 9.078125 54.6875 
L 18.109375 54.6875 
L 18.109375 46.390625 
Q 20.953125 51.265625 25.265625 53.625 
Q 29.59375 56 35.59375 56 
Q 45.5625 56 51.78125 48.09375 
Q 58.015625 40.1875 58.015625 27.296875 
Q 58.015625 14.40625 51.78125 6.484375 
Q 45.5625 -1.421875 35.59375 -1.421875 
Q 29.59375 -1.421875 25.265625 0.953125 
Q 20.953125 3.328125 18.109375 8.203125 
z
M 48.6875 27.296875 
Q 48.6875 37.203125 44.609375 42.84375 
Q 40.53125 48.484375 33.40625 48.484375 
Q 26.265625 48.484375 22.1875 42.84375 
Q 18.109375 37.203125 18.109375 27.296875 
Q 18.109375 17.390625 22.1875 11.75 
Q 26.265625 6.109375 33.40625 6.109375 
Q 40.53125 6.109375 44.609375 11.75 
Q 48.6875 17.390625 48.6875 27.296875 
z
" id="DejaVuSans-70"/>
     <path d="M 34.28125 27.484375 
Q 23.390625 27.484375 19.1875 25 
Q 14.984375 22.515625 14.984375 16.5 
Q 14.984375 11.71875 18.140625 8.90625 
Q 21.296875 6.109375 26.703125 6.109375 
Q 34.1875 6.109375 38.703125 11.40625 
Q 43.21875 16.703125 43.21875 25.484375 
L 43.21875 27.484375 
z
M 52.203125 31.203125 
L 52.203125 0 
L 43.21875 0 
L 43.21875 8.296875 
Q 40.140625 3.328125 35.546875 0.953125 
Q 30.953125 -1.421875 24.3125 -1.421875 
Q 15.921875 -1.421875 10.953125 3.296875 
Q 6 8.015625 6 15.921875 
Q 6 25.140625 12.171875 29.828125 
Q 18.359375 34.515625 30.609375 34.515625 
L 43.21875 34.515625 
L 43.21875 35.40625 
Q 43.21875 41.609375 39.140625 45 
Q 35.0625 48.390625 27.6875 48.390625 
Q 23 48.390625 18.546875 47.265625 
Q 14.109375 46.140625 10.015625 43.890625 
L 10.015625 52.203125 
Q 14.9375 54.109375 19.578125 55.046875 
Q 24.21875 56 28.609375 56 
Q 40.484375 56 46.34375 49.84375 
Q 52.203125 43.703125 52.203125 31.203125 
z
" id="DejaVuSans-61"/>
     <path d="M 9.421875 75.984375 
L 18.40625 75.984375 
L 18.40625 0 
L 9.421875 0 
z
" id="DejaVuSans-6c"/>
     <path id="DejaVuSans-20"/>
     <path d="M 64.40625 67.28125 
L 64.40625 56.890625 
Q 59.421875 61.53125 53.78125 63.8125 
Q 48.140625 66.109375 41.796875 66.109375 
Q 29.296875 66.109375 22.65625 58.46875 
Q 16.015625 50.828125 16.015625 36.375 
Q 16.015625 21.96875 22.65625 14.328125 
Q 29.296875 6.6875 41.796875 6.6875 
Q 48.140625 6.6875 53.78125 8.984375 
Q 59.421875 11.28125 64.40625 15.921875 
L 64.40625 5.609375 
Q 59.234375 2.09375 53.4375 0.328125 
Q 47.65625 -1.421875 41.21875 -1.421875 
Q 24.65625 -1.421875 15.125 8.703125 
Q 5.609375 18.84375 5.609375 36.375 
Q 5.609375 53.953125 15.125 64.078125 
Q 24.65625 74.21875 41.21875 74.21875 
Q 47.75 74.21875 53.53125 72.484375 
Q 59.328125 70.75 64.40625 67.28125 
z
" id="DejaVuSans-43"/>
     <path d="M 30.609375 48.390625 
Q 23.390625 48.390625 19.1875 42.75 
Q 14.984375 37.109375 14.984375 27.296875 
Q 14.984375 17.484375 19.15625 11.84375 
Q 23.34375 6.203125 30.609375 6.203125 
Q 37.796875 6.203125 41.984375 11.859375 
Q 46.1875 17.53125 46.1875 27.296875 
Q 46.1875 37.015625 41.984375 42.703125 
Q 37.796875 48.390625 30.609375 48.390625 
z
M 30.609375 56 
Q 42.328125 56 49.015625 48.375 
Q 55.71875 40.765625 55.71875 27.296875 
Q 55.71875 13.875 49.015625 6.21875 
Q 42.328125 -1.421875 30.609375 -1.421875 
Q 18.84375 -1.421875 12.171875 6.21875 
Q 5.515625 13.875 5.515625 27.296875 
Q 5.515625 40.765625 12.171875 48.375 
Q 18.84375 56 30.609375 56 
z
" id="DejaVuSans-6f"/>
     <path d="M 52 44.1875 
Q 55.375 50.25 60.0625 53.125 
Q 64.75 56 71.09375 56 
Q 79.640625 56 84.28125 50.015625 
Q 88.921875 44.046875 88.921875 33.015625 
L 88.921875 0 
L 79.890625 0 
L 79.890625 32.71875 
Q 79.890625 40.578125 77.09375 44.375 
Q 74.3125 48.1875 68.609375 48.1875 
Q 61.625 48.1875 57.5625 43.546875 
Q 53.515625 38.921875 53.515625 30.90625 
L 53.515625 0 
L 44.484375 0 
L 44.484375 32.71875 
Q 44.484375 40.625 41.703125 44.40625 
Q 38.921875 48.1875 33.109375 48.1875 
Q 26.21875 48.1875 22.15625 43.53125 
Q 18.109375 38.875 18.109375 30.90625 
L 18.109375 0 
L 9.078125 0 
L 9.078125 54.6875 
L 18.109375 54.6875 
L 18.109375 46.1875 
Q 21.1875 51.21875 25.484375 53.609375 
Q 29.78125 56 35.6875 56 
Q 41.65625 56 45.828125 52.96875 
Q 50 49.953125 52 44.1875 
z
" id="DejaVuSans-6d"/>
     <path d="M 56.203125 29.59375 
L 56.203125 25.203125 
L 14.890625 25.203125 
Q 15.484375 15.921875 20.484375 11.0625 
Q 25.484375 6.203125 34.421875 6.203125 
Q 39.59375 6.203125 44.453125 7.46875 
Q 49.3125 8.734375 54.109375 11.28125 
L 54.109375 2.78125 
Q 49.265625 0.734375 44.1875 -0.34375 
Q 39.109375 -1.421875 33.890625 -1.421875 
Q 20.796875 -1.421875 13.15625 6.1875 
Q 5.515625 13.8125 5.515625 26.8125 
Q 5.515625 40.234375 12.765625 48.109375 
Q 20.015625 56 32.328125 56 
Q 43.359375 56 49.78125 48.890625 
Q 56.203125 41.796875 56.203125 29.59375 
z
M 47.21875 32.234375 
Q 47.125 39.59375 43.09375 43.984375 
Q 39.0625 48.390625 32.421875 48.390625 
Q 24.90625 48.390625 20.390625 44.140625 
Q 15.875 39.890625 15.1875 32.171875 
z
" id="DejaVuSans-65"/>
     <path d="M 18.3125 70.21875 
L 18.3125 54.6875 
L 36.8125 54.6875 
L 36.8125 47.703125 
L 18.3125 47.703125 
L 18.3125 18.015625 
Q 18.3125 11.328125 20.140625 9.421875 
Q 21.96875 7.515625 27.59375 7.515625 
L 36.8125 7.515625 
L 36.8125 0 
L 27.59375 0 
Q 17.1875 0 13.234375 3.875 
Q 9.28125 7.765625 9.28125 18.015625 
L 9.28125 47.703125 
L 2.6875 47.703125 
L 2.6875 54.6875 
L 9.28125 54.6875 
L 9.28125 70.21875 
z
" id="DejaVuSans-74"/>
     <path d="M 12.40625 8.296875 
L 28.515625 8.296875 
L 28.515625 63.921875 
L 10.984375 60.40625 
L 10.984375 69.390625 
L 28.421875 72.90625 
L 38.28125 72.90625 
L 38.28125 8.296875 
L 54.390625 8.296875 
L 54.390625 0 
L 12.40625 0 
z
" id="DejaVuSans-31"/>
    </defs>
    <g transform="translate(59.422477 261.648488)rotate(-347.692154)scale(0.15 -0.15)">
     <use xlink:href="#DejaVuSans-50"/>
     <use x="60.287109" xlink:href="#DejaVuSans-72"/>
     <use x="101.400391" xlink:href="#DejaVuSans-69"/>
     <use x="129.183594" xlink:href="#DejaVuSans-6e"/>
     <use x="192.5625" xlink:href="#DejaVuSans-63"/>
     <use x="247.542969" xlink:href="#DejaVuSans-69"/>
     <use x="275.326172" xlink:href="#DejaVuSans-70"/>
     <use x="338.802734" xlink:href="#DejaVuSans-61"/>
     <use x="400.082031" xlink:href="#DejaVuSans-6c"/>
     <use x="427.865234" xlink:href="#DejaVuSans-20"/>
     <use x="459.652344" xlink:href="#DejaVuSans-43"/>
     <use x="529.476562" xlink:href="#DejaVuSans-6f"/>
     <use x="590.658203" xlink:href="#DejaVuSans-6d"/>
     <use x="688.070312" xlink:href="#DejaVuSans-70"/>
     <use x="751.546875" xlink:href="#DejaVuSans-6f"/>
     <use x="812.728516" xlink:href="#DejaVuSans-6e"/>
     <use x="876.107422" xlink:href="#DejaVuSans-65"/>
     <use x="937.630859" xlink:href="#DejaVuSans-6e"/>
     <use x="1001.009766" xlink:href="#DejaVuSans-74"/>
     <use x="1040.21875" xlink:href="#DejaVuSans-20"/>
     <use x="1072.005859" xlink:href="#DejaVuSans-31"/>
    </g>
   </g>
   <g id="Line3DCollection_1">
    <path d="M 61.298135 225.241379 
L 184.751729 154.508485 
L 182.884887 19.502798 
" style="fill:none;stroke:#b0b0b0;stroke-width:0.8;"/>
    <path d="M 93.798392 232.332243 
L 215.725284 160.61333 
L 215.415428 24.968823 
" style="fill:none;stroke:#b0b0b0;stroke-width:0.8;"/>
    <path d="M 126.770488 239.526053 
L 247.115751 166.800349 
L 248.406193 30.512178 
" style="fill:none;stroke:#b0b0b0;stroke-width:0.8;"/>
    <path d="M 160.224774 246.825066 
L 278.931606 173.071211 
L 281.867019 36.134517 
" style="fill:none;stroke:#b0b0b0;stroke-width:0.8;"/>
    <path d="M 194.171904 254.231607 
L 311.181556 179.427632 
L 315.808022 41.837539 
" style="fill:none;stroke:#b0b0b0;stroke-width:0.8;"/>
    <path d="M 228.622852 261.74807 
L 343.874544 185.871376 
L 350.239615 47.622993 
" style="fill:none;stroke:#b0b0b0;stroke-width:0.8;"/>
    <path d="M 263.588916 269.376921 
L 377.019763 192.404253 
L 385.172512 53.49268 
" style="fill:none;stroke:#b0b0b0;stroke-width:0.8;"/>
   </g>
   <g id="xtick_1">
    <g id="line2d_2">
     <path d="M 62.361604 224.632064 
L 59.16724 226.462278 
" style="fill:none;stroke:#000000;stroke-linecap:square;stroke-width:0.8;"/>
    </g>
    <g id="text_2">
     <!-- −4 -->
     <defs>
      <path d="M 10.59375 35.5 
L 73.1875 35.5 
L 73.1875 27.203125 
L 10.59375 27.203125 
z
" id="DejaVuSans-2212"/>
      <path d="M 37.796875 64.3125 
L 12.890625 25.390625 
L 37.796875 25.390625 
z
M 35.203125 72.90625 
L 47.609375 72.90625 
L 47.609375 25.390625 
L 58.015625 25.390625 
L 58.015625 17.1875 
L 47.609375 17.1875 
L 47.609375 0 
L 37.796875 0 
L 37.796875 17.1875 
L 4.890625 17.1875 
L 4.890625 26.703125 
z
" id="DejaVuSans-34"/>
     </defs>
     <g transform="translate(46.265048 245.804779)scale(0.1 -0.1)">
      <use xlink:href="#DejaVuSans-2212"/>
      <use x="83.789062" xlink:href="#DejaVuSans-34"/>
     </g>
    </g>
   </g>
   <g id="xtick_2">
    <g id="line2d_3">
     <path d="M 94.849248 231.714117 
L 91.69274 233.570814 
" style="fill:none;stroke:#000000;stroke-linecap:square;stroke-width:0.8;"/>
    </g>
    <g id="text_3">
     <!-- −3 -->
     <defs>
      <path d="M 40.578125 39.3125 
Q 47.65625 37.796875 51.625 33 
Q 55.609375 28.21875 55.609375 21.1875 
Q 55.609375 10.40625 48.1875 4.484375 
Q 40.765625 -1.421875 27.09375 -1.421875 
Q 22.515625 -1.421875 17.65625 -0.515625 
Q 12.796875 0.390625 7.625 2.203125 
L 7.625 11.71875 
Q 11.71875 9.328125 16.59375 8.109375 
Q 21.484375 6.890625 26.8125 6.890625 
Q 36.078125 6.890625 40.9375 10.546875 
Q 45.796875 14.203125 45.796875 21.1875 
Q 45.796875 27.640625 41.28125 31.265625 
Q 36.765625 34.90625 28.71875 34.90625 
L 20.21875 34.90625 
L 20.21875 43.015625 
L 29.109375 43.015625 
Q 36.375 43.015625 40.234375 45.921875 
Q 44.09375 48.828125 44.09375 54.296875 
Q 44.09375 59.90625 40.109375 62.90625 
Q 36.140625 65.921875 28.71875 65.921875 
Q 24.65625 65.921875 20.015625 65.03125 
Q 15.375 64.15625 9.8125 62.3125 
L 9.8125 71.09375 
Q 15.4375 72.65625 20.34375 73.4375 
Q 25.25 74.21875 29.59375 74.21875 
Q 40.828125 74.21875 47.359375 69.109375 
Q 53.90625 64.015625 53.90625 55.328125 
Q 53.90625 49.265625 50.4375 45.09375 
Q 46.96875 40.921875 40.578125 39.3125 
z
" id="DejaVuSans-33"/>
     </defs>
     <g transform="translate(78.761919 253.000555)scale(0.1 -0.1)">
      <use xlink:href="#DejaVuSans-2212"/>
      <use x="83.789062" xlink:href="#DejaVuSans-33"/>
     </g>
    </g>
   </g>
   <g id="xtick_3">
    <g id="line2d_4">
     <path d="M 127.808253 238.898923 
L 124.691039 240.782682 
" style="fill:none;stroke:#000000;stroke-linecap:square;stroke-width:0.8;"/>
    </g>
    <g id="text_4">
     <!-- −2 -->
     <defs>
      <path d="M 19.1875 8.296875 
L 53.609375 8.296875 
L 53.609375 0 
L 7.328125 0 
L 7.328125 8.296875 
Q 12.9375 14.109375 22.625 23.890625 
Q 32.328125 33.6875 34.8125 36.53125 
Q 39.546875 41.84375 41.421875 45.53125 
Q 43.3125 49.21875 43.3125 52.78125 
Q 43.3125 58.59375 39.234375 62.25 
Q 35.15625 65.921875 28.609375 65.921875 
Q 23.96875 65.921875 18.8125 64.3125 
Q 13.671875 62.703125 7.8125 59.421875 
L 7.8125 69.390625 
Q 13.765625 71.78125 18.9375 73 
Q 24.125 74.21875 28.421875 74.21875 
Q 39.75 74.21875 46.484375 68.546875 
Q 53.21875 62.890625 53.21875 53.421875 
Q 53.21875 48.921875 51.53125 44.890625 
Q 49.859375 40.875 45.40625 35.40625 
Q 44.1875 33.984375 37.640625 27.21875 
Q 31.109375 20.453125 19.1875 8.296875 
z
" id="DejaVuSans-32"/>
     </defs>
     <g transform="translate(111.731338 260.300967)scale(0.1 -0.1)">
      <use xlink:href="#DejaVuSans-2212"/>
      <use x="83.789062" xlink:href="#DejaVuSans-32"/>
     </g>
    </g>
   </g>
   <g id="xtick_4">
    <g id="line2d_5">
     <path d="M 161.24895 246.188734 
L 158.172524 248.100151 
" style="fill:none;stroke:#000000;stroke-linecap:square;stroke-width:0.8;"/>
    </g>
    <g id="text_5">
     <!-- −1 -->
     <g transform="translate(145.18369 267.708315)scale(0.1 -0.1)">
      <use xlink:href="#DejaVuSans-2212"/>
      <use x="83.789062" xlink:href="#DejaVuSans-31"/>
     </g>
    </g>
   </g>
   <g id="xtick_5">
    <g id="line2d_6">
     <path d="M 195.181979 253.585869 
L 192.147884 255.525558 
" style="fill:none;stroke:#000000;stroke-linecap:square;stroke-width:0.8;"/>
    </g>
    <g id="text_6">
     <!-- 0 -->
     <defs>
      <path d="M 31.78125 66.40625 
Q 24.171875 66.40625 20.328125 58.90625 
Q 16.5 51.421875 16.5 36.375 
Q 16.5 21.390625 20.328125 13.890625 
Q 24.171875 6.390625 31.78125 6.390625 
Q 39.453125 6.390625 43.28125 13.890625 
Q 47.125 21.390625 47.125 36.375 
Q 47.125 51.421875 43.28125 58.90625 
Q 39.453125 66.40625 31.78125 66.40625 
z
M 31.78125 74.21875 
Q 44.046875 74.21875 50.515625 64.515625 
Q 56.984375 54.828125 56.984375 36.375 
Q 56.984375 17.96875 50.515625 8.265625 
Q 44.046875 -1.421875 31.78125 -1.421875 
Q 19.53125 -1.421875 13.0625 8.265625 
Q 6.59375 17.96875 6.59375 36.375 
Q 6.59375 54.828125 13.0625 64.515625 
Q 19.53125 74.21875 31.78125 74.21875 
z
" id="DejaVuSans-30"/>
     </defs>
     <g transform="translate(183.319507 275.224965)scale(0.1 -0.1)">
      <use xlink:href="#DejaVuSans-30"/>
     </g>
    </g>
   </g>
   <g id="xtick_6">
    <g id="line2d_7">
     <path d="M 229.618291 261.092716 
L 226.628129 263.061309 
" style="fill:none;stroke:#000000;stroke-linecap:square;stroke-width:0.8;"/>
    </g>
    <g id="text_7">
     <!-- 1 -->
     <g transform="translate(217.770109 282.853355)scale(0.1 -0.1)">
      <use xlink:href="#DejaVuSans-31"/>
     </g>
    </g>
   </g>
   <g id="xtick_7">
    <g id="line2d_8">
     <path d="M 264.569168 268.711735 
L 261.624597 270.709881 
" style="fill:none;stroke:#000000;stroke-linecap:square;stroke-width:0.8;"/>
    </g>
    <g id="text_8">
     <!-- 2 -->
     <g transform="translate(252.736675 290.595995)scale(0.1 -0.1)">
      <use xlink:href="#DejaVuSans-32"/>
     </g>
    </g>
   </g>
  </g>
  <g id="axis3d_2">
   <g id="line2d_9">
    <path d="M 381.195181 193.227223 
L 267.996469 270.338555 
" style="fill:none;stroke:#000000;stroke-linecap:square;stroke-width:0.8;"/>
   </g>
   <g id="text_9">
    <!-- Principal Component 3 -->
    <g transform="translate(286.604334 305.594313)rotate(-34.262819)scale(0.15 -0.15)">
     <use xlink:href="#DejaVuSans-50"/>
     <use x="60.287109" xlink:href="#DejaVuSans-72"/>
     <use x="101.400391" xlink:href="#DejaVuSans-69"/>
     <use x="129.183594" xlink:href="#DejaVuSans-6e"/>
     <use x="192.5625" xlink:href="#DejaVuSans-63"/>
     <use x="247.542969" xlink:href="#DejaVuSans-69"/>
     <use x="275.326172" xlink:href="#DejaVuSans-70"/>
     <use x="338.802734" xlink:href="#DejaVuSans-61"/>
     <use x="400.082031" xlink:href="#DejaVuSans-6c"/>
     <use x="427.865234" xlink:href="#DejaVuSans-20"/>
     <use x="459.652344" xlink:href="#DejaVuSans-43"/>
     <use x="529.476562" xlink:href="#DejaVuSans-6f"/>
     <use x="590.658203" xlink:href="#DejaVuSans-6d"/>
     <use x="688.070312" xlink:href="#DejaVuSans-70"/>
     <use x="751.546875" xlink:href="#DejaVuSans-6f"/>
     <use x="812.728516" xlink:href="#DejaVuSans-6e"/>
     <use x="876.107422" xlink:href="#DejaVuSans-65"/>
     <use x="937.630859" xlink:href="#DejaVuSans-6e"/>
     <use x="1001.009766" xlink:href="#DejaVuSans-74"/>
     <use x="1040.21875" xlink:href="#DejaVuSans-20"/>
     <use x="1072.005859" xlink:href="#DejaVuSans-33"/>
    </g>
   </g>
   <g id="Line3DCollection_2">
    <path d="M 64.707748 74.300757 
L 72.741465 215.525425 
L 282.204502 260.659996 
" style="fill:none;stroke:#b0b0b0;stroke-width:0.8;"/>
    <path d="M 79.477217 67.122471 
L 86.69626 207.555853 
L 295.008055 251.938174 
" style="fill:none;stroke:#b0b0b0;stroke-width:0.8;"/>
    <path d="M 93.994308 60.066847 
L 100.424593 199.715614 
L 307.594365 243.364339 
" style="fill:none;stroke:#b0b0b0;stroke-width:0.8;"/>
    <path d="M 108.265435 53.130766 
L 113.93193 192.001585 
L 319.968914 234.934756 
" style="fill:none;stroke:#b0b0b0;stroke-width:0.8;"/>
    <path d="M 122.296797 46.311217 
L 127.223567 184.410743 
L 332.137002 226.645814 
" style="fill:none;stroke:#b0b0b0;stroke-width:0.8;"/>
    <path d="M 136.094385 39.605286 
L 140.304629 176.94016 
L 344.103754 218.494024 
" style="fill:none;stroke:#b0b0b0;stroke-width:0.8;"/>
    <path d="M 149.663995 33.010158 
L 153.180081 169.587001 
L 355.874125 210.476009 
" style="fill:none;stroke:#b0b0b0;stroke-width:0.8;"/>
    <path d="M 163.01123 26.52311 
L 165.854732 162.348518 
L 367.45291 202.588503 
" style="fill:none;stroke:#b0b0b0;stroke-width:0.8;"/>
    <path d="M 176.141511 20.141505 
L 178.333244 155.222051 
L 378.844749 194.828345 
" style="fill:none;stroke:#b0b0b0;stroke-width:0.8;"/>
   </g>
   <g id="xtick_8">
    <g id="line2d_10">
     <path d="M 280.451813 260.282331 
L 285.713781 261.416167 
" style="fill:none;stroke:#000000;stroke-linecap:square;stroke-width:0.8;"/>
    </g>
    <g id="text_10">
     <!-- −3 -->
     <g transform="translate(288.071781 279.60156)scale(0.1 -0.1)">
      <use xlink:href="#DejaVuSans-2212"/>
      <use x="83.789062" xlink:href="#DejaVuSans-33"/>
     </g>
    </g>
   </g>
   <g id="xtick_9">
    <g id="line2d_11">
     <path d="M 293.265654 251.566943 
L 298.496702 252.681455 
" style="fill:none;stroke:#000000;stroke-linecap:square;stroke-width:0.8;"/>
    </g>
    <g id="text_11">
     <!-- −2 -->
     <g transform="translate(300.756535 270.786525)scale(0.1 -0.1)">
      <use xlink:href="#DejaVuSans-2212"/>
      <use x="83.789062" xlink:href="#DejaVuSans-32"/>
     </g>
    </g>
   </g>
   <g id="xtick_10">
    <g id="line2d_12">
     <path d="M 305.862156 242.999379 
L 311.062572 244.095058 
" style="fill:none;stroke:#000000;stroke-linecap:square;stroke-width:0.8;"/>
    </g>
    <g id="text_12">
     <!-- −1 -->
     <g transform="translate(313.226153 262.120993)scale(0.1 -0.1)">
      <use xlink:href="#DejaVuSans-2212"/>
      <use x="83.789062" xlink:href="#DejaVuSans-31"/>
     </g>
    </g>
   </g>
   <g id="xtick_11">
    <g id="line2d_13">
     <path d="M 318.246803 234.575909 
L 323.416872 235.653227 
" style="fill:none;stroke:#000000;stroke-linecap:square;stroke-width:0.8;"/>
    </g>
    <g id="text_13">
     <!-- 0 -->
     <g transform="translate(329.675908 253.601194)scale(0.1 -0.1)">
      <use xlink:href="#DejaVuSans-30"/>
     </g>
    </g>
   </g>
   <g id="xtick_12">
    <g id="line2d_14">
     <path d="M 330.424894 226.292929 
L 335.564901 227.352345 
" style="fill:none;stroke:#000000;stroke-linecap:square;stroke-width:0.8;"/>
    </g>
    <g id="text_14">
     <!-- 1 -->
     <g transform="translate(341.731358 245.223481)scale(0.1 -0.1)">
      <use xlink:href="#DejaVuSans-31"/>
     </g>
    </g>
   </g>
   <g id="xtick_13">
    <g id="line2d_15">
     <path d="M 342.401555 218.146952 
L 347.511783 219.188908 
" style="fill:none;stroke:#000000;stroke-linecap:square;stroke-width:0.8;"/>
    </g>
    <g id="text_15">
     <!-- 2 -->
     <g transform="translate(353.587419 236.98433)scale(0.1 -0.1)">
      <use xlink:href="#DejaVuSans-32"/>
     </g>
    </g>
   </g>
   <g id="xtick_14">
    <g id="line2d_16">
     <path d="M 354.181742 210.134608 
L 359.262471 211.159532 
" style="fill:none;stroke:#000000;stroke-linecap:square;stroke-width:0.8;"/>
    </g>
    <g id="text_16">
     <!-- 3 -->
     <g transform="translate(365.248997 228.880331)scale(0.1 -0.1)">
      <use xlink:href="#DejaVuSans-33"/>
     </g>
    </g>
   </g>
   <g id="xtick_15">
    <g id="line2d_17">
     <path d="M 365.77025 202.252636 
L 370.821761 203.260942 
" style="fill:none;stroke:#000000;stroke-linecap:square;stroke-width:0.8;"/>
    </g>
    <g id="text_17">
     <!-- 4 -->
     <g transform="translate(376.720839 220.908186)scale(0.1 -0.1)">
      <use xlink:href="#DejaVuSans-34"/>
     </g>
    </g>
   </g>
   <g id="xtick_16">
    <g id="line2d_18">
     <path d="M 377.17172 194.497878 
L 382.194289 195.489967 
" style="fill:none;stroke:#000000;stroke-linecap:square;stroke-width:0.8;"/>
    </g>
    <g id="text_18">
     <!-- 5 -->
     <defs>
      <path d="M 10.796875 72.90625 
L 49.515625 72.90625 
L 49.515625 64.59375 
L 19.828125 64.59375 
L 19.828125 46.734375 
Q 21.96875 47.46875 24.109375 47.828125 
Q 26.265625 48.1875 28.421875 48.1875 
Q 40.625 48.1875 47.75 41.5 
Q 54.890625 34.8125 54.890625 23.390625 
Q 54.890625 11.625 47.5625 5.09375 
Q 40.234375 -1.421875 26.90625 -1.421875 
Q 22.3125 -1.421875 17.546875 -0.640625 
Q 12.796875 0.140625 7.71875 1.703125 
L 7.71875 11.625 
Q 12.109375 9.234375 16.796875 8.0625 
Q 21.484375 6.890625 26.703125 6.890625 
Q 35.15625 6.890625 40.078125 11.328125 
Q 45.015625 15.765625 45.015625 23.390625 
Q 45.015625 31 40.078125 35.4375 
Q 35.15625 39.890625 26.703125 39.890625 
Q 22.75 39.890625 18.8125 39.015625 
Q 14.890625 38.140625 10.796875 36.28125 
z
" id="DejaVuSans-35"/>
     </defs>
     <g transform="translate(388.007537 213.064703)scale(0.1 -0.1)">
      <use xlink:href="#DejaVuSans-35"/>
     </g>
    </g>
   </g>
  </g>
  <g id="axis3d_3">
   <g id="line2d_19">
    <path d="M 381.195181 193.227223 
L 389.574918 54.232405 
" style="fill:none;stroke:#000000;stroke-linecap:square;stroke-width:0.8;"/>
   </g>
   <g id="Line3DCollection_3">
    <path d="M 382.23302 176.012566 
L 180.653503 137.008405 
L 56.161199 206.7901 
" style="fill:none;stroke:#b0b0b0;stroke-width:0.8;"/>
    <path d="M 383.514955 154.749091 
L 180.338184 116.340404 
L 54.793092 185.074837 
" style="fill:none;stroke:#b0b0b0;stroke-width:0.8;"/>
    <path d="M 384.817547 133.142988 
L 180.018 95.35348 
L 53.402202 162.997951 
" style="fill:none;stroke:#b0b0b0;stroke-width:0.8;"/>
    <path d="M 386.141298 111.185907 
L 179.692836 74.040196 
L 51.987954 140.550335 
" style="fill:none;stroke:#b0b0b0;stroke-width:0.8;"/>
    <path d="M 387.486729 88.869227 
L 179.362576 52.392878 
L 50.549757 117.722569 
" style="fill:none;stroke:#b0b0b0;stroke-width:0.8;"/>
    <path d="M 388.854376 66.18404 
L 179.027099 30.403611 
L 49.086996 94.504916 
" style="fill:none;stroke:#b0b0b0;stroke-width:0.8;"/>
   </g>
   <g id="xtick_17">
    <g id="line2d_20">
     <path d="M 380.550746 175.687058 
L 385.601088 176.664262 
" style="fill:none;stroke:#000000;stroke-linecap:square;stroke-width:0.8;"/>
    </g>
    <g id="text_19">
     <!-- −2 -->
     <g transform="translate(394.185684 181.787056)scale(0.1 -0.1)">
      <use xlink:href="#DejaVuSans-2212"/>
      <use x="83.789062" xlink:href="#DejaVuSans-32"/>
     </g>
    </g>
   </g>
   <g id="xtick_18">
    <g id="line2d_21">
     <path d="M 381.81879 154.428447 
L 386.910862 155.391056 
" style="fill:none;stroke:#000000;stroke-linecap:square;stroke-width:0.8;"/>
    </g>
    <g id="text_20">
     <!-- −1 -->
     <g transform="translate(395.619236 160.550857)scale(0.1 -0.1)">
      <use xlink:href="#DejaVuSans-2212"/>
      <use x="83.789062" xlink:href="#DejaVuSans-31"/>
     </g>
    </g>
   </g>
   <g id="xtick_19">
    <g id="line2d_22">
     <path d="M 383.10726 132.827407 
L 388.241755 133.774821 
" style="fill:none;stroke:#000000;stroke-linecap:square;stroke-width:0.8;"/>
    </g>
    <g id="text_21">
     <!-- 0 -->
     <g transform="translate(401.265686 138.973147)scale(0.1 -0.1)">
      <use xlink:href="#DejaVuSans-30"/>
     </g>
    </g>
   </g>
   <g id="xtick_20">
    <g id="line2d_23">
     <path d="M 384.416653 110.875597 
L 389.594284 111.807194 
" style="fill:none;stroke:#000000;stroke-linecap:square;stroke-width:0.8;"/>
    </g>
    <g id="text_22">
     <!-- 1 -->
     <g transform="translate(402.745906 117.045621)scale(0.1 -0.1)">
      <use xlink:href="#DejaVuSans-31"/>
     </g>
    </g>
   </g>
   <g id="xtick_21">
    <g id="line2d_24">
     <path d="M 385.747482 88.564402 
L 390.968979 89.479535 
" style="fill:none;stroke:#000000;stroke-linecap:square;stroke-width:0.8;"/>
    </g>
    <g id="text_23">
     <!-- 2 -->
     <g transform="translate(404.250319 94.759703)scale(0.1 -0.1)">
      <use xlink:href="#DejaVuSans-32"/>
     </g>
    </g>
   </g>
   <g id="xtick_22">
    <g id="line2d_25">
     <path d="M 387.100279 65.884926 
L 392.366391 66.78292 
" style="fill:none;stroke:#000000;stroke-linecap:square;stroke-width:0.8;"/>
    </g>
    <g id="text_24">
     <!-- 3 -->
     <g transform="translate(405.779524 72.106535)scale(0.1 -0.1)">
      <use xlink:href="#DejaVuSans-33"/>
     </g>
    </g>
   </g>
  </g>
  <g id="axes_1">
   <g id="Path3DCollection_1">
    <defs>
     <path d="M 0 3.535534 
C 0.937635 3.535534 1.836992 3.163008 2.5 2.5 
C 3.163008 1.836992 3.535534 0.937635 3.535534 0 
C 3.535534 -0.937635 3.163008 -1.836992 2.5 -2.5 
C 1.836992 -3.163008 0.937635 -3.535534 0 -3.535534 
C -0.937635 -3.535534 -1.836992 -3.163008 -2.5 -2.5 
C -3.163008 -1.836992 -3.535534 -0.937635 -3.535534 0 
C -3.535534 0.937635 -3.163008 1.836992 -2.5 2.5 
C -1.836992 3.163008 -0.937635 3.535534 0 3.535534 
z
" id="C0_0_91c4fe839f"/>
    </defs>
    <g clip-path="url(#p275c66cd17)">
     <use style="fill:#0000ff;fill-opacity:0.760079;stroke:#0000ff;stroke-opacity:0.760079;" x="237.849926" xlink:href="#C0_0_91c4fe839f" y="159.614052"/>
    </g>
    <g clip-path="url(#p275c66cd17)">
     <use style="fill:#0000ff;fill-opacity:0.710548;stroke:#0000ff;stroke-opacity:0.710548;" x="246.710852" xlink:href="#C0_0_91c4fe839f" y="158.617312"/>
    </g>
    <g clip-path="url(#p275c66cd17)">
     <use style="fill:#0000ff;fill-opacity:0.874509;stroke:#0000ff;stroke-opacity:0.874509;" x="280.307107" xlink:href="#C0_0_91c4fe839f" y="172.758074"/>
    </g>
    <g clip-path="url(#p275c66cd17)">
     <use style="fill:#0000ff;fill-opacity:0.6593;stroke:#0000ff;stroke-opacity:0.6593;" x="262.41129" xlink:href="#C0_0_91c4fe839f" y="173.624318"/>
    </g>
    <g clip-path="url(#p275c66cd17)">
     <use style="fill:#0000ff;fill-opacity:0.677338;stroke:#0000ff;stroke-opacity:0.677338;" x="269.551849" xlink:href="#C0_0_91c4fe839f" y="161.052812"/>
    </g>
    <g clip-path="url(#p275c66cd17)">
     <use style="fill:#0000ff;fill-opacity:0.732622;stroke:#0000ff;stroke-opacity:0.732622;" x="238.214667" xlink:href="#C0_0_91c4fe839f" y="169.681263"/>
    </g>
    <g clip-path="url(#p275c66cd17)">
     <use style="fill:#0000ff;fill-opacity:0.652692;stroke:#0000ff;stroke-opacity:0.652692;" x="280.613685" xlink:href="#C0_0_91c4fe839f" y="179.242629"/>
    </g>
    <g clip-path="url(#p275c66cd17)">
     <use style="fill:#0000ff;fill-opacity:0.535729;stroke:#0000ff;stroke-opacity:0.535729;" x="229.991981" xlink:href="#C0_0_91c4fe839f" y="159.635265"/>
    </g>
    <g clip-path="url(#p275c66cd17)">
     <use style="fill:#0000ff;fill-opacity:0.713025;stroke:#0000ff;stroke-opacity:0.713025;" x="273.600498" xlink:href="#C0_0_91c4fe839f" y="175.114954"/>
    </g>
    <g clip-path="url(#p275c66cd17)">
     <use style="fill:#0000ff;fill-opacity:0.837488;stroke:#0000ff;stroke-opacity:0.837488;" x="247.093093" xlink:href="#C0_0_91c4fe839f" y="163.565171"/>
    </g>
    <g clip-path="url(#p275c66cd17)">
     <use style="fill:#0000ff;fill-opacity:0.682873;stroke:#0000ff;stroke-opacity:0.682873;" x="258.18901" xlink:href="#C0_0_91c4fe839f" y="143.150491"/>
    </g>
    <g clip-path="url(#p275c66cd17)">
     <use style="fill:#0000ff;fill-opacity:0.5668;stroke:#0000ff;stroke-opacity:0.5668;" x="245.947579" xlink:href="#C0_0_91c4fe839f" y="129.240767"/>
    </g>
    <g clip-path="url(#p275c66cd17)">
     <use style="fill:#0000ff;fill-opacity:0.935899;stroke:#0000ff;stroke-opacity:0.935899;" x="266.045241" xlink:href="#C0_0_91c4fe839f" y="136.504224"/>
    </g>
    <g clip-path="url(#p275c66cd17)">
     <use style="fill:#0000ff;fill-opacity:0.754751;stroke:#0000ff;stroke-opacity:0.754751;" x="184.825254" xlink:href="#C0_0_91c4fe839f" y="147.984317"/>
    </g>
    <g clip-path="url(#p275c66cd17)">
     <use style="fill:#0000ff;fill-opacity:0.776286;stroke:#0000ff;stroke-opacity:0.776286;" x="253.433077" xlink:href="#C0_0_91c4fe839f" y="144.774553"/>
    </g>
    <g clip-path="url(#p275c66cd17)">
     <use style="fill:#0000ff;fill-opacity:0.851031;stroke:#0000ff;stroke-opacity:0.851031;" x="281.12149" xlink:href="#C0_0_91c4fe839f" y="160.97263"/>
    </g>
    <g clip-path="url(#p275c66cd17)">
     <use style="fill:#0000ff;fill-opacity:0.807903;stroke:#0000ff;stroke-opacity:0.807903;" x="252.721836" xlink:href="#C0_0_91c4fe839f" y="130.119724"/>
    </g>
    <g clip-path="url(#p275c66cd17)">
     <use style="fill:#0000ff;fill-opacity:0.732691;stroke:#0000ff;stroke-opacity:0.732691;" x="196.522219" xlink:href="#C0_0_91c4fe839f" y="128.994427"/>
    </g>
    <g clip-path="url(#p275c66cd17)">
     <use style="fill:#0000ff;fill-opacity:0.962504;stroke:#0000ff;stroke-opacity:0.962504;" x="266.325501" xlink:href="#C0_0_91c4fe839f" y="146.49911"/>
    </g>
    <g clip-path="url(#p275c66cd17)">
     <use style="fill:#0000ff;fill-opacity:0.686597;stroke:#0000ff;stroke-opacity:0.686597;" x="222.385071" xlink:href="#C0_0_91c4fe839f" y="119.415124"/>
    </g>
    <g clip-path="url(#p275c66cd17)">
     <use style="fill:#0000ff;fill-opacity:0.779507;stroke:#0000ff;stroke-opacity:0.779507;" x="214.199786" xlink:href="#C0_0_91c4fe839f" y="130.791776"/>
    </g>
    <g clip-path="url(#p275c66cd17)">
     <use style="fill:#0000ff;fill-opacity:0.566661;stroke:#0000ff;stroke-opacity:0.566661;" x="207.388257" xlink:href="#C0_0_91c4fe839f" y="136.581165"/>
    </g>
    <g clip-path="url(#p275c66cd17)">
     <use style="fill:#0000ff;fill-opacity:0.906013;stroke:#0000ff;stroke-opacity:0.906013;" x="222.918586" xlink:href="#C0_0_91c4fe839f" y="151.945791"/>
    </g>
    <g clip-path="url(#p275c66cd17)">
     <use style="fill:#0000ff;stroke:#0000ff;" x="263.633544" xlink:href="#C0_0_91c4fe839f" y="88.64146"/>
    </g>
    <g clip-path="url(#p275c66cd17)">
     <use style="fill:#0000ff;fill-opacity:0.571325;stroke:#0000ff;stroke-opacity:0.571325;" x="171.470671" xlink:href="#C0_0_91c4fe839f" y="95.246233"/>
    </g>
    <g clip-path="url(#p275c66cd17)">
     <use style="fill:#0000ff;fill-opacity:0.3;stroke:#0000ff;stroke-opacity:0.3;" x="193.191741" xlink:href="#C0_0_91c4fe839f" y="106.192128"/>
    </g>
    <g clip-path="url(#p275c66cd17)">
     <use style="fill:#0000ff;fill-opacity:0.677213;stroke:#0000ff;stroke-opacity:0.677213;" x="224.08287" xlink:href="#C0_0_91c4fe839f" y="146.026645"/>
    </g>
    <g clip-path="url(#p275c66cd17)">
     <use style="fill:#0000ff;fill-opacity:0.66126;stroke:#0000ff;stroke-opacity:0.66126;" x="263.34183" xlink:href="#C0_0_91c4fe839f" y="171.375344"/>
    </g>
    <g clip-path="url(#p275c66cd17)">
     <use style="fill:#0000ff;fill-opacity:0.646845;stroke:#0000ff;stroke-opacity:0.646845;" x="218.613929" xlink:href="#C0_0_91c4fe839f" y="170.168964"/>
    </g>
    <g clip-path="url(#p275c66cd17)">
     <use style="fill:#0000ff;fill-opacity:0.704031;stroke:#0000ff;stroke-opacity:0.704031;" x="264.541379" xlink:href="#C0_0_91c4fe839f" y="169.920017"/>
    </g>
   </g>
   <g id="Path3DCollection_2">
    <defs>
     <path d="M 0 3.535534 
C 0.937635 3.535534 1.836992 3.163008 2.5 2.5 
C 3.163008 1.836992 3.535534 0.937635 3.535534 0 
C 3.535534 -0.937635 3.163008 -1.836992 2.5 -2.5 
C 1.836992 -3.163008 0.937635 -3.535534 0 -3.535534 
C -0.937635 -3.535534 -1.836992 -3.163008 -2.5 -2.5 
C -3.163008 -1.836992 -3.535534 -0.937635 -3.535534 0 
C -3.535534 0.937635 -3.163008 1.836992 -2.5 2.5 
C -1.836992 3.163008 -0.937635 3.535534 0 3.535534 
z
" id="C1_0_cd1f577300"/>
    </defs>
    <g clip-path="url(#p275c66cd17)">
     <use style="fill:#ff0000;stroke:#ff0000;" x="383.359639" xlink:href="#C1_0_cd1f577300" y="181.896709"/>
    </g>
    <g clip-path="url(#p275c66cd17)">
     <use style="fill:#ff0000;fill-opacity:0.3;stroke:#ff0000;stroke-opacity:0.3;" x="163.458632" xlink:href="#C1_0_cd1f577300" y="200.641961"/>
    </g>
    <g clip-path="url(#p275c66cd17)">
     <use style="fill:#ff0000;fill-opacity:0.62416;stroke:#ff0000;stroke-opacity:0.62416;" x="128.477636" xlink:href="#C1_0_cd1f577300" y="191.375366"/>
    </g>
    <g clip-path="url(#p275c66cd17)">
     <use style="fill:#ff0000;fill-opacity:0.674062;stroke:#ff0000;stroke-opacity:0.674062;" x="123.752231" xlink:href="#C1_0_cd1f577300" y="182.40153"/>
    </g>
    <g clip-path="url(#p275c66cd17)">
     <use style="fill:#ff0000;fill-opacity:0.475605;stroke:#ff0000;stroke-opacity:0.475605;" x="101.571505" xlink:href="#C1_0_cd1f577300" y="182.47101"/>
    </g>
    <g clip-path="url(#p275c66cd17)">
     <use style="fill:#ff0000;fill-opacity:0.363369;stroke:#ff0000;stroke-opacity:0.363369;" x="244.728062" xlink:href="#C1_0_cd1f577300" y="193.263327"/>
    </g>
    <g clip-path="url(#p275c66cd17)">
     <use style="fill:#ff0000;fill-opacity:0.352227;stroke:#ff0000;stroke-opacity:0.352227;" x="244.52597" xlink:href="#C1_0_cd1f577300" y="185.603389"/>
    </g>
    <g clip-path="url(#p275c66cd17)">
     <use style="fill:#ff0000;fill-opacity:0.577946;stroke:#ff0000;stroke-opacity:0.577946;" x="179.288706" xlink:href="#C1_0_cd1f577300" y="122.863429"/>
    </g>
    <g clip-path="url(#p275c66cd17)">
     <use style="fill:#ff0000;fill-opacity:0.391678;stroke:#ff0000;stroke-opacity:0.391678;" x="102.378992" xlink:href="#C1_0_cd1f577300" y="67.066793"/>
    </g>
    <g clip-path="url(#p275c66cd17)">
     <use style="fill:#ff0000;fill-opacity:0.912135;stroke:#ff0000;stroke-opacity:0.912135;" x="352.857295" xlink:href="#C1_0_cd1f577300" y="121.265618"/>
    </g>
    <g clip-path="url(#p275c66cd17)">
     <use style="fill:#ff0000;fill-opacity:0.571466;stroke:#ff0000;stroke-opacity:0.571466;" x="122.647417" xlink:href="#C1_0_cd1f577300" y="160.269217"/>
    </g>
    <g clip-path="url(#p275c66cd17)">
     <use style="fill:#ff0000;fill-opacity:0.518245;stroke:#ff0000;stroke-opacity:0.518245;" x="283.788227" xlink:href="#C1_0_cd1f577300" y="172.649205"/>
    </g>
    <g clip-path="url(#p275c66cd17)">
     <use style="fill:#ff0000;fill-opacity:0.417915;stroke:#ff0000;stroke-opacity:0.417915;" x="250.153131" xlink:href="#C1_0_cd1f577300" y="174.576996"/>
    </g>
    <g clip-path="url(#p275c66cd17)">
     <use style="fill:#ff0000;fill-opacity:0.522516;stroke:#ff0000;stroke-opacity:0.522516;" x="125.540262" xlink:href="#C1_0_cd1f577300" y="184.615509"/>
    </g>
    <g clip-path="url(#p275c66cd17)">
     <use style="fill:#ff0000;fill-opacity:0.927996;stroke:#ff0000;stroke-opacity:0.927996;" x="329.197962" xlink:href="#C1_0_cd1f577300" y="153.383026"/>
    </g>
    <g clip-path="url(#p275c66cd17)">
     <use style="fill:#ff0000;fill-opacity:0.695952;stroke:#ff0000;stroke-opacity:0.695952;" x="129.650736" xlink:href="#C1_0_cd1f577300" y="134.933273"/>
    </g>
    <g clip-path="url(#p275c66cd17)">
     <use style="fill:#ff0000;fill-opacity:0.849347;stroke:#ff0000;stroke-opacity:0.849347;" x="142.594902" xlink:href="#C1_0_cd1f577300" y="157.646668"/>
    </g>
   </g>
   <g id="Path3DCollection_3">
    <defs>
     <path d="M 0 3.535534 
C 0.937635 3.535534 1.836992 3.163008 2.5 2.5 
C 3.163008 1.836992 3.535534 0.937635 3.535534 0 
C 3.535534 -0.937635 3.163008 -1.836992 2.5 -2.5 
C 1.836992 -3.163008 0.937635 -3.535534 0 -3.535534 
C -0.937635 -3.535534 -1.836992 -3.163008 -2.5 -2.5 
C -3.163008 -1.836992 -3.535534 -0.937635 -3.535534 0 
C -3.535534 0.937635 -3.163008 1.836992 -2.5 2.5 
C -1.836992 3.163008 -0.937635 3.535534 0 3.535534 
z
" id="C2_0_d9cd1fe503"/>
    </defs>
    <g clip-path="url(#p275c66cd17)">
     <use style="fill:#008000;fill-opacity:0.3;stroke:#008000;stroke-opacity:0.3;" x="371.519903" xlink:href="#C2_0_d9cd1fe503" y="190.785601"/>
    </g>
    <g clip-path="url(#p275c66cd17)">
     <use style="fill:#008000;fill-opacity:0.330657;stroke:#008000;stroke-opacity:0.330657;" x="340.435198" xlink:href="#C2_0_d9cd1fe503" y="186.936186"/>
    </g>
    <g clip-path="url(#p275c66cd17)">
     <use style="fill:#008000;fill-opacity:0.569197;stroke:#008000;stroke-opacity:0.569197;" x="353.615711" xlink:href="#C2_0_d9cd1fe503" y="198.040115"/>
    </g>
    <g clip-path="url(#p275c66cd17)">
     <use style="fill:#008000;fill-opacity:0.672401;stroke:#008000;stroke-opacity:0.672401;" x="345.067753" xlink:href="#C2_0_d9cd1fe503" y="187.225447"/>
    </g>
    <g clip-path="url(#p275c66cd17)">
     <use style="fill:#008000;stroke:#008000;" x="422.940165" xlink:href="#C2_0_d9cd1fe503" y="193.182136"/>
    </g>
    <g clip-path="url(#p275c66cd17)">
     <use style="fill:#008000;fill-opacity:0.363906;stroke:#008000;stroke-opacity:0.363906;" x="353.176123" xlink:href="#C2_0_d9cd1fe503" y="174.660935"/>
    </g>
    <g clip-path="url(#p275c66cd17)">
     <use style="fill:#008000;fill-opacity:0.547837;stroke:#008000;stroke-opacity:0.547837;" x="301.003014" xlink:href="#C2_0_d9cd1fe503" y="176.229848"/>
    </g>
    <g clip-path="url(#p275c66cd17)">
     <use style="fill:#008000;fill-opacity:0.351188;stroke:#008000;stroke-opacity:0.351188;" x="276.705269" xlink:href="#C2_0_d9cd1fe503" y="193.504896"/>
    </g>
    <g clip-path="url(#p275c66cd17)">
     <use style="fill:#008000;fill-opacity:0.652497;stroke:#008000;stroke-opacity:0.652497;" x="348.819441" xlink:href="#C2_0_d9cd1fe503" y="205.689489"/>
    </g>
    <g clip-path="url(#p275c66cd17)">
     <use style="fill:#008000;fill-opacity:0.377953;stroke:#008000;stroke-opacity:0.377953;" x="365.811419" xlink:href="#C2_0_d9cd1fe503" y="186.619832"/>
    </g>
    <g clip-path="url(#p275c66cd17)">
     <use style="fill:#008000;fill-opacity:0.46575;stroke:#008000;stroke-opacity:0.46575;" x="317.80596" xlink:href="#C2_0_d9cd1fe503" y="163.591824"/>
    </g>
    <g clip-path="url(#p275c66cd17)">
     <use style="fill:#008000;fill-opacity:0.458939;stroke:#008000;stroke-opacity:0.458939;" x="274.181713" xlink:href="#C2_0_d9cd1fe503" y="152.464944"/>
    </g>
   </g>
   <g id="text_25">
    <!-- 3 Component PCA -->
    <defs>
     <path d="M 34.1875 63.1875 
L 20.796875 26.90625 
L 47.609375 26.90625 
z
M 28.609375 72.90625 
L 39.796875 72.90625 
L 67.578125 0 
L 57.328125 0 
L 50.6875 18.703125 
L 17.828125 18.703125 
L 11.1875 0 
L 0.78125 0 
z
" id="DejaVuSans-41"/>
    </defs>
    <g transform="translate(125.370312 17.04)scale(0.2 -0.2)">
     <use xlink:href="#DejaVuSans-33"/>
     <use x="63.623047" xlink:href="#DejaVuSans-20"/>
     <use x="95.410156" xlink:href="#DejaVuSans-43"/>
     <use x="165.234375" xlink:href="#DejaVuSans-6f"/>
     <use x="226.416016" xlink:href="#DejaVuSans-6d"/>
     <use x="323.828125" xlink:href="#DejaVuSans-70"/>
     <use x="387.304688" xlink:href="#DejaVuSans-6f"/>
     <use x="448.486328" xlink:href="#DejaVuSans-6e"/>
     <use x="511.865234" xlink:href="#DejaVuSans-65"/>
     <use x="573.388672" xlink:href="#DejaVuSans-6e"/>
     <use x="636.767578" xlink:href="#DejaVuSans-74"/>
     <use x="675.976562" xlink:href="#DejaVuSans-20"/>
     <use x="707.763672" xlink:href="#DejaVuSans-50"/>
     <use x="768.066406" xlink:href="#DejaVuSans-43"/>
     <use x="837.890625" xlink:href="#DejaVuSans-41"/>
    </g>
   </g>
   <g id="legend_1">
    <g id="patch_6">
     <path d="M 365.815625 52.034375 
L 425 52.034375 
Q 427 52.034375 427 50.034375 
L 427 7 
Q 427 5 425 5 
L 365.815625 5 
Q 363.815625 5 363.815625 7 
L 363.815625 50.034375 
Q 363.815625 52.034375 365.815625 52.034375 
z
" style="fill:#ffffff;opacity:0.8;stroke:#cccccc;stroke-linejoin:miter;"/>
    </g>
    <g id="Path3DCollection_4">
     <defs>
      <path d="M 0 3.535534 
C 0.937635 3.535534 1.836992 3.163008 2.5 2.5 
C 3.163008 1.836992 3.535534 0.937635 3.535534 0 
C 3.535534 -0.937635 3.163008 -1.836992 2.5 -2.5 
C 1.836992 -3.163008 0.937635 -3.535534 0 -3.535534 
C -0.937635 -3.535534 -1.836992 -3.163008 -2.5 -2.5 
C -3.163008 -1.836992 -3.535534 -0.937635 -3.535534 0 
C -3.535534 0.937635 -3.163008 1.836992 -2.5 2.5 
C -1.836992 3.163008 -0.937635 3.535534 0 3.535534 
z
" id="m33494da427" style="stroke:#ff0000;"/>
     </defs>
     <g>
      <use style="fill:#ff0000;stroke:#ff0000;" x="377.815625" xlink:href="#m33494da427" y="13.973437"/>
     </g>
    </g>
    <g id="text_26">
     <!-- NF -->
     <defs>
      <path d="M 9.8125 72.90625 
L 23.09375 72.90625 
L 55.421875 11.921875 
L 55.421875 72.90625 
L 64.984375 72.90625 
L 64.984375 0 
L 51.703125 0 
L 19.390625 60.984375 
L 19.390625 0 
L 9.8125 0 
z
" id="DejaVuSans-4e"/>
      <path d="M 9.8125 72.90625 
L 51.703125 72.90625 
L 51.703125 64.59375 
L 19.671875 64.59375 
L 19.671875 43.109375 
L 48.578125 43.109375 
L 48.578125 34.8125 
L 19.671875 34.8125 
L 19.671875 0 
L 9.8125 0 
z
" id="DejaVuSans-46"/>
     </defs>
     <g transform="translate(395.815625 16.598437)scale(0.1 -0.1)">
      <use xlink:href="#DejaVuSans-4e"/>
      <use x="74.804688" xlink:href="#DejaVuSans-46"/>
     </g>
    </g>
    <g id="Path3DCollection_5">
     <defs>
      <path d="M 0 3.535534 
C 0.937635 3.535534 1.836992 3.163008 2.5 2.5 
C 3.163008 1.836992 3.535534 0.937635 3.535534 0 
C 3.535534 -0.937635 3.163008 -1.836992 2.5 -2.5 
C 1.836992 -3.163008 0.937635 -3.535534 0 -3.535534 
C -0.937635 -3.535534 -1.836992 -3.163008 -2.5 -2.5 
C -3.163008 -1.836992 -3.535534 -0.937635 -3.535534 0 
C -3.535534 0.937635 -3.163008 1.836992 -2.5 2.5 
C -1.836992 3.163008 -0.937635 3.535534 0 3.535534 
z
" id="mf388fe11a2" style="stroke:#008000;"/>
     </defs>
     <g>
      <use style="fill:#008000;stroke:#008000;" x="377.815625" xlink:href="#mf388fe11a2" y="28.651563"/>
     </g>
    </g>
    <g id="text_27">
     <!-- PV+ -->
     <defs>
      <path d="M 28.609375 0 
L 0.78125 72.90625 
L 11.078125 72.90625 
L 34.1875 11.53125 
L 57.328125 72.90625 
L 67.578125 72.90625 
L 39.796875 0 
z
" id="DejaVuSans-56"/>
      <path d="M 46 62.703125 
L 46 35.5 
L 73.1875 35.5 
L 73.1875 27.203125 
L 46 27.203125 
L 46 0 
L 37.796875 0 
L 37.796875 27.203125 
L 10.59375 27.203125 
L 10.59375 35.5 
L 37.796875 35.5 
L 37.796875 62.703125 
z
" id="DejaVuSans-2b"/>
     </defs>
     <g transform="translate(395.815625 31.276563)scale(0.1 -0.1)">
      <use xlink:href="#DejaVuSans-50"/>
      <use x="60.302734" xlink:href="#DejaVuSans-56"/>
      <use x="128.710938" xlink:href="#DejaVuSans-2b"/>
     </g>
    </g>
    <g id="Path3DCollection_6">
     <defs>
      <path d="M 0 3.535534 
C 0.937635 3.535534 1.836992 3.163008 2.5 2.5 
C 3.163008 1.836992 3.535534 0.937635 3.535534 0 
C 3.535534 -0.937635 3.163008 -1.836992 2.5 -2.5 
C 1.836992 -3.163008 0.937635 -3.535534 0 -3.535534 
C -0.937635 -3.535534 -1.836992 -3.163008 -2.5 -2.5 
C -3.163008 -1.836992 -3.535534 -0.937635 -3.535534 0 
C -3.535534 0.937635 -3.163008 1.836992 -2.5 2.5 
C -1.836992 3.163008 -0.937635 3.535534 0 3.535534 
z
" id="mf8c8732569" style="stroke:#0000ff;"/>
     </defs>
     <g>
      <use style="fill:#0000ff;stroke:#0000ff;" x="377.815625" xlink:href="#mf8c8732569" y="43.329687"/>
     </g>
    </g>
    <g id="text_28">
     <!-- SST+ -->
     <defs>
      <path d="M 53.515625 70.515625 
L 53.515625 60.890625 
Q 47.90625 63.578125 42.921875 64.890625 
Q 37.9375 66.21875 33.296875 66.21875 
Q 25.25 66.21875 20.875 63.09375 
Q 16.5 59.96875 16.5 54.203125 
Q 16.5 49.359375 19.40625 46.890625 
Q 22.3125 44.4375 30.421875 42.921875 
L 36.375 41.703125 
Q 47.40625 39.59375 52.65625 34.296875 
Q 57.90625 29 57.90625 20.125 
Q 57.90625 9.515625 50.796875 4.046875 
Q 43.703125 -1.421875 29.984375 -1.421875 
Q 24.8125 -1.421875 18.96875 -0.25 
Q 13.140625 0.921875 6.890625 3.21875 
L 6.890625 13.375 
Q 12.890625 10.015625 18.65625 8.296875 
Q 24.421875 6.59375 29.984375 6.59375 
Q 38.421875 6.59375 43.015625 9.90625 
Q 47.609375 13.234375 47.609375 19.390625 
Q 47.609375 24.75 44.3125 27.78125 
Q 41.015625 30.8125 33.5 32.328125 
L 27.484375 33.5 
Q 16.453125 35.6875 11.515625 40.375 
Q 6.59375 45.0625 6.59375 53.421875 
Q 6.59375 63.09375 13.40625 68.65625 
Q 20.21875 74.21875 32.171875 74.21875 
Q 37.3125 74.21875 42.625 73.28125 
Q 47.953125 72.359375 53.515625 70.515625 
z
" id="DejaVuSans-53"/>
      <path d="M -0.296875 72.90625 
L 61.375 72.90625 
L 61.375 64.59375 
L 35.5 64.59375 
L 35.5 0 
L 25.59375 0 
L 25.59375 64.59375 
L -0.296875 64.59375 
z
" id="DejaVuSans-54"/>
     </defs>
     <g transform="translate(395.815625 45.954687)scale(0.1 -0.1)">
      <use xlink:href="#DejaVuSans-53"/>
      <use x="63.476562" xlink:href="#DejaVuSans-53"/>
      <use x="126.953125" xlink:href="#DejaVuSans-54"/>
      <use x="188.037109" xlink:href="#DejaVuSans-2b"/>
     </g>
    </g>
   </g>
  </g>
 </g>
 <defs>
  <clipPath id="p275c66cd17">
   <rect height="288" width="432" x="0" y="0"/>
  </clipPath>
 </defs>
</svg>
