<?xml version="1.0" encoding="utf-8" standalone="no"?>
<!DOCTYPE svg PUBLIC "-//W3C//DTD SVG 1.1//EN"
  "http://www.w3.org/Graphics/SVG/1.1/DTD/svg11.dtd">
<!-- Created with matplotlib (http://matplotlib.org/) -->
<svg height="360pt" version="1.1" viewBox="0 0 360 360" width="360pt" xmlns="http://www.w3.org/2000/svg" xmlns:xlink="http://www.w3.org/1999/xlink">
 <defs>
  <style type="text/css">
*{stroke-linecap:butt;stroke-linejoin:round;}
  </style>
 </defs>
 <g id="figure_1">
  <g id="patch_1">
   <path d="M 0 360 
L 360 360 
L 360 0 
L 0 0 
z
" style="fill:#ffffff;"/>
  </g>
  <g id="patch_2">
   <path d="M 0 360 
L 360 360 
L 360 0 
L 0 0 
z
" style="fill:#ffffff;"/>
  </g>
  <g id="pane3d_1">
   <g id="patch_3">
    <path d="M 47.723563 280.452687 
L 150.757447 192.188844 
L 149.042042 23.531127 
L 40.263344 102.834375 
" style="fill:#f2f2f2;opacity:0.5;stroke:#f2f2f2;stroke-linejoin:miter;"/>
   </g>
  </g>
  <g id="pane3d_2">
   <g id="patch_4">
    <path d="M 150.757447 192.188844 
L 317.662651 241.534028 
L 324.645765 67.790506 
L 149.042042 23.531127 
" style="fill:#e6e6e6;opacity:0.5;stroke:#e6e6e6;stroke-linejoin:miter;"/>
   </g>
  </g>
  <g id="pane3d_3">
   <g id="patch_5">
    <path d="M 47.723563 280.452687 
L 223.330391 337.923194 
L 317.662651 241.534028 
L 150.757447 192.188844 
" style="fill:#ececec;opacity:0.5;stroke:#ececec;stroke-linejoin:miter;"/>
   </g>
  </g>
  <g id="axis3d_1">
   <g id="line2d_1">
    <path d="M 47.723563 280.452687 
L 223.330391 337.923194 
" style="fill:none;stroke:#000000;stroke-linecap:square;stroke-width:0.8;"/>
   </g>
   <g id="text_1">
    <!-- Principal Component 1 -->
    <defs>
     <path d="M 19.671875 64.796875 
L 19.671875 37.40625 
L 32.078125 37.40625 
Q 38.96875 37.40625 42.71875 40.96875 
Q 46.484375 44.53125 46.484375 51.125 
Q 46.484375 57.671875 42.71875 61.234375 
Q 38.96875 64.796875 32.078125 64.796875 
z
M 9.8125 72.90625 
L 32.078125 72.90625 
Q 44.34375 72.90625 50.609375 67.359375 
Q 56.890625 61.8125 56.890625 51.125 
Q 56.890625 40.328125 50.609375 34.8125 
Q 44.34375 29.296875 32.078125 29.296875 
L 19.671875 29.296875 
L 19.671875 0 
L 9.8125 0 
z
" id="DejaVuSans-50"/>
     <path d="M 41.109375 46.296875 
Q 39.59375 47.171875 37.8125 47.578125 
Q 36.03125 48 33.890625 48 
Q 26.265625 48 22.1875 43.046875 
Q 18.109375 38.09375 18.109375 28.8125 
L 18.109375 0 
L 9.078125 0 
L 9.078125 54.6875 
L 18.109375 54.6875 
L 18.109375 46.1875 
Q 20.953125 51.171875 25.484375 53.578125 
Q 30.03125 56 36.53125 56 
Q 37.453125 56 38.578125 55.875 
Q 39.703125 55.765625 41.0625 55.515625 
z
" id="DejaVuSans-72"/>
     <path d="M 9.421875 54.6875 
L 18.40625 54.6875 
L 18.40625 0 
L 9.421875 0 
z
M 9.421875 75.984375 
L 18.40625 75.984375 
L 18.40625 64.59375 
L 9.421875 64.59375 
z
" id="DejaVuSans-69"/>
     <path d="M 54.890625 33.015625 
L 54.890625 0 
L 45.90625 0 
L 45.90625 32.71875 
Q 45.90625 40.484375 42.875 44.328125 
Q 39.84375 48.1875 33.796875 48.1875 
Q 26.515625 48.1875 22.3125 43.546875 
Q 18.109375 38.921875 18.109375 30.90625 
L 18.109375 0 
L 9.078125 0 
L 9.078125 54.6875 
L 18.109375 54.6875 
L 18.109375 46.1875 
Q 21.34375 51.125 25.703125 53.5625 
Q 30.078125 56 35.796875 56 
Q 45.21875 56 50.046875 50.171875 
Q 54.890625 44.34375 54.890625 33.015625 
z
" id="DejaVuSans-6e"/>
     <path d="M 48.78125 52.59375 
L 48.78125 44.1875 
Q 44.96875 46.296875 41.140625 47.34375 
Q 37.3125 48.390625 33.40625 48.390625 
Q 24.65625 48.390625 19.8125 42.84375 
Q 14.984375 37.3125 14.984375 27.296875 
Q 14.984375 17.28125 19.8125 11.734375 
Q 24.65625 6.203125 33.40625 6.203125 
Q 37.3125 6.203125 41.140625 7.25 
Q 44.96875 8.296875 48.78125 10.40625 
L 48.78125 2.09375 
Q 45.015625 0.34375 40.984375 -0.53125 
Q 36.96875 -1.421875 32.421875 -1.421875 
Q 20.0625 -1.421875 12.78125 6.34375 
Q 5.515625 14.109375 5.515625 27.296875 
Q 5.515625 40.671875 12.859375 48.328125 
Q 20.21875 56 33.015625 56 
Q 37.15625 56 41.109375 55.140625 
Q 45.0625 54.296875 48.78125 52.59375 
z
" id="DejaVuSans-63"/>
     <path d="M 18.109375 8.203125 
L 18.109375 -20.796875 
L 9.078125 -20.796875 
L 9.078125 54.6875 
L 18.109375 54.6875 
L 18.109375 46.390625 
Q 20.953125 51.265625 25.265625 53.625 
Q 29.59375 56 35.59375 56 
Q 45.5625 56 51.78125 48.09375 
Q 58.015625 40.1875 58.015625 27.296875 
Q 58.015625 14.40625 51.78125 6.484375 
Q 45.5625 -1.421875 35.59375 -1.421875 
Q 29.59375 -1.421875 25.265625 0.953125 
Q 20.953125 3.328125 18.109375 8.203125 
z
M 48.6875 27.296875 
Q 48.6875 37.203125 44.609375 42.84375 
Q 40.53125 48.484375 33.40625 48.484375 
Q 26.265625 48.484375 22.1875 42.84375 
Q 18.109375 37.203125 18.109375 27.296875 
Q 18.109375 17.390625 22.1875 11.75 
Q 26.265625 6.109375 33.40625 6.109375 
Q 40.53125 6.109375 44.609375 11.75 
Q 48.6875 17.390625 48.6875 27.296875 
z
" id="DejaVuSans-70"/>
     <path d="M 34.28125 27.484375 
Q 23.390625 27.484375 19.1875 25 
Q 14.984375 22.515625 14.984375 16.5 
Q 14.984375 11.71875 18.140625 8.90625 
Q 21.296875 6.109375 26.703125 6.109375 
Q 34.1875 6.109375 38.703125 11.40625 
Q 43.21875 16.703125 43.21875 25.484375 
L 43.21875 27.484375 
z
M 52.203125 31.203125 
L 52.203125 0 
L 43.21875 0 
L 43.21875 8.296875 
Q 40.140625 3.328125 35.546875 0.953125 
Q 30.953125 -1.421875 24.3125 -1.421875 
Q 15.921875 -1.421875 10.953125 3.296875 
Q 6 8.015625 6 15.921875 
Q 6 25.140625 12.171875 29.828125 
Q 18.359375 34.515625 30.609375 34.515625 
L 43.21875 34.515625 
L 43.21875 35.40625 
Q 43.21875 41.609375 39.140625 45 
Q 35.0625 48.390625 27.6875 48.390625 
Q 23 48.390625 18.546875 47.265625 
Q 14.109375 46.140625 10.015625 43.890625 
L 10.015625 52.203125 
Q 14.9375 54.109375 19.578125 55.046875 
Q 24.21875 56 28.609375 56 
Q 40.484375 56 46.34375 49.84375 
Q 52.203125 43.703125 52.203125 31.203125 
z
" id="DejaVuSans-61"/>
     <path d="M 9.421875 75.984375 
L 18.40625 75.984375 
L 18.40625 0 
L 9.421875 0 
z
" id="DejaVuSans-6c"/>
     <path id="DejaVuSans-20"/>
     <path d="M 64.40625 67.28125 
L 64.40625 56.890625 
Q 59.421875 61.53125 53.78125 63.8125 
Q 48.140625 66.109375 41.796875 66.109375 
Q 29.296875 66.109375 22.65625 58.46875 
Q 16.015625 50.828125 16.015625 36.375 
Q 16.015625 21.96875 22.65625 14.328125 
Q 29.296875 6.6875 41.796875 6.6875 
Q 48.140625 6.6875 53.78125 8.984375 
Q 59.421875 11.28125 64.40625 15.921875 
L 64.40625 5.609375 
Q 59.234375 2.09375 53.4375 0.328125 
Q 47.65625 -1.421875 41.21875 -1.421875 
Q 24.65625 -1.421875 15.125 8.703125 
Q 5.609375 18.84375 5.609375 36.375 
Q 5.609375 53.953125 15.125 64.078125 
Q 24.65625 74.21875 41.21875 74.21875 
Q 47.75 74.21875 53.53125 72.484375 
Q 59.328125 70.75 64.40625 67.28125 
z
" id="DejaVuSans-43"/>
     <path d="M 30.609375 48.390625 
Q 23.390625 48.390625 19.1875 42.75 
Q 14.984375 37.109375 14.984375 27.296875 
Q 14.984375 17.484375 19.15625 11.84375 
Q 23.34375 6.203125 30.609375 6.203125 
Q 37.796875 6.203125 41.984375 11.859375 
Q 46.1875 17.53125 46.1875 27.296875 
Q 46.1875 37.015625 41.984375 42.703125 
Q 37.796875 48.390625 30.609375 48.390625 
z
M 30.609375 56 
Q 42.328125 56 49.015625 48.375 
Q 55.71875 40.765625 55.71875 27.296875 
Q 55.71875 13.875 49.015625 6.21875 
Q 42.328125 -1.421875 30.609375 -1.421875 
Q 18.84375 -1.421875 12.171875 6.21875 
Q 5.515625 13.875 5.515625 27.296875 
Q 5.515625 40.765625 12.171875 48.375 
Q 18.84375 56 30.609375 56 
z
" id="DejaVuSans-6f"/>
     <path d="M 52 44.1875 
Q 55.375 50.25 60.0625 53.125 
Q 64.75 56 71.09375 56 
Q 79.640625 56 84.28125 50.015625 
Q 88.921875 44.046875 88.921875 33.015625 
L 88.921875 0 
L 79.890625 0 
L 79.890625 32.71875 
Q 79.890625 40.578125 77.09375 44.375 
Q 74.3125 48.1875 68.609375 48.1875 
Q 61.625 48.1875 57.5625 43.546875 
Q 53.515625 38.921875 53.515625 30.90625 
L 53.515625 0 
L 44.484375 0 
L 44.484375 32.71875 
Q 44.484375 40.625 41.703125 44.40625 
Q 38.921875 48.1875 33.109375 48.1875 
Q 26.21875 48.1875 22.15625 43.53125 
Q 18.109375 38.875 18.109375 30.90625 
L 18.109375 0 
L 9.078125 0 
L 9.078125 54.6875 
L 18.109375 54.6875 
L 18.109375 46.1875 
Q 21.1875 51.21875 25.484375 53.609375 
Q 29.78125 56 35.6875 56 
Q 41.65625 56 45.828125 52.96875 
Q 50 49.953125 52 44.1875 
z
" id="DejaVuSans-6d"/>
     <path d="M 56.203125 29.59375 
L 56.203125 25.203125 
L 14.890625 25.203125 
Q 15.484375 15.921875 20.484375 11.0625 
Q 25.484375 6.203125 34.421875 6.203125 
Q 39.59375 6.203125 44.453125 7.46875 
Q 49.3125 8.734375 54.109375 11.28125 
L 54.109375 2.78125 
Q 49.265625 0.734375 44.1875 -0.34375 
Q 39.109375 -1.421875 33.890625 -1.421875 
Q 20.796875 -1.421875 13.15625 6.1875 
Q 5.515625 13.8125 5.515625 26.8125 
Q 5.515625 40.234375 12.765625 48.109375 
Q 20.015625 56 32.328125 56 
Q 43.359375 56 49.78125 48.890625 
Q 56.203125 41.796875 56.203125 29.59375 
z
M 47.21875 32.234375 
Q 47.125 39.59375 43.09375 43.984375 
Q 39.0625 48.390625 32.421875 48.390625 
Q 24.90625 48.390625 20.390625 44.140625 
Q 15.875 39.890625 15.1875 32.171875 
z
" id="DejaVuSans-65"/>
     <path d="M 18.3125 70.21875 
L 18.3125 54.6875 
L 36.8125 54.6875 
L 36.8125 47.703125 
L 18.3125 47.703125 
L 18.3125 18.015625 
Q 18.3125 11.328125 20.140625 9.421875 
Q 21.96875 7.515625 27.59375 7.515625 
L 36.8125 7.515625 
L 36.8125 0 
L 27.59375 0 
Q 17.1875 0 13.234375 3.875 
Q 9.28125 7.765625 9.28125 18.015625 
L 9.28125 47.703125 
L 2.6875 47.703125 
L 2.6875 54.6875 
L 9.28125 54.6875 
L 9.28125 70.21875 
z
" id="DejaVuSans-74"/>
     <path d="M 12.40625 8.296875 
L 28.515625 8.296875 
L 28.515625 63.921875 
L 10.984375 60.40625 
L 10.984375 69.390625 
L 28.421875 72.90625 
L 38.28125 72.90625 
L 38.28125 8.296875 
L 54.390625 8.296875 
L 54.390625 0 
L 12.40625 0 
z
" id="DejaVuSans-31"/>
    </defs>
    <g transform="translate(37.364636 322.142506)rotate(-341.878381)scale(0.15 -0.15)">
     <use xlink:href="#DejaVuSans-50"/>
     <use x="60.287109" xlink:href="#DejaVuSans-72"/>
     <use x="101.400391" xlink:href="#DejaVuSans-69"/>
     <use x="129.183594" xlink:href="#DejaVuSans-6e"/>
     <use x="192.5625" xlink:href="#DejaVuSans-63"/>
     <use x="247.542969" xlink:href="#DejaVuSans-69"/>
     <use x="275.326172" xlink:href="#DejaVuSans-70"/>
     <use x="338.802734" xlink:href="#DejaVuSans-61"/>
     <use x="400.082031" xlink:href="#DejaVuSans-6c"/>
     <use x="427.865234" xlink:href="#DejaVuSans-20"/>
     <use x="459.652344" xlink:href="#DejaVuSans-43"/>
     <use x="529.476562" xlink:href="#DejaVuSans-6f"/>
     <use x="590.658203" xlink:href="#DejaVuSans-6d"/>
     <use x="688.070312" xlink:href="#DejaVuSans-70"/>
     <use x="751.546875" xlink:href="#DejaVuSans-6f"/>
     <use x="812.728516" xlink:href="#DejaVuSans-6e"/>
     <use x="876.107422" xlink:href="#DejaVuSans-65"/>
     <use x="937.630859" xlink:href="#DejaVuSans-6e"/>
     <use x="1001.009766" xlink:href="#DejaVuSans-74"/>
     <use x="1040.21875" xlink:href="#DejaVuSans-20"/>
     <use x="1072.005859" xlink:href="#DejaVuSans-31"/>
    </g>
   </g>
   <g id="Line3DCollection_1">
    <path d="M 51.08178 281.551724 
L 153.959774 193.135606 
L 152.404073 24.378497 
" style="fill:none;stroke:#b0b0b0;stroke-width:0.8;"/>
    <path d="M 74.272373 289.141265 
L 176.062633 199.670271 
L 175.616881 30.229082 
" style="fill:none;stroke:#b0b0b0;stroke-width:0.8;"/>
    <path d="M 97.750954 296.825055 
L 198.420012 206.280185 
L 199.110609 36.15047 
" style="fill:none;stroke:#b0b0b0;stroke-width:0.8;"/>
    <path d="M 121.522919 304.60486 
L 221.036332 212.966654 
L 222.890387 42.143955 
" style="fill:none;stroke:#b0b0b0;stroke-width:0.8;"/>
    <path d="M 145.593803 312.482491 
L 243.916119 219.731016 
L 246.961471 48.210861 
" style="fill:none;stroke:#b0b0b0;stroke-width:0.8;"/>
    <path d="M 169.969279 320.459806 
L 267.064003 226.574641 
L 271.329248 54.352545 
" style="fill:none;stroke:#b0b0b0;stroke-width:0.8;"/>
    <path d="M 194.655165 328.538709 
L 290.484725 233.49893 
L 295.999236 60.5704 
" style="fill:none;stroke:#b0b0b0;stroke-width:0.8;"/>
    <path d="M 219.65743 336.721151 
L 314.183136 240.505317 
L 320.977093 66.86585 
" style="fill:none;stroke:#b0b0b0;stroke-width:0.8;"/>
   </g>
   <g id="xtick_1">
    <g id="line2d_2">
     <path d="M 51.968003 280.79008 
L 49.306034 283.077848 
" style="fill:none;stroke:#000000;stroke-linecap:square;stroke-width:0.8;"/>
    </g>
    <g id="text_2">
     <!-- −4 -->
     <defs>
      <path d="M 10.59375 35.5 
L 73.1875 35.5 
L 73.1875 27.203125 
L 10.59375 27.203125 
z
" id="DejaVuSans-2212"/>
      <path d="M 37.796875 64.3125 
L 12.890625 25.390625 
L 37.796875 25.390625 
z
M 35.203125 72.90625 
L 47.609375 72.90625 
L 47.609375 25.390625 
L 58.015625 25.390625 
L 58.015625 17.1875 
L 47.609375 17.1875 
L 47.609375 0 
L 37.796875 0 
L 37.796875 17.1875 
L 4.890625 17.1875 
L 4.890625 26.703125 
z
" id="DejaVuSans-34"/>
     </defs>
     <g transform="translate(37.325691 305.356365)scale(0.1 -0.1)">
      <use xlink:href="#DejaVuSans-2212"/>
      <use x="83.789062" xlink:href="#DejaVuSans-34"/>
     </g>
    </g>
   </g>
   <g id="xtick_2">
    <g id="line2d_3">
     <path d="M 75.149612 288.370195 
L 72.51461 290.686294 
" style="fill:none;stroke:#000000;stroke-linecap:square;stroke-width:0.8;"/>
    </g>
    <g id="text_3">
     <!-- −3 -->
     <defs>
      <path d="M 40.578125 39.3125 
Q 47.65625 37.796875 51.625 33 
Q 55.609375 28.21875 55.609375 21.1875 
Q 55.609375 10.40625 48.1875 4.484375 
Q 40.765625 -1.421875 27.09375 -1.421875 
Q 22.515625 -1.421875 17.65625 -0.515625 
Q 12.796875 0.390625 7.625 2.203125 
L 7.625 11.71875 
Q 11.71875 9.328125 16.59375 8.109375 
Q 21.484375 6.890625 26.8125 6.890625 
Q 36.078125 6.890625 40.9375 10.546875 
Q 45.796875 14.203125 45.796875 21.1875 
Q 45.796875 27.640625 41.28125 31.265625 
Q 36.765625 34.90625 28.71875 34.90625 
L 20.21875 34.90625 
L 20.21875 43.015625 
L 29.109375 43.015625 
Q 36.375 43.015625 40.234375 45.921875 
Q 44.09375 48.828125 44.09375 54.296875 
Q 44.09375 59.90625 40.109375 62.90625 
Q 36.140625 65.921875 28.71875 65.921875 
Q 24.65625 65.921875 20.015625 65.03125 
Q 15.375 64.15625 9.8125 62.3125 
L 9.8125 71.09375 
Q 15.4375 72.65625 20.34375 73.4375 
Q 25.25 74.21875 29.59375 74.21875 
Q 40.828125 74.21875 47.359375 69.109375 
Q 53.90625 64.015625 53.90625 55.328125 
Q 53.90625 49.265625 50.4375 45.09375 
Q 46.96875 40.921875 40.578125 39.3125 
z
" id="DejaVuSans-33"/>
     </defs>
     <g transform="translate(60.513831 313.058182)scale(0.1 -0.1)">
      <use xlink:href="#DejaVuSans-2212"/>
      <use x="83.789062" xlink:href="#DejaVuSans-33"/>
     </g>
    </g>
   </g>
   <g id="xtick_3">
    <g id="line2d_4">
     <path d="M 98.618916 296.044382 
L 96.011758 298.389341 
" style="fill:none;stroke:#000000;stroke-linecap:square;stroke-width:0.8;"/>
    </g>
    <g id="text_4">
     <!-- −2 -->
     <defs>
      <path d="M 19.1875 8.296875 
L 53.609375 8.296875 
L 53.609375 0 
L 7.328125 0 
L 7.328125 8.296875 
Q 12.9375 14.109375 22.625 23.890625 
Q 32.328125 33.6875 34.8125 36.53125 
Q 39.546875 41.84375 41.421875 45.53125 
Q 43.3125 49.21875 43.3125 52.78125 
Q 43.3125 58.59375 39.234375 62.25 
Q 35.15625 65.921875 28.609375 65.921875 
Q 23.96875 65.921875 18.8125 64.3125 
Q 13.671875 62.703125 7.8125 59.421875 
L 7.8125 69.390625 
Q 13.765625 71.78125 18.9375 73 
Q 24.125 74.21875 28.421875 74.21875 
Q 39.75 74.21875 46.484375 68.546875 
Q 53.21875 62.890625 53.21875 53.421875 
Q 53.21875 48.921875 51.53125 44.890625 
Q 49.859375 40.875 45.40625 35.40625 
Q 44.1875 33.984375 37.640625 27.21875 
Q 31.109375 20.453125 19.1875 8.296875 
z
" id="DejaVuSans-32"/>
     </defs>
     <g transform="translate(83.990389 320.855797)scale(0.1 -0.1)">
      <use xlink:href="#DejaVuSans-2212"/>
      <use x="83.789062" xlink:href="#DejaVuSans-32"/>
     </g>
    </g>
   </g>
   <g id="xtick_4">
    <g id="line2d_5">
     <path d="M 122.381304 303.814405 
L 119.802894 306.188767 
" style="fill:none;stroke:#000000;stroke-linecap:square;stroke-width:0.8;"/>
    </g>
    <g id="text_5">
     <!-- −1 -->
     <g transform="translate(107.76078 328.751007)scale(0.1 -0.1)">
      <use xlink:href="#DejaVuSans-2212"/>
      <use x="83.789062" xlink:href="#DejaVuSans-31"/>
     </g>
    </g>
   </g>
   <g id="xtick_5">
    <g id="line2d_6">
     <path d="M 146.4423 311.682069 
L 143.89357 314.086391 
" style="fill:none;stroke:#000000;stroke-linecap:square;stroke-width:0.8;"/>
    </g>
    <g id="text_6">
     <!-- 0 -->
     <defs>
      <path d="M 31.78125 66.40625 
Q 24.171875 66.40625 20.328125 58.90625 
Q 16.5 51.421875 16.5 36.375 
Q 16.5 21.390625 20.328125 13.890625 
Q 24.171875 6.390625 31.78125 6.390625 
Q 39.453125 6.390625 43.28125 13.890625 
Q 47.125 21.390625 47.125 36.375 
Q 47.125 51.421875 43.28125 58.90625 
Q 39.453125 66.40625 31.78125 66.40625 
z
M 31.78125 74.21875 
Q 44.046875 74.21875 50.515625 64.515625 
Q 56.984375 54.828125 56.984375 36.375 
Q 56.984375 17.96875 50.515625 8.265625 
Q 44.046875 -1.421875 31.78125 -1.421875 
Q 19.53125 -1.421875 13.0625 8.265625 
Q 6.59375 17.96875 6.59375 36.375 
Q 6.59375 54.828125 13.0625 64.515625 
Q 19.53125 74.21875 31.78125 74.21875 
z
" id="DejaVuSans-30"/>
     </defs>
     <g transform="translate(136.0204 336.745656)scale(0.1 -0.1)">
      <use xlink:href="#DejaVuSans-30"/>
     </g>
    </g>
   </g>
   <g id="xtick_6">
    <g id="line2d_7">
     <path d="M 170.807569 319.649227 
L 168.289479 322.084079 
" style="fill:none;stroke:#000000;stroke-linecap:square;stroke-width:0.8;"/>
    </g>
    <g id="text_7">
     <!-- 1 -->
     <g transform="translate(160.395253 344.841634)scale(0.1 -0.1)">
      <use xlink:href="#DejaVuSans-31"/>
     </g>
    </g>
   </g>
   <g id="xtick_7">
    <g id="line2d_8">
     <path d="M 195.482919 327.717777 
L 192.996459 330.183745 
" style="fill:none;stroke:#000000;stroke-linecap:square;stroke-width:0.8;"/>
    </g>
    <g id="text_8">
     <!-- 2 -->
     <g transform="translate(185.08102 353.040881)scale(0.1 -0.1)">
      <use xlink:href="#DejaVuSans-32"/>
     </g>
    </g>
   </g>
   <g id="xtick_8">
    <g id="line2d_9">
     <path d="M 220.474307 335.889668 
L 218.020498 338.387352 
" style="fill:none;stroke:#000000;stroke-linecap:square;stroke-width:0.8;"/>
    </g>
    <g id="text_9">
     <!-- 3 -->
     <g transform="translate(210.083688 361.345384)scale(0.1 -0.1)">
      <use xlink:href="#DejaVuSans-33"/>
     </g>
    </g>
   </g>
  </g>
  <g id="axis3d_2">
   <g id="line2d_10">
    <path d="M 317.662651 241.534028 
L 223.330391 337.923194 
" style="fill:none;stroke:#000000;stroke-linecap:square;stroke-width:0.8;"/>
   </g>
   <g id="text_10">
    <!-- Principal Component 3 -->
    <g transform="translate(238.940162 381.544906)rotate(-45.617904)scale(0.15 -0.15)">
     <use xlink:href="#DejaVuSans-50"/>
     <use x="60.287109" xlink:href="#DejaVuSans-72"/>
     <use x="101.400391" xlink:href="#DejaVuSans-69"/>
     <use x="129.183594" xlink:href="#DejaVuSans-6e"/>
     <use x="192.5625" xlink:href="#DejaVuSans-63"/>
     <use x="247.542969" xlink:href="#DejaVuSans-69"/>
     <use x="275.326172" xlink:href="#DejaVuSans-70"/>
     <use x="338.802734" xlink:href="#DejaVuSans-61"/>
     <use x="400.082031" xlink:href="#DejaVuSans-6c"/>
     <use x="427.865234" xlink:href="#DejaVuSans-20"/>
     <use x="459.652344" xlink:href="#DejaVuSans-43"/>
     <use x="529.476562" xlink:href="#DejaVuSans-6f"/>
     <use x="590.658203" xlink:href="#DejaVuSans-6d"/>
     <use x="688.070312" xlink:href="#DejaVuSans-70"/>
     <use x="751.546875" xlink:href="#DejaVuSans-6f"/>
     <use x="812.728516" xlink:href="#DejaVuSans-6e"/>
     <use x="876.107422" xlink:href="#DejaVuSans-65"/>
     <use x="937.630859" xlink:href="#DejaVuSans-6e"/>
     <use x="1001.009766" xlink:href="#DejaVuSans-74"/>
     <use x="1040.21875" xlink:href="#DejaVuSans-20"/>
     <use x="1072.005859" xlink:href="#DejaVuSans-33"/>
    </g>
   </g>
   <g id="Line3DCollection_2">
    <path d="M 53.923124 92.875946 
L 60.617887 269.406781 
L 235.170419 325.824995 
" style="fill:none;stroke:#b0b0b0;stroke-width:0.8;"/>
    <path d="M 66.231014 83.903089 
L 72.246884 259.444816 
L 245.840046 314.922718 
" style="fill:none;stroke:#b0b0b0;stroke-width:0.8;"/>
    <path d="M 78.32859 75.083559 
L 83.687161 249.644518 
L 256.328637 304.205424 
" style="fill:none;stroke:#b0b0b0;stroke-width:0.8;"/>
    <path d="M 90.221196 66.413458 
L 94.943275 240.001982 
L 266.640762 293.668445 
" style="fill:none;stroke:#b0b0b0;stroke-width:0.8;"/>
    <path d="M 101.913997 57.889021 
L 106.019639 230.513429 
L 276.780835 283.307268 
" style="fill:none;stroke:#b0b0b0;stroke-width:0.8;"/>
    <path d="M 113.411988 49.506608 
L 116.920524 221.1752 
L 286.753128 273.11753 
" style="fill:none;stroke:#b0b0b0;stroke-width:0.8;"/>
    <path d="M 124.719996 41.262698 
L 127.650067 211.983751 
L 296.561771 263.095011 
" style="fill:none;stroke:#b0b0b0;stroke-width:0.8;"/>
    <path d="M 135.842691 33.153887 
L 138.212277 202.935648 
L 306.210758 253.235628 
" style="fill:none;stroke:#b0b0b0;stroke-width:0.8;"/>
    <path d="M 146.784593 25.176881 
L 148.611037 194.027563 
L 315.703957 243.535431 
" style="fill:none;stroke:#b0b0b0;stroke-width:0.8;"/>
   </g>
   <g id="xtick_9">
    <g id="line2d_11">
     <path d="M 233.709845 325.352914 
L 238.094817 326.770209 
" style="fill:none;stroke:#000000;stroke-linecap:square;stroke-width:0.8;"/>
    </g>
    <g id="text_11">
     <!-- −3 -->
     <g transform="translate(238.831302 347.60234)scale(0.1 -0.1)">
      <use xlink:href="#DejaVuSans-2212"/>
      <use x="83.789062" xlink:href="#DejaVuSans-33"/>
     </g>
    </g>
   </g>
   <g id="xtick_10">
    <g id="line2d_12">
     <path d="M 244.388045 314.458679 
L 248.747252 315.851819 
" style="fill:none;stroke:#000000;stroke-linecap:square;stroke-width:0.8;"/>
    </g>
    <g id="text_12">
     <!-- −2 -->
     <g transform="translate(249.40193 336.583546)scale(0.1 -0.1)">
      <use xlink:href="#DejaVuSans-2212"/>
      <use x="83.789062" xlink:href="#DejaVuSans-32"/>
     </g>
    </g>
   </g>
   <g id="xtick_11">
    <g id="line2d_13">
     <path d="M 254.88513 303.749224 
L 259.21881 305.118822 
" style="fill:none;stroke:#000000;stroke-linecap:square;stroke-width:0.8;"/>
    </g>
    <g id="text_13">
     <!-- −1 -->
     <g transform="translate(259.793279 325.751632)scale(0.1 -0.1)">
      <use xlink:href="#DejaVuSans-2212"/>
      <use x="83.789062" xlink:href="#DejaVuSans-31"/>
     </g>
    </g>
   </g>
   <g id="xtick_12">
    <g id="line2d_14">
     <path d="M 265.205669 293.219886 
L 269.51406 294.566534 
" style="fill:none;stroke:#000000;stroke-linecap:square;stroke-width:0.8;"/>
    </g>
    <g id="text_14">
     <!-- 0 -->
     <g transform="translate(274.199715 315.101883)scale(0.1 -0.1)">
      <use xlink:href="#DejaVuSans-30"/>
     </g>
    </g>
   </g>
   <g id="xtick_13">
    <g id="line2d_15">
     <path d="M 275.354079 282.866161 
L 279.637417 284.190431 
" style="fill:none;stroke:#000000;stroke-linecap:square;stroke-width:0.8;"/>
    </g>
    <g id="text_15">
     <!-- 1 -->
     <g transform="translate(284.245923 304.629742)scale(0.1 -0.1)">
      <use xlink:href="#DejaVuSans-31"/>
     </g>
    </g>
   </g>
   <g id="xtick_14">
    <g id="line2d_16">
     <path d="M 285.334629 272.68369 
L 289.593152 273.986135 
" style="fill:none;stroke:#000000;stroke-linecap:square;stroke-width:0.8;"/>
    </g>
    <g id="text_16">
     <!-- 2 -->
     <g transform="translate(294.125974 294.330803)scale(0.1 -0.1)">
      <use xlink:href="#DejaVuSans-32"/>
     </g>
    </g>
   </g>
   <g id="xtick_15">
    <g id="line2d_17">
     <path d="M 295.151452 262.66826 
L 299.385393 263.949415 
" style="fill:none;stroke:#000000;stroke-linecap:square;stroke-width:0.8;"/>
    </g>
    <g id="text_17">
     <!-- 3 -->
     <g transform="translate(303.843956 284.200805)scale(0.1 -0.1)">
      <use xlink:href="#DejaVuSans-33"/>
     </g>
    </g>
   </g>
   <g id="xtick_16">
    <g id="line2d_18">
     <path d="M 304.808542 252.815794 
L 309.018134 254.076177 
" style="fill:none;stroke:#000000;stroke-linecap:square;stroke-width:0.8;"/>
    </g>
    <g id="text_18">
     <!-- 4 -->
     <g transform="translate(313.403824 274.235624)scale(0.1 -0.1)">
      <use xlink:href="#DejaVuSans-34"/>
     </g>
    </g>
   </g>
   <g id="xtick_17">
    <g id="line2d_19">
     <path d="M 314.309766 243.122347 
L 318.495241 244.362459 
" style="fill:none;stroke:#000000;stroke-linecap:square;stroke-width:0.8;"/>
    </g>
    <g id="text_19">
     <!-- 5 -->
     <defs>
      <path d="M 10.796875 72.90625 
L 49.515625 72.90625 
L 49.515625 64.59375 
L 19.828125 64.59375 
L 19.828125 46.734375 
Q 21.96875 47.46875 24.109375 47.828125 
Q 26.265625 48.1875 28.421875 48.1875 
Q 40.625 48.1875 47.75 41.5 
Q 54.890625 34.8125 54.890625 23.390625 
Q 54.890625 11.625 47.5625 5.09375 
Q 40.234375 -1.421875 26.90625 -1.421875 
Q 22.3125 -1.421875 17.546875 -0.640625 
Q 12.796875 0.140625 7.71875 1.703125 
L 7.71875 11.625 
Q 12.109375 9.234375 16.796875 8.0625 
Q 21.484375 6.890625 26.703125 6.890625 
Q 35.15625 6.890625 40.078125 11.328125 
Q 45.015625 15.765625 45.015625 23.390625 
Q 45.015625 31 40.078125 35.4375 
Q 35.15625 39.890625 26.703125 39.890625 
Q 22.75 39.890625 18.8125 39.015625 
Q 14.890625 38.140625 10.796875 36.28125 
z
" id="DejaVuSans-35"/>
     </defs>
     <g transform="translate(322.809406 264.43127)scale(0.1 -0.1)">
      <use xlink:href="#DejaVuSans-35"/>
     </g>
    </g>
   </g>
  </g>
  <g id="axis3d_3">
   <g id="line2d_20">
    <path d="M 317.662651 241.534028 
L 324.645765 67.790506 
" style="fill:none;stroke:#000000;stroke-linecap:square;stroke-width:0.8;"/>
   </g>
   <g id="Line3DCollection_3">
    <path d="M 318.527517 220.015707 
L 150.544586 171.260506 
L 46.800999 258.487625 
" style="fill:none;stroke:#b0b0b0;stroke-width:0.8;"/>
    <path d="M 319.595796 193.436364 
L 150.28182 145.425505 
L 45.66091 231.343546 
" style="fill:none;stroke:#b0b0b0;stroke-width:0.8;"/>
    <path d="M 320.681289 166.428735 
L 150.015 119.191851 
L 44.501835 203.747439 
" style="fill:none;stroke:#b0b0b0;stroke-width:0.8;"/>
    <path d="M 321.784415 138.982384 
L 149.74403 92.550245 
L 43.323295 175.687918 
" style="fill:none;stroke:#b0b0b0;stroke-width:0.8;"/>
    <path d="M 322.905607 111.086534 
L 149.468813 65.491097 
L 42.124797 147.153211 
" style="fill:none;stroke:#b0b0b0;stroke-width:0.8;"/>
    <path d="M 324.045313 82.73005 
L 149.189249 38.004514 
L 40.90583 118.131145 
" style="fill:none;stroke:#b0b0b0;stroke-width:0.8;"/>
   </g>
   <g id="xtick_18">
    <g id="line2d_21">
     <path d="M 317.125622 219.608822 
L 321.33424 220.830328 
" style="fill:none;stroke:#000000;stroke-linecap:square;stroke-width:0.8;"/>
    </g>
    <g id="text_20">
     <!-- −2 -->
     <g transform="translate(327.259555 225.334211)scale(0.1 -0.1)">
      <use xlink:href="#DejaVuSans-2212"/>
      <use x="83.789062" xlink:href="#DejaVuSans-32"/>
     </g>
    </g>
   </g>
   <g id="xtick_19">
    <g id="line2d_22">
     <path d="M 318.182325 193.035559 
L 322.425718 194.23882 
" style="fill:none;stroke:#000000;stroke-linecap:square;stroke-width:0.8;"/>
    </g>
    <g id="text_21">
     <!-- −1 -->
     <g transform="translate(328.454181 198.788962)scale(0.1 -0.1)">
      <use xlink:href="#DejaVuSans-2212"/>
      <use x="83.789062" xlink:href="#DejaVuSans-31"/>
     </g>
    </g>
   </g>
   <g id="xtick_20">
    <g id="line2d_23">
     <path d="M 319.25605 166.034259 
L 323.534796 167.218527 
" style="fill:none;stroke:#000000;stroke-linecap:square;stroke-width:0.8;"/>
    </g>
    <g id="text_22">
     <!-- 0 -->
     <g transform="translate(333.857863 171.816824)scale(0.1 -0.1)">
      <use xlink:href="#DejaVuSans-30"/>
     </g>
    </g>
   </g>
   <g id="xtick_21">
    <g id="line2d_24">
     <path d="M 320.347211 138.594496 
L 324.661903 139.758992 
" style="fill:none;stroke:#000000;stroke-linecap:square;stroke-width:0.8;"/>
    </g>
    <g id="text_23">
     <!-- 1 -->
     <g transform="translate(335.09138 144.407417)scale(0.1 -0.1)">
      <use xlink:href="#DejaVuSans-31"/>
     </g>
    </g>
   </g>
   <g id="xtick_22">
    <g id="line2d_25">
     <path d="M 321.456235 110.705503 
L 325.807483 111.849419 
" style="fill:none;stroke:#000000;stroke-linecap:square;stroke-width:0.8;"/>
    </g>
    <g id="text_24">
     <!-- 2 -->
     <g transform="translate(336.345058 116.55002)scale(0.1 -0.1)">
      <use xlink:href="#DejaVuSans-32"/>
     </g>
    </g>
   </g>
   <g id="xtick_23">
    <g id="line2d_26">
     <path d="M 322.583566 82.356157 
L 326.971992 83.478651 
" style="fill:none;stroke:#000000;stroke-linecap:square;stroke-width:0.8;"/>
    </g>
    <g id="text_25">
     <!-- 3 -->
     <g transform="translate(337.619395 88.233559)scale(0.1 -0.1)">
      <use xlink:href="#DejaVuSans-33"/>
     </g>
    </g>
   </g>
  </g>
  <g id="axes_1">
   <g id="Path3DCollection_1">
    <defs>
     <path d="M 0 3.535534 
C 0.937635 3.535534 1.836992 3.163008 2.5 2.5 
C 3.163008 1.836992 3.535534 0.937635 3.535534 0 
C 3.535534 -0.937635 3.163008 -1.836992 2.5 -2.5 
C 1.836992 -3.163008 0.937635 -3.535534 0 -3.535534 
C -0.937635 -3.535534 -1.836992 -3.163008 -2.5 -2.5 
C -3.163008 -1.836992 -3.535534 -0.937635 -3.535534 0 
C -3.535534 0.937635 -3.163008 1.836992 -2.5 2.5 
C -1.836992 3.163008 -0.937635 3.535534 0 3.535534 
z
" id="C0_0_942e8fabef"/>
    </defs>
    <g clip-path="url(#pecd4a8abc9)">
     <use style="fill:#0000ff;fill-opacity:0.75577;stroke:#0000ff;stroke-opacity:0.75577;" x="183.276517" xlink:href="#C0_0_942e8fabef" y="195.12864"/>
    </g>
    <g clip-path="url(#pecd4a8abc9)">
     <use style="fill:#0000ff;fill-opacity:0.703922;stroke:#0000ff;stroke-opacity:0.703922;" x="190.620385" xlink:href="#C0_0_942e8fabef" y="193.883961"/>
    </g>
    <g clip-path="url(#pecd4a8abc9)">
     <use style="fill:#0000ff;fill-opacity:0.862734;stroke:#0000ff;stroke-opacity:0.862734;" x="212.492766" xlink:href="#C0_0_942e8fabef" y="209.714368"/>
    </g>
    <g clip-path="url(#pecd4a8abc9)">
     <use style="fill:#0000ff;fill-opacity:0.64779;stroke:#0000ff;stroke-opacity:0.64779;" x="202.437426" xlink:href="#C0_0_942e8fabef" y="212.209778"/>
    </g>
    <g clip-path="url(#pecd4a8abc9)">
     <use style="fill:#0000ff;fill-opacity:0.665784;stroke:#0000ff;stroke-opacity:0.665784;" x="207.941322" xlink:href="#C0_0_942e8fabef" y="196.437012"/>
    </g>
    <g clip-path="url(#pecd4a8abc9)">
     <use style="fill:#0000ff;fill-opacity:0.727019;stroke:#0000ff;stroke-opacity:0.727019;" x="183.568112" xlink:href="#C0_0_942e8fabef" y="207.661213"/>
    </g>
    <g clip-path="url(#pecd4a8abc9)">
     <use style="fill:#0000ff;fill-opacity:0.637279;stroke:#0000ff;stroke-opacity:0.637279;" x="215.793131" xlink:href="#C0_0_942e8fabef" y="218.682928"/>
    </g>
    <g clip-path="url(#pecd4a8abc9)">
     <use style="fill:#0000ff;fill-opacity:0.529305;stroke:#0000ff;stroke-opacity:0.529305;" x="180.788775" xlink:href="#C0_0_942e8fabef" y="196.343241"/>
    </g>
    <g clip-path="url(#pecd4a8abc9)">
     <use style="fill:#0000ff;fill-opacity:0.700112;stroke:#0000ff;stroke-opacity:0.700112;" x="209.859049" xlink:href="#C0_0_942e8fabef" y="213.512402"/>
    </g>
    <g clip-path="url(#pecd4a8abc9)">
     <use style="fill:#0000ff;fill-opacity:0.832243;stroke:#0000ff;stroke-opacity:0.832243;" x="188.820257" xlink:href="#C0_0_942e8fabef" y="199.421285"/>
    </g>
    <g clip-path="url(#pecd4a8abc9)">
     <use style="fill:#0000ff;fill-opacity:0.67494;stroke:#0000ff;stroke-opacity:0.67494;" x="200.135845" xlink:href="#C0_0_942e8fabef" y="174.62066"/>
    </g>
    <g clip-path="url(#pecd4a8abc9)">
     <use style="fill:#0000ff;fill-opacity:0.560384;stroke:#0000ff;stroke-opacity:0.560384;" x="193.33441" xlink:href="#C0_0_942e8fabef" y="158.25359"/>
    </g>
    <g clip-path="url(#pecd4a8abc9)">
     <use style="fill:#0000ff;fill-opacity:0.93062;stroke:#0000ff;stroke-opacity:0.93062;" x="202.427108" xlink:href="#C0_0_942e8fabef" y="165.1397"/>
    </g>
    <g clip-path="url(#pecd4a8abc9)">
     <use style="fill:#0000ff;fill-opacity:0.761232;stroke:#0000ff;stroke-opacity:0.761232;" x="144.44731" xlink:href="#C0_0_942e8fabef" y="182.170207"/>
    </g>
    <g clip-path="url(#pecd4a8abc9)">
     <use style="fill:#0000ff;fill-opacity:0.770501;stroke:#0000ff;stroke-opacity:0.770501;" x="195.154135" xlink:href="#C0_0_942e8fabef" y="176.345051"/>
    </g>
    <g clip-path="url(#pecd4a8abc9)">
     <use style="fill:#0000ff;fill-opacity:0.839759;stroke:#0000ff;stroke-opacity:0.839759;" x="213.903277" xlink:href="#C0_0_942e8fabef" y="195.275955"/>
    </g>
    <g clip-path="url(#pecd4a8abc9)">
     <use style="fill:#0000ff;fill-opacity:0.803903;stroke:#0000ff;stroke-opacity:0.803903;" x="194.720964" xlink:href="#C0_0_942e8fabef" y="158.146058"/>
    </g>
    <g clip-path="url(#pecd4a8abc9)">
     <use style="fill:#0000ff;fill-opacity:0.738162;stroke:#0000ff;stroke-opacity:0.738162;" x="154.190057" xlink:href="#C0_0_942e8fabef" y="158.497278"/>
    </g>
    <g clip-path="url(#pecd4a8abc9)">
     <use style="fill:#0000ff;fill-opacity:0.95669;stroke:#0000ff;stroke-opacity:0.95669;" x="201.850732" xlink:href="#C0_0_942e8fabef" y="177.339089"/>
    </g>
    <g clip-path="url(#pecd4a8abc9)">
     <use style="fill:#0000ff;fill-opacity:0.68727;stroke:#0000ff;stroke-opacity:0.68727;" x="174.445891" xlink:href="#C0_0_942e8fabef" y="146.202199"/>
    </g>
    <g clip-path="url(#pecd4a8abc9)">
     <use style="fill:#0000ff;fill-opacity:0.782268;stroke:#0000ff;stroke-opacity:0.782268;" x="166.553898" xlink:href="#C0_0_942e8fabef" y="160.071383"/>
    </g>
    <g clip-path="url(#pecd4a8abc9)">
     <use style="fill:#0000ff;fill-opacity:0.566716;stroke:#0000ff;stroke-opacity:0.566716;" x="164.432241" xlink:href="#C0_0_942e8fabef" y="168.306112"/>
    </g>
    <g clip-path="url(#pecd4a8abc9)">
     <use style="fill:#0000ff;fill-opacity:0.907275;stroke:#0000ff;stroke-opacity:0.907275;" x="170.333113" xlink:href="#C0_0_942e8fabef" y="185.419666"/>
    </g>
    <g clip-path="url(#pecd4a8abc9)">
     <use style="fill:#0000ff;stroke:#0000ff;" x="201.533875" xlink:href="#C0_0_942e8fabef" y="105.903306"/>
    </g>
    <g clip-path="url(#pecd4a8abc9)">
     <use style="fill:#0000ff;fill-opacity:0.581331;stroke:#0000ff;stroke-opacity:0.581331;" x="139.235298" xlink:href="#C0_0_942e8fabef" y="118.043885"/>
    </g>
    <g clip-path="url(#pecd4a8abc9)">
     <use style="fill:#0000ff;fill-opacity:0.3;stroke:#0000ff;stroke-opacity:0.3;" x="159.000382" xlink:href="#C0_0_942e8fabef" y="132.183197"/>
    </g>
    <g clip-path="url(#pecd4a8abc9)">
     <use style="fill:#0000ff;fill-opacity:0.675281;stroke:#0000ff;stroke-opacity:0.675281;" x="174.822226" xlink:href="#C0_0_942e8fabef" y="179.073192"/>
    </g>
    <g clip-path="url(#pecd4a8abc9)">
     <use style="fill:#0000ff;fill-opacity:0.649787;stroke:#0000ff;stroke-opacity:0.649787;" x="203.184225" xlink:href="#C0_0_942e8fabef" y="209.402655"/>
    </g>
    <g clip-path="url(#pecd4a8abc9)">
     <use style="fill:#0000ff;fill-opacity:0.643503;stroke:#0000ff;stroke-opacity:0.643503;" x="170.287629" xlink:href="#C0_0_942e8fabef" y="209.161417"/>
    </g>
    <g clip-path="url(#pecd4a8abc9)">
     <use style="fill:#0000ff;fill-opacity:0.693087;stroke:#0000ff;stroke-opacity:0.693087;" x="203.488928" xlink:href="#C0_0_942e8fabef" y="207.386875"/>
    </g>
   </g>
   <g id="Path3DCollection_2">
    <defs>
     <path d="M 0 3.535534 
C 0.937635 3.535534 1.836992 3.163008 2.5 2.5 
C 3.163008 1.836992 3.535534 0.937635 3.535534 0 
C 3.535534 -0.937635 3.163008 -1.836992 2.5 -2.5 
C 1.836992 -3.163008 0.937635 -3.535534 0 -3.535534 
C -0.937635 -3.535534 -1.836992 -3.163008 -2.5 -2.5 
C -3.163008 -1.836992 -3.535534 -0.937635 -3.535534 0 
C -3.535534 0.937635 -3.163008 1.836992 -2.5 2.5 
C -1.836992 3.163008 -0.937635 3.535534 0 3.535534 
z
" id="C1_0_f9b2997c83"/>
    </defs>
    <g clip-path="url(#pecd4a8abc9)">
     <use style="fill:#ff0000;stroke:#ff0000;" x="284.871175" xlink:href="#C1_0_f9b2997c83" y="217.269158"/>
    </g>
    <g clip-path="url(#pecd4a8abc9)">
     <use style="fill:#ff0000;fill-opacity:0.3;stroke:#ff0000;stroke-opacity:0.3;" x="129.65583" xlink:href="#C1_0_f9b2997c83" y="248.755709"/>
    </g>
    <g clip-path="url(#pecd4a8abc9)">
     <use style="fill:#ff0000;fill-opacity:0.660518;stroke:#ff0000;stroke-opacity:0.660518;" x="100.262187" xlink:href="#C1_0_f9b2997c83" y="237.101141"/>
    </g>
    <g clip-path="url(#pecd4a8abc9)">
     <use style="fill:#ff0000;fill-opacity:0.716687;stroke:#ff0000;stroke-opacity:0.716687;" x="96.51358" xlink:href="#C1_0_f9b2997c83" y="225.960108"/>
    </g>
    <g clip-path="url(#pecd4a8abc9)">
     <use style="fill:#ff0000;fill-opacity:0.50765;stroke:#ff0000;stroke-opacity:0.50765;" x="82.233902" xlink:href="#C1_0_f9b2997c83" y="227.341314"/>
    </g>
    <g clip-path="url(#pecd4a8abc9)">
     <use style="fill:#ff0000;fill-opacity:0.349043;stroke:#ff0000;stroke-opacity:0.349043;" x="189.558549" xlink:href="#C1_0_f9b2997c83" y="237.203496"/>
    </g>
    <g clip-path="url(#pecd4a8abc9)">
     <use style="fill:#ff0000;fill-opacity:0.337887;stroke:#ff0000;stroke-opacity:0.337887;" x="189.833848" xlink:href="#C1_0_f9b2997c83" y="227.797516"/>
    </g>
    <g clip-path="url(#pecd4a8abc9)">
     <use style="fill:#ff0000;fill-opacity:0.605134;stroke:#ff0000;stroke-opacity:0.605134;" x="141.197897" xlink:href="#C1_0_f9b2997c83" y="151.233546"/>
    </g>
    <g clip-path="url(#pecd4a8abc9)">
     <use style="fill:#ff0000;fill-opacity:0.429154;stroke:#ff0000;stroke-opacity:0.429154;" x="88.138228" xlink:href="#C1_0_f9b2997c83" y="84.601686"/>
    </g>
    <g clip-path="url(#pecd4a8abc9)">
     <use style="fill:#ff0000;fill-opacity:0.920561;stroke:#ff0000;stroke-opacity:0.920561;" x="265.836696" xlink:href="#C1_0_f9b2997c83" y="143.826496"/>
    </g>
    <g clip-path="url(#pecd4a8abc9)">
     <use style="fill:#ff0000;fill-opacity:0.608484;stroke:#ff0000;stroke-opacity:0.608484;" x="97.693713" xlink:href="#C1_0_f9b2997c83" y="198.975763"/>
    </g>
    <g clip-path="url(#pecd4a8abc9)">
     <use style="fill:#ff0000;fill-opacity:0.508604;stroke:#ff0000;stroke-opacity:0.508604;" x="217.470907" xlink:href="#C1_0_f9b2997c83" y="210.19681"/>
    </g>
    <g clip-path="url(#pecd4a8abc9)">
     <use style="fill:#ff0000;fill-opacity:0.408613;stroke:#ff0000;stroke-opacity:0.408613;" x="193.665195" xlink:href="#C1_0_f9b2997c83" y="213.813007"/>
    </g>
    <g clip-path="url(#pecd4a8abc9)">
     <use style="fill:#ff0000;fill-opacity:0.552089;stroke:#ff0000;stroke-opacity:0.552089;" x="99.4875" xlink:href="#C1_0_f9b2997c83" y="229.182619"/>
    </g>
    <g clip-path="url(#pecd4a8abc9)">
     <use style="fill:#ff0000;fill-opacity:0.940163;stroke:#ff0000;stroke-opacity:0.940163;" x="246.951341" xlink:href="#C1_0_f9b2997c83" y="183.88827"/>
    </g>
    <g clip-path="url(#pecd4a8abc9)">
     <use style="fill:#ff0000;fill-opacity:0.744148;stroke:#ff0000;stroke-opacity:0.744148;" x="102.449597" xlink:href="#C1_0_f9b2997c83" y="167.029095"/>
    </g>
    <g clip-path="url(#pecd4a8abc9)">
     <use style="fill:#ff0000;fill-opacity:0.903939;stroke:#ff0000;stroke-opacity:0.903939;" x="109.477003" xlink:href="#C1_0_f9b2997c83" y="194.258433"/>
    </g>
   </g>
   <g id="Path3DCollection_3">
    <defs>
     <path d="M 0 3.535534 
C 0.937635 3.535534 1.836992 3.163008 2.5 2.5 
C 3.163008 1.836992 3.535534 0.937635 3.535534 0 
C 3.535534 -0.937635 3.163008 -1.836992 2.5 -2.5 
C 1.836992 -3.163008 0.937635 -3.535534 0 -3.535534 
C -0.937635 -3.535534 -1.836992 -3.163008 -2.5 -2.5 
C -3.163008 -1.836992 -3.535534 -0.937635 -3.535534 0 
C -3.535534 0.937635 -3.163008 1.836992 -2.5 2.5 
C -1.836992 3.163008 -0.937635 3.535534 0 3.535534 
z
" id="C2_0_015ed6503d"/>
    </defs>
    <g clip-path="url(#pecd4a8abc9)">
     <use style="fill:#008000;fill-opacity:0.3;stroke:#008000;stroke-opacity:0.3;" x="279.861711" xlink:href="#C2_0_015ed6503d" y="229.694909"/>
    </g>
    <g clip-path="url(#pecd4a8abc9)">
     <use style="fill:#008000;fill-opacity:0.341578;stroke:#008000;stroke-opacity:0.341578;" x="256.820247" xlink:href="#C2_0_015ed6503d" y="225.709801"/>
    </g>
    <g clip-path="url(#pecd4a8abc9)">
     <use style="fill:#008000;fill-opacity:0.58065;stroke:#008000;stroke-opacity:0.58065;" x="263.874712" xlink:href="#C2_0_015ed6503d" y="238.344076"/>
    </g>
    <g clip-path="url(#pecd4a8abc9)">
     <use style="fill:#008000;fill-opacity:0.690601;stroke:#008000;stroke-opacity:0.690601;" x="257.039035" xlink:href="#C2_0_015ed6503d" y="224.998709"/>
    </g>
    <g clip-path="url(#pecd4a8abc9)">
     <use style="fill:#008000;stroke:#008000;" x="310.984848" xlink:href="#C2_0_015ed6503d" y="229.324171"/>
    </g>
    <g clip-path="url(#pecd4a8abc9)">
     <use style="fill:#008000;fill-opacity:0.373404;stroke:#008000;stroke-opacity:0.373404;" x="266.383155" xlink:href="#C2_0_015ed6503d" y="210.182448"/>
    </g>
    <g clip-path="url(#pecd4a8abc9)">
     <use style="fill:#008000;fill-opacity:0.578277;stroke:#008000;stroke-opacity:0.578277;" x="226.122114" xlink:href="#C2_0_015ed6503d" y="212.990047"/>
    </g>
    <g clip-path="url(#pecd4a8abc9)">
     <use style="fill:#008000;fill-opacity:0.38155;stroke:#008000;stroke-opacity:0.38155;" x="209.314062" xlink:href="#C2_0_015ed6503d" y="235.450645"/>
    </g>
    <g clip-path="url(#pecd4a8abc9)">
     <use style="fill:#008000;fill-opacity:0.666484;stroke:#008000;stroke-opacity:0.666484;" x="259.266332" xlink:href="#C2_0_015ed6503d" y="247.638521"/>
    </g>
    <g clip-path="url(#pecd4a8abc9)">
     <use style="fill:#008000;fill-opacity:0.382291;stroke:#008000;stroke-opacity:0.382291;" x="275.091536" xlink:href="#C2_0_015ed6503d" y="224.512017"/>
    </g>
    <g clip-path="url(#pecd4a8abc9)">
     <use style="fill:#008000;fill-opacity:0.490452;stroke:#008000;stroke-opacity:0.490452;" x="239.779908" xlink:href="#C2_0_015ed6503d" y="197.216499"/>
    </g>
    <g clip-path="url(#pecd4a8abc9)">
     <use style="fill:#008000;fill-opacity:0.498632;stroke:#008000;stroke-opacity:0.498632;" x="208.041972" xlink:href="#C2_0_015ed6503d" y="184.66503"/>
    </g>
   </g>
   <g id="text_26">
    <!-- 3 Component PCA -->
    <defs>
     <path d="M 34.1875 63.1875 
L 20.796875 26.90625 
L 47.609375 26.90625 
z
M 28.609375 72.90625 
L 39.796875 72.90625 
L 67.578125 0 
L 57.328125 0 
L 50.6875 18.703125 
L 17.828125 18.703125 
L 11.1875 0 
L 0.78125 0 
z
" id="DejaVuSans-41"/>
    </defs>
    <g transform="translate(89.370312 22.8)scale(0.2 -0.2)">
     <use xlink:href="#DejaVuSans-33"/>
     <use x="63.623047" xlink:href="#DejaVuSans-20"/>
     <use x="95.410156" xlink:href="#DejaVuSans-43"/>
     <use x="165.234375" xlink:href="#DejaVuSans-6f"/>
     <use x="226.416016" xlink:href="#DejaVuSans-6d"/>
     <use x="323.828125" xlink:href="#DejaVuSans-70"/>
     <use x="387.304688" xlink:href="#DejaVuSans-6f"/>
     <use x="448.486328" xlink:href="#DejaVuSans-6e"/>
     <use x="511.865234" xlink:href="#DejaVuSans-65"/>
     <use x="573.388672" xlink:href="#DejaVuSans-6e"/>
     <use x="636.767578" xlink:href="#DejaVuSans-74"/>
     <use x="675.976562" xlink:href="#DejaVuSans-20"/>
     <use x="707.763672" xlink:href="#DejaVuSans-50"/>
     <use x="768.066406" xlink:href="#DejaVuSans-43"/>
     <use x="837.890625" xlink:href="#DejaVuSans-41"/>
    </g>
   </g>
   <g id="legend_1">
    <g id="patch_6">
     <path d="M 293.815625 52.034375 
L 353 52.034375 
Q 355 52.034375 355 50.034375 
L 355 7 
Q 355 5 353 5 
L 293.815625 5 
Q 291.815625 5 291.815625 7 
L 291.815625 50.034375 
Q 291.815625 52.034375 293.815625 52.034375 
z
" style="fill:#ffffff;opacity:0.8;stroke:#cccccc;stroke-linejoin:miter;"/>
    </g>
    <g id="Path3DCollection_4">
     <defs>
      <path d="M 0 3.535534 
C 0.937635 3.535534 1.836992 3.163008 2.5 2.5 
C 3.163008 1.836992 3.535534 0.937635 3.535534 0 
C 3.535534 -0.937635 3.163008 -1.836992 2.5 -2.5 
C 1.836992 -3.163008 0.937635 -3.535534 0 -3.535534 
C -0.937635 -3.535534 -1.836992 -3.163008 -2.5 -2.5 
C -3.163008 -1.836992 -3.535534 -0.937635 -3.535534 0 
C -3.535534 0.937635 -3.163008 1.836992 -2.5 2.5 
C -1.836992 3.163008 -0.937635 3.535534 0 3.535534 
z
" id="m980f0f4ef1" style="stroke:#ff0000;"/>
     </defs>
     <g>
      <use style="fill:#ff0000;stroke:#ff0000;" x="305.815625" xlink:href="#m980f0f4ef1" y="13.973437"/>
     </g>
    </g>
    <g id="text_27">
     <!-- NF -->
     <defs>
      <path d="M 9.8125 72.90625 
L 23.09375 72.90625 
L 55.421875 11.921875 
L 55.421875 72.90625 
L 64.984375 72.90625 
L 64.984375 0 
L 51.703125 0 
L 19.390625 60.984375 
L 19.390625 0 
L 9.8125 0 
z
" id="DejaVuSans-4e"/>
      <path d="M 9.8125 72.90625 
L 51.703125 72.90625 
L 51.703125 64.59375 
L 19.671875 64.59375 
L 19.671875 43.109375 
L 48.578125 43.109375 
L 48.578125 34.8125 
L 19.671875 34.8125 
L 19.671875 0 
L 9.8125 0 
z
" id="DejaVuSans-46"/>
     </defs>
     <g transform="translate(323.815625 16.598437)scale(0.1 -0.1)">
      <use xlink:href="#DejaVuSans-4e"/>
      <use x="74.804688" xlink:href="#DejaVuSans-46"/>
     </g>
    </g>
    <g id="Path3DCollection_5">
     <defs>
      <path d="M 0 3.535534 
C 0.937635 3.535534 1.836992 3.163008 2.5 2.5 
C 3.163008 1.836992 3.535534 0.937635 3.535534 0 
C 3.535534 -0.937635 3.163008 -1.836992 2.5 -2.5 
C 1.836992 -3.163008 0.937635 -3.535534 0 -3.535534 
C -0.937635 -3.535534 -1.836992 -3.163008 -2.5 -2.5 
C -3.163008 -1.836992 -3.535534 -0.937635 -3.535534 0 
C -3.535534 0.937635 -3.163008 1.836992 -2.5 2.5 
C -1.836992 3.163008 -0.937635 3.535534 0 3.535534 
z
" id="mc5411aba66" style="stroke:#008000;"/>
     </defs>
     <g>
      <use style="fill:#008000;stroke:#008000;" x="305.815625" xlink:href="#mc5411aba66" y="28.651563"/>
     </g>
    </g>
    <g id="text_28">
     <!-- PV+ -->
     <defs>
      <path d="M 28.609375 0 
L 0.78125 72.90625 
L 11.078125 72.90625 
L 34.1875 11.53125 
L 57.328125 72.90625 
L 67.578125 72.90625 
L 39.796875 0 
z
" id="DejaVuSans-56"/>
      <path d="M 46 62.703125 
L 46 35.5 
L 73.1875 35.5 
L 73.1875 27.203125 
L 46 27.203125 
L 46 0 
L 37.796875 0 
L 37.796875 27.203125 
L 10.59375 27.203125 
L 10.59375 35.5 
L 37.796875 35.5 
L 37.796875 62.703125 
z
" id="DejaVuSans-2b"/>
     </defs>
     <g transform="translate(323.815625 31.276563)scale(0.1 -0.1)">
      <use xlink:href="#DejaVuSans-50"/>
      <use x="60.302734" xlink:href="#DejaVuSans-56"/>
      <use x="128.710938" xlink:href="#DejaVuSans-2b"/>
     </g>
    </g>
    <g id="Path3DCollection_6">
     <defs>
      <path d="M 0 3.535534 
C 0.937635 3.535534 1.836992 3.163008 2.5 2.5 
C 3.163008 1.836992 3.535534 0.937635 3.535534 0 
C 3.535534 -0.937635 3.163008 -1.836992 2.5 -2.5 
C 1.836992 -3.163008 0.937635 -3.535534 0 -3.535534 
C -0.937635 -3.535534 -1.836992 -3.163008 -2.5 -2.5 
C -3.163008 -1.836992 -3.535534 -0.937635 -3.535534 0 
C -3.535534 0.937635 -3.163008 1.836992 -2.5 2.5 
C -1.836992 3.163008 -0.937635 3.535534 0 3.535534 
z
" id="m9618eea114" style="stroke:#0000ff;"/>
     </defs>
     <g>
      <use style="fill:#0000ff;stroke:#0000ff;" x="305.815625" xlink:href="#m9618eea114" y="43.329687"/>
     </g>
    </g>
    <g id="text_29">
     <!-- SST+ -->
     <defs>
      <path d="M 53.515625 70.515625 
L 53.515625 60.890625 
Q 47.90625 63.578125 42.921875 64.890625 
Q 37.9375 66.21875 33.296875 66.21875 
Q 25.25 66.21875 20.875 63.09375 
Q 16.5 59.96875 16.5 54.203125 
Q 16.5 49.359375 19.40625 46.890625 
Q 22.3125 44.4375 30.421875 42.921875 
L 36.375 41.703125 
Q 47.40625 39.59375 52.65625 34.296875 
Q 57.90625 29 57.90625 20.125 
Q 57.90625 9.515625 50.796875 4.046875 
Q 43.703125 -1.421875 29.984375 -1.421875 
Q 24.8125 -1.421875 18.96875 -0.25 
Q 13.140625 0.921875 6.890625 3.21875 
L 6.890625 13.375 
Q 12.890625 10.015625 18.65625 8.296875 
Q 24.421875 6.59375 29.984375 6.59375 
Q 38.421875 6.59375 43.015625 9.90625 
Q 47.609375 13.234375 47.609375 19.390625 
Q 47.609375 24.75 44.3125 27.78125 
Q 41.015625 30.8125 33.5 32.328125 
L 27.484375 33.5 
Q 16.453125 35.6875 11.515625 40.375 
Q 6.59375 45.0625 6.59375 53.421875 
Q 6.59375 63.09375 13.40625 68.65625 
Q 20.21875 74.21875 32.171875 74.21875 
Q 37.3125 74.21875 42.625 73.28125 
Q 47.953125 72.359375 53.515625 70.515625 
z
" id="DejaVuSans-53"/>
      <path d="M -0.296875 72.90625 
L 61.375 72.90625 
L 61.375 64.59375 
L 35.5 64.59375 
L 35.5 0 
L 25.59375 0 
L 25.59375 64.59375 
L -0.296875 64.59375 
z
" id="DejaVuSans-54"/>
     </defs>
     <g transform="translate(323.815625 45.954687)scale(0.1 -0.1)">
      <use xlink:href="#DejaVuSans-53"/>
      <use x="63.476562" xlink:href="#DejaVuSans-53"/>
      <use x="126.953125" xlink:href="#DejaVuSans-54"/>
      <use x="188.037109" xlink:href="#DejaVuSans-2b"/>
     </g>
    </g>
   </g>
  </g>
 </g>
 <defs>
  <clipPath id="pecd4a8abc9">
   <rect height="360" width="360" x="0" y="0"/>
  </clipPath>
 </defs>
</svg>
