<?xml version="1.0" encoding="utf-8" standalone="no"?>
<!DOCTYPE svg PUBLIC "-//W3C//DTD SVG 1.1//EN"
  "http://www.w3.org/Graphics/SVG/1.1/DTD/svg11.dtd">
<!-- Created with matplotlib (http://matplotlib.org/) -->
<svg height="720pt" version="1.1" viewBox="0 0 720 720" width="720pt" xmlns="http://www.w3.org/2000/svg" xmlns:xlink="http://www.w3.org/1999/xlink">
 <defs>
  <style type="text/css">
*{stroke-linecap:butt;stroke-linejoin:round;}
  </style>
 </defs>
 <g id="figure_1">
  <g id="patch_1">
   <path d="M 0 720 
L 720 720 
L 720 0 
L 0 0 
z
" style="fill:#ffffff;"/>
  </g>
  <g id="patch_2">
   <path d="M 0 720 
L 720 720 
L 720 0 
L 0 0 
z
" style="fill:#ffffff;"/>
  </g>
  <g id="pane3d_1">
   <g id="patch_3">
    <path d="M 95.447126 560.905374 
L 301.514893 384.377689 
L 298.084083 47.062254 
L 80.526688 205.668749 
" style="fill:#f2f2f2;opacity:0.5;stroke:#f2f2f2;stroke-linejoin:miter;"/>
   </g>
  </g>
  <g id="pane3d_2">
   <g id="patch_4">
    <path d="M 301.514893 384.377689 
L 635.325302 483.068056 
L 649.291529 135.581012 
L 298.084083 47.062254 
" style="fill:#e6e6e6;opacity:0.5;stroke:#e6e6e6;stroke-linejoin:miter;"/>
   </g>
  </g>
  <g id="pane3d_3">
   <g id="patch_5">
    <path d="M 95.447126 560.905374 
L 446.660781 675.846388 
L 635.325302 483.068056 
L 301.514893 384.377689 
" style="fill:#ececec;opacity:0.5;stroke:#ececec;stroke-linejoin:miter;"/>
   </g>
  </g>
  <g id="axis3d_1">
   <g id="line2d_1">
    <path d="M 95.447126 560.905374 
L 446.660781 675.846388 
" style="fill:none;stroke:#000000;stroke-linecap:square;stroke-width:0.8;"/>
   </g>
   <g id="text_1">
    <!-- Principal Component 1 -->
    <defs>
     <path d="M 19.671875 64.796875 
L 19.671875 37.40625 
L 32.078125 37.40625 
Q 38.96875 37.40625 42.71875 40.96875 
Q 46.484375 44.53125 46.484375 51.125 
Q 46.484375 57.671875 42.71875 61.234375 
Q 38.96875 64.796875 32.078125 64.796875 
z
M 9.8125 72.90625 
L 32.078125 72.90625 
Q 44.34375 72.90625 50.609375 67.359375 
Q 56.890625 61.8125 56.890625 51.125 
Q 56.890625 40.328125 50.609375 34.8125 
Q 44.34375 29.296875 32.078125 29.296875 
L 19.671875 29.296875 
L 19.671875 0 
L 9.8125 0 
z
" id="DejaVuSans-50"/>
     <path d="M 41.109375 46.296875 
Q 39.59375 47.171875 37.8125 47.578125 
Q 36.03125 48 33.890625 48 
Q 26.265625 48 22.1875 43.046875 
Q 18.109375 38.09375 18.109375 28.8125 
L 18.109375 0 
L 9.078125 0 
L 9.078125 54.6875 
L 18.109375 54.6875 
L 18.109375 46.1875 
Q 20.953125 51.171875 25.484375 53.578125 
Q 30.03125 56 36.53125 56 
Q 37.453125 56 38.578125 55.875 
Q 39.703125 55.765625 41.0625 55.515625 
z
" id="DejaVuSans-72"/>
     <path d="M 9.421875 54.6875 
L 18.40625 54.6875 
L 18.40625 0 
L 9.421875 0 
z
M 9.421875 75.984375 
L 18.40625 75.984375 
L 18.40625 64.59375 
L 9.421875 64.59375 
z
" id="DejaVuSans-69"/>
     <path d="M 54.890625 33.015625 
L 54.890625 0 
L 45.90625 0 
L 45.90625 32.71875 
Q 45.90625 40.484375 42.875 44.328125 
Q 39.84375 48.1875 33.796875 48.1875 
Q 26.515625 48.1875 22.3125 43.546875 
Q 18.109375 38.921875 18.109375 30.90625 
L 18.109375 0 
L 9.078125 0 
L 9.078125 54.6875 
L 18.109375 54.6875 
L 18.109375 46.1875 
Q 21.34375 51.125 25.703125 53.5625 
Q 30.078125 56 35.796875 56 
Q 45.21875 56 50.046875 50.171875 
Q 54.890625 44.34375 54.890625 33.015625 
z
" id="DejaVuSans-6e"/>
     <path d="M 48.78125 52.59375 
L 48.78125 44.1875 
Q 44.96875 46.296875 41.140625 47.34375 
Q 37.3125 48.390625 33.40625 48.390625 
Q 24.65625 48.390625 19.8125 42.84375 
Q 14.984375 37.3125 14.984375 27.296875 
Q 14.984375 17.28125 19.8125 11.734375 
Q 24.65625 6.203125 33.40625 6.203125 
Q 37.3125 6.203125 41.140625 7.25 
Q 44.96875 8.296875 48.78125 10.40625 
L 48.78125 2.09375 
Q 45.015625 0.34375 40.984375 -0.53125 
Q 36.96875 -1.421875 32.421875 -1.421875 
Q 20.0625 -1.421875 12.78125 6.34375 
Q 5.515625 14.109375 5.515625 27.296875 
Q 5.515625 40.671875 12.859375 48.328125 
Q 20.21875 56 33.015625 56 
Q 37.15625 56 41.109375 55.140625 
Q 45.0625 54.296875 48.78125 52.59375 
z
" id="DejaVuSans-63"/>
     <path d="M 18.109375 8.203125 
L 18.109375 -20.796875 
L 9.078125 -20.796875 
L 9.078125 54.6875 
L 18.109375 54.6875 
L 18.109375 46.390625 
Q 20.953125 51.265625 25.265625 53.625 
Q 29.59375 56 35.59375 56 
Q 45.5625 56 51.78125 48.09375 
Q 58.015625 40.1875 58.015625 27.296875 
Q 58.015625 14.40625 51.78125 6.484375 
Q 45.5625 -1.421875 35.59375 -1.421875 
Q 29.59375 -1.421875 25.265625 0.953125 
Q 20.953125 3.328125 18.109375 8.203125 
z
M 48.6875 27.296875 
Q 48.6875 37.203125 44.609375 42.84375 
Q 40.53125 48.484375 33.40625 48.484375 
Q 26.265625 48.484375 22.1875 42.84375 
Q 18.109375 37.203125 18.109375 27.296875 
Q 18.109375 17.390625 22.1875 11.75 
Q 26.265625 6.109375 33.40625 6.109375 
Q 40.53125 6.109375 44.609375 11.75 
Q 48.6875 17.390625 48.6875 27.296875 
z
" id="DejaVuSans-70"/>
     <path d="M 34.28125 27.484375 
Q 23.390625 27.484375 19.1875 25 
Q 14.984375 22.515625 14.984375 16.5 
Q 14.984375 11.71875 18.140625 8.90625 
Q 21.296875 6.109375 26.703125 6.109375 
Q 34.1875 6.109375 38.703125 11.40625 
Q 43.21875 16.703125 43.21875 25.484375 
L 43.21875 27.484375 
z
M 52.203125 31.203125 
L 52.203125 0 
L 43.21875 0 
L 43.21875 8.296875 
Q 40.140625 3.328125 35.546875 0.953125 
Q 30.953125 -1.421875 24.3125 -1.421875 
Q 15.921875 -1.421875 10.953125 3.296875 
Q 6 8.015625 6 15.921875 
Q 6 25.140625 12.171875 29.828125 
Q 18.359375 34.515625 30.609375 34.515625 
L 43.21875 34.515625 
L 43.21875 35.40625 
Q 43.21875 41.609375 39.140625 45 
Q 35.0625 48.390625 27.6875 48.390625 
Q 23 48.390625 18.546875 47.265625 
Q 14.109375 46.140625 10.015625 43.890625 
L 10.015625 52.203125 
Q 14.9375 54.109375 19.578125 55.046875 
Q 24.21875 56 28.609375 56 
Q 40.484375 56 46.34375 49.84375 
Q 52.203125 43.703125 52.203125 31.203125 
z
" id="DejaVuSans-61"/>
     <path d="M 9.421875 75.984375 
L 18.40625 75.984375 
L 18.40625 0 
L 9.421875 0 
z
" id="DejaVuSans-6c"/>
     <path id="DejaVuSans-20"/>
     <path d="M 64.40625 67.28125 
L 64.40625 56.890625 
Q 59.421875 61.53125 53.78125 63.8125 
Q 48.140625 66.109375 41.796875 66.109375 
Q 29.296875 66.109375 22.65625 58.46875 
Q 16.015625 50.828125 16.015625 36.375 
Q 16.015625 21.96875 22.65625 14.328125 
Q 29.296875 6.6875 41.796875 6.6875 
Q 48.140625 6.6875 53.78125 8.984375 
Q 59.421875 11.28125 64.40625 15.921875 
L 64.40625 5.609375 
Q 59.234375 2.09375 53.4375 0.328125 
Q 47.65625 -1.421875 41.21875 -1.421875 
Q 24.65625 -1.421875 15.125 8.703125 
Q 5.609375 18.84375 5.609375 36.375 
Q 5.609375 53.953125 15.125 64.078125 
Q 24.65625 74.21875 41.21875 74.21875 
Q 47.75 74.21875 53.53125 72.484375 
Q 59.328125 70.75 64.40625 67.28125 
z
" id="DejaVuSans-43"/>
     <path d="M 30.609375 48.390625 
Q 23.390625 48.390625 19.1875 42.75 
Q 14.984375 37.109375 14.984375 27.296875 
Q 14.984375 17.484375 19.15625 11.84375 
Q 23.34375 6.203125 30.609375 6.203125 
Q 37.796875 6.203125 41.984375 11.859375 
Q 46.1875 17.53125 46.1875 27.296875 
Q 46.1875 37.015625 41.984375 42.703125 
Q 37.796875 48.390625 30.609375 48.390625 
z
M 30.609375 56 
Q 42.328125 56 49.015625 48.375 
Q 55.71875 40.765625 55.71875 27.296875 
Q 55.71875 13.875 49.015625 6.21875 
Q 42.328125 -1.421875 30.609375 -1.421875 
Q 18.84375 -1.421875 12.171875 6.21875 
Q 5.515625 13.875 5.515625 27.296875 
Q 5.515625 40.765625 12.171875 48.375 
Q 18.84375 56 30.609375 56 
z
" id="DejaVuSans-6f"/>
     <path d="M 52 44.1875 
Q 55.375 50.25 60.0625 53.125 
Q 64.75 56 71.09375 56 
Q 79.640625 56 84.28125 50.015625 
Q 88.921875 44.046875 88.921875 33.015625 
L 88.921875 0 
L 79.890625 0 
L 79.890625 32.71875 
Q 79.890625 40.578125 77.09375 44.375 
Q 74.3125 48.1875 68.609375 48.1875 
Q 61.625 48.1875 57.5625 43.546875 
Q 53.515625 38.921875 53.515625 30.90625 
L 53.515625 0 
L 44.484375 0 
L 44.484375 32.71875 
Q 44.484375 40.625 41.703125 44.40625 
Q 38.921875 48.1875 33.109375 48.1875 
Q 26.21875 48.1875 22.15625 43.53125 
Q 18.109375 38.875 18.109375 30.90625 
L 18.109375 0 
L 9.078125 0 
L 9.078125 54.6875 
L 18.109375 54.6875 
L 18.109375 46.1875 
Q 21.1875 51.21875 25.484375 53.609375 
Q 29.78125 56 35.6875 56 
Q 41.65625 56 45.828125 52.96875 
Q 50 49.953125 52 44.1875 
z
" id="DejaVuSans-6d"/>
     <path d="M 56.203125 29.59375 
L 56.203125 25.203125 
L 14.890625 25.203125 
Q 15.484375 15.921875 20.484375 11.0625 
Q 25.484375 6.203125 34.421875 6.203125 
Q 39.59375 6.203125 44.453125 7.46875 
Q 49.3125 8.734375 54.109375 11.28125 
L 54.109375 2.78125 
Q 49.265625 0.734375 44.1875 -0.34375 
Q 39.109375 -1.421875 33.890625 -1.421875 
Q 20.796875 -1.421875 13.15625 6.1875 
Q 5.515625 13.8125 5.515625 26.8125 
Q 5.515625 40.234375 12.765625 48.109375 
Q 20.015625 56 32.328125 56 
Q 43.359375 56 49.78125 48.890625 
Q 56.203125 41.796875 56.203125 29.59375 
z
M 47.21875 32.234375 
Q 47.125 39.59375 43.09375 43.984375 
Q 39.0625 48.390625 32.421875 48.390625 
Q 24.90625 48.390625 20.390625 44.140625 
Q 15.875 39.890625 15.1875 32.171875 
z
" id="DejaVuSans-65"/>
     <path d="M 18.3125 70.21875 
L 18.3125 54.6875 
L 36.8125 54.6875 
L 36.8125 47.703125 
L 18.3125 47.703125 
L 18.3125 18.015625 
Q 18.3125 11.328125 20.140625 9.421875 
Q 21.96875 7.515625 27.59375 7.515625 
L 36.8125 7.515625 
L 36.8125 0 
L 27.59375 0 
Q 17.1875 0 13.234375 3.875 
Q 9.28125 7.765625 9.28125 18.015625 
L 9.28125 47.703125 
L 2.6875 47.703125 
L 2.6875 54.6875 
L 9.28125 54.6875 
L 9.28125 70.21875 
z
" id="DejaVuSans-74"/>
     <path d="M 12.40625 8.296875 
L 28.515625 8.296875 
L 28.515625 63.921875 
L 10.984375 60.40625 
L 10.984375 69.390625 
L 28.421875 72.90625 
L 38.28125 72.90625 
L 38.28125 8.296875 
L 54.390625 8.296875 
L 54.390625 0 
L 12.40625 0 
z
" id="DejaVuSans-31"/>
    </defs>
    <g transform="translate(170.909811 630.610104)rotate(-341.878381)scale(0.15 -0.15)">
     <use xlink:href="#DejaVuSans-50"/>
     <use x="60.287109" xlink:href="#DejaVuSans-72"/>
     <use x="101.400391" xlink:href="#DejaVuSans-69"/>
     <use x="129.183594" xlink:href="#DejaVuSans-6e"/>
     <use x="192.5625" xlink:href="#DejaVuSans-63"/>
     <use x="247.542969" xlink:href="#DejaVuSans-69"/>
     <use x="275.326172" xlink:href="#DejaVuSans-70"/>
     <use x="338.802734" xlink:href="#DejaVuSans-61"/>
     <use x="400.082031" xlink:href="#DejaVuSans-6c"/>
     <use x="427.865234" xlink:href="#DejaVuSans-20"/>
     <use x="459.652344" xlink:href="#DejaVuSans-43"/>
     <use x="529.476562" xlink:href="#DejaVuSans-6f"/>
     <use x="590.658203" xlink:href="#DejaVuSans-6d"/>
     <use x="688.070312" xlink:href="#DejaVuSans-70"/>
     <use x="751.546875" xlink:href="#DejaVuSans-6f"/>
     <use x="812.728516" xlink:href="#DejaVuSans-6e"/>
     <use x="876.107422" xlink:href="#DejaVuSans-65"/>
     <use x="937.630859" xlink:href="#DejaVuSans-6e"/>
     <use x="1001.009766" xlink:href="#DejaVuSans-74"/>
     <use x="1040.21875" xlink:href="#DejaVuSans-20"/>
     <use x="1072.005859" xlink:href="#DejaVuSans-31"/>
    </g>
   </g>
   <g id="Line3DCollection_1">
    <path d="M 102.163559 563.103448 
L 307.919549 386.271212 
L 304.808145 48.756995 
" style="fill:none;stroke:#b0b0b0;stroke-width:0.8;"/>
    <path d="M 148.544746 578.28253 
L 352.125266 399.340542 
L 351.233762 60.458164 
" style="fill:none;stroke:#b0b0b0;stroke-width:0.8;"/>
    <path d="M 195.501907 593.650109 
L 396.840023 412.560369 
L 398.221218 72.300941 
" style="fill:none;stroke:#b0b0b0;stroke-width:0.8;"/>
    <path d="M 243.045838 609.209719 
L 442.072664 425.933307 
L 445.780774 84.28791 
" style="fill:none;stroke:#b0b0b0;stroke-width:0.8;"/>
    <path d="M 291.187605 624.964983 
L 487.832238 439.462032 
L 493.922943 96.421722 
" style="fill:none;stroke:#b0b0b0;stroke-width:0.8;"/>
    <path d="M 339.938557 640.919612 
L 534.128007 453.149282 
L 542.658496 108.705091 
" style="fill:none;stroke:#b0b0b0;stroke-width:0.8;"/>
    <path d="M 389.31033 657.077417 
L 580.96945 466.997859 
L 591.998472 121.140799 
" style="fill:none;stroke:#b0b0b0;stroke-width:0.8;"/>
    <path d="M 439.314859 673.442303 
L 628.366272 481.010633 
L 641.954187 133.731699 
" style="fill:none;stroke:#b0b0b0;stroke-width:0.8;"/>
   </g>
   <g id="xtick_1">
    <g id="line2d_2">
     <path d="M 103.936006 561.58016 
L 98.612067 566.155696 
" style="fill:none;stroke:#000000;stroke-linecap:square;stroke-width:0.8;"/>
    </g>
    <g id="text_2">
     <!-- −4 -->
     <defs>
      <path d="M 10.59375 35.5 
L 73.1875 35.5 
L 73.1875 27.203125 
L 10.59375 27.203125 
z
" id="DejaVuSans-2212"/>
      <path d="M 37.796875 64.3125 
L 12.890625 25.390625 
L 37.796875 25.390625 
z
M 35.203125 72.90625 
L 47.609375 72.90625 
L 47.609375 25.390625 
L 58.015625 25.390625 
L 58.015625 17.1875 
L 47.609375 17.1875 
L 47.609375 0 
L 37.796875 0 
L 37.796875 17.1875 
L 4.890625 17.1875 
L 4.890625 26.703125 
z
" id="DejaVuSans-34"/>
     </defs>
     <g transform="translate(88.41253 586.895247)scale(0.1 -0.1)">
      <use xlink:href="#DejaVuSans-2212"/>
      <use x="83.789062" xlink:href="#DejaVuSans-34"/>
     </g>
    </g>
   </g>
   <g id="xtick_2">
    <g id="line2d_3">
     <path d="M 150.299224 576.740389 
L 145.029219 581.372587 
" style="fill:none;stroke:#000000;stroke-linecap:square;stroke-width:0.8;"/>
    </g>
    <g id="text_3">
     <!-- −3 -->
     <defs>
      <path d="M 40.578125 39.3125 
Q 47.65625 37.796875 51.625 33 
Q 55.609375 28.21875 55.609375 21.1875 
Q 55.609375 10.40625 48.1875 4.484375 
Q 40.765625 -1.421875 27.09375 -1.421875 
Q 22.515625 -1.421875 17.65625 -0.515625 
Q 12.796875 0.390625 7.625 2.203125 
L 7.625 11.71875 
Q 11.71875 9.328125 16.59375 8.109375 
Q 21.484375 6.890625 26.8125 6.890625 
Q 36.078125 6.890625 40.9375 10.546875 
Q 45.796875 14.203125 45.796875 21.1875 
Q 45.796875 27.640625 41.28125 31.265625 
Q 36.765625 34.90625 28.71875 34.90625 
L 20.21875 34.90625 
L 20.21875 43.015625 
L 29.109375 43.015625 
Q 36.375 43.015625 40.234375 45.921875 
Q 44.09375 48.828125 44.09375 54.296875 
Q 44.09375 59.90625 40.109375 62.90625 
Q 36.140625 65.921875 28.71875 65.921875 
Q 24.65625 65.921875 20.015625 65.03125 
Q 15.375 64.15625 9.8125 62.3125 
L 9.8125 71.09375 
Q 15.4375 72.65625 20.34375 73.4375 
Q 25.25 74.21875 29.59375 74.21875 
Q 40.828125 74.21875 47.359375 69.109375 
Q 53.90625 64.015625 53.90625 55.328125 
Q 53.90625 49.265625 50.4375 45.09375 
Q 46.96875 40.921875 40.578125 39.3125 
z
" id="DejaVuSans-33"/>
     </defs>
     <g transform="translate(134.791296 602.186437)scale(0.1 -0.1)">
      <use xlink:href="#DejaVuSans-2212"/>
      <use x="83.789062" xlink:href="#DejaVuSans-33"/>
     </g>
    </g>
   </g>
   <g id="xtick_3">
    <g id="line2d_4">
     <path d="M 197.237832 592.088765 
L 192.023515 596.778683 
" style="fill:none;stroke:#000000;stroke-linecap:square;stroke-width:0.8;"/>
    </g>
    <g id="text_4">
     <!-- −2 -->
     <defs>
      <path d="M 19.1875 8.296875 
L 53.609375 8.296875 
L 53.609375 0 
L 7.328125 0 
L 7.328125 8.296875 
Q 12.9375 14.109375 22.625 23.890625 
Q 32.328125 33.6875 34.8125 36.53125 
Q 39.546875 41.84375 41.421875 45.53125 
Q 43.3125 49.21875 43.3125 52.78125 
Q 43.3125 58.59375 39.234375 62.25 
Q 35.15625 65.921875 28.609375 65.921875 
Q 23.96875 65.921875 18.8125 64.3125 
Q 13.671875 62.703125 7.8125 59.421875 
L 7.8125 69.390625 
Q 13.765625 71.78125 18.9375 73 
Q 24.125 74.21875 28.421875 74.21875 
Q 39.75 74.21875 46.484375 68.546875 
Q 53.21875 62.890625 53.21875 53.421875 
Q 53.21875 48.921875 51.53125 44.890625 
Q 49.859375 40.875 45.40625 35.40625 
Q 44.1875 33.984375 37.640625 27.21875 
Q 31.109375 20.453125 19.1875 8.296875 
z
" id="DejaVuSans-32"/>
     </defs>
     <g transform="translate(181.746468 617.667669)scale(0.1 -0.1)">
      <use xlink:href="#DejaVuSans-2212"/>
      <use x="83.789062" xlink:href="#DejaVuSans-32"/>
     </g>
    </g>
   </g>
   <g id="xtick_4">
    <g id="line2d_5">
     <path d="M 244.762608 607.62881 
L 239.605787 612.377534 
" style="fill:none;stroke:#000000;stroke-linecap:square;stroke-width:0.8;"/>
    </g>
    <g id="text_5">
     <!-- −1 -->
     <g transform="translate(229.288858 633.342508)scale(0.1 -0.1)">
      <use xlink:href="#DejaVuSans-2212"/>
      <use x="83.789062" xlink:href="#DejaVuSans-31"/>
     </g>
    </g>
   </g>
   <g id="xtick_5">
    <g id="line2d_6">
     <path d="M 292.8846 623.364138 
L 287.787139 628.172782 
" style="fill:none;stroke:#000000;stroke-linecap:square;stroke-width:0.8;"/>
    </g>
    <g id="text_6">
     <!-- 0 -->
     <defs>
      <path d="M 31.78125 66.40625 
Q 24.171875 66.40625 20.328125 58.90625 
Q 16.5 51.421875 16.5 36.375 
Q 16.5 21.390625 20.328125 13.890625 
Q 24.171875 6.390625 31.78125 6.390625 
Q 39.453125 6.390625 43.28125 13.890625 
Q 47.125 21.390625 47.125 36.375 
Q 47.125 51.421875 43.28125 58.90625 
Q 39.453125 66.40625 31.78125 66.40625 
z
M 31.78125 74.21875 
Q 44.046875 74.21875 50.515625 64.515625 
Q 56.984375 54.828125 56.984375 36.375 
Q 56.984375 17.96875 50.515625 8.265625 
Q 44.046875 -1.421875 31.78125 -1.421875 
Q 19.53125 -1.421875 13.0625 8.265625 
Q 6.59375 17.96875 6.59375 36.375 
Q 6.59375 54.828125 13.0625 64.515625 
Q 19.53125 74.21875 31.78125 74.21875 
z
" id="DejaVuSans-30"/>
     </defs>
     <g transform="translate(281.619396 649.214609)scale(0.1 -0.1)">
      <use xlink:href="#DejaVuSans-30"/>
     </g>
    </g>
   </g>
   <g id="xtick_6">
    <g id="line2d_7">
     <path d="M 341.615138 639.298453 
L 336.578958 644.168157 
" style="fill:none;stroke:#000000;stroke-linecap:square;stroke-width:0.8;"/>
    </g>
    <g id="text_7">
     <!-- 1 -->
     <g transform="translate(330.369758 665.28772)scale(0.1 -0.1)">
      <use xlink:href="#DejaVuSans-31"/>
     </g>
    </g>
   </g>
   <g id="xtick_7">
    <g id="line2d_8">
     <path d="M 390.965838 655.435554 
L 385.992918 660.367489 
" style="fill:none;stroke:#000000;stroke-linecap:square;stroke-width:0.8;"/>
    </g>
    <g id="text_8">
     <!-- 2 -->
     <g transform="translate(379.741445 681.565683)scale(0.1 -0.1)">
      <use xlink:href="#DejaVuSans-32"/>
     </g>
    </g>
   </g>
   <g id="xtick_8">
    <g id="line2d_9">
     <path d="M 440.948614 671.779337 
L 436.040996 676.774704 
" style="fill:none;stroke:#000000;stroke-linecap:square;stroke-width:0.8;"/>
    </g>
    <g id="text_9">
     <!-- 3 -->
     <g transform="translate(429.74641 698.052439)scale(0.1 -0.1)">
      <use xlink:href="#DejaVuSans-33"/>
     </g>
    </g>
   </g>
  </g>
  <g id="axis3d_2">
   <g id="line2d_10">
    <path d="M 635.325302 483.068056 
L 446.660781 675.846388 
" style="fill:none;stroke:#000000;stroke-linecap:square;stroke-width:0.8;"/>
   </g>
   <g id="text_10">
    <!-- Principal Component 3 -->
    <g transform="translate(511.283464 669.411328)rotate(-45.617904)scale(0.15 -0.15)">
     <use xlink:href="#DejaVuSans-50"/>
     <use x="60.287109" xlink:href="#DejaVuSans-72"/>
     <use x="101.400391" xlink:href="#DejaVuSans-69"/>
     <use x="129.183594" xlink:href="#DejaVuSans-6e"/>
     <use x="192.5625" xlink:href="#DejaVuSans-63"/>
     <use x="247.542969" xlink:href="#DejaVuSans-69"/>
     <use x="275.326172" xlink:href="#DejaVuSans-70"/>
     <use x="338.802734" xlink:href="#DejaVuSans-61"/>
     <use x="400.082031" xlink:href="#DejaVuSans-6c"/>
     <use x="427.865234" xlink:href="#DejaVuSans-20"/>
     <use x="459.652344" xlink:href="#DejaVuSans-43"/>
     <use x="529.476562" xlink:href="#DejaVuSans-6f"/>
     <use x="590.658203" xlink:href="#DejaVuSans-6d"/>
     <use x="688.070312" xlink:href="#DejaVuSans-70"/>
     <use x="751.546875" xlink:href="#DejaVuSans-6f"/>
     <use x="812.728516" xlink:href="#DejaVuSans-6e"/>
     <use x="876.107422" xlink:href="#DejaVuSans-65"/>
     <use x="937.630859" xlink:href="#DejaVuSans-6e"/>
     <use x="1001.009766" xlink:href="#DejaVuSans-74"/>
     <use x="1040.21875" xlink:href="#DejaVuSans-20"/>
     <use x="1072.005859" xlink:href="#DejaVuSans-33"/>
    </g>
   </g>
   <g id="Line3DCollection_2">
    <path d="M 85.225209 202.243373 
L 99.88056 557.107479 
L 450.733136 671.685237 
" style="fill:none;stroke:#b0b0b0;stroke-width:0.8;"/>
    <path d="M 113.097929 181.923243 
L 126.196058 534.564342 
L 474.893264 646.998299 
" style="fill:none;stroke:#b0b0b0;stroke-width:0.8;"/>
    <path d="M 140.436149 161.992782 
L 152.032439 512.431639 
L 498.593369 622.781415 
" style="fill:none;stroke:#b0b0b0;stroke-width:0.8;"/>
    <path d="M 167.255098 142.440886 
L 177.40267 490.698264 
L 521.846466 599.021287 
" style="fill:none;stroke:#b0b0b0;stroke-width:0.8;"/>
    <path d="M 193.56943 123.256873 
L 202.319253 469.353505 
L 544.665084 575.705111 
" style="fill:none;stroke:#b0b0b0;stroke-width:0.8;"/>
    <path d="M 219.393256 104.430454 
L 226.79425 448.387031 
L 567.061286 552.820562 
" style="fill:none;stroke:#b0b0b0;stroke-width:0.8;"/>
    <path d="M 244.740164 85.951725 
L 250.839295 427.788874 
L 589.046695 530.355763 
" style="fill:none;stroke:#b0b0b0;stroke-width:0.8;"/>
    <path d="M 269.623244 67.811141 
L 274.465619 407.549414 
L 610.632511 508.299271 
" style="fill:none;stroke:#b0b0b0;stroke-width:0.8;"/>
    <path d="M 294.055112 49.999506 
L 297.684066 387.659362 
L 631.829529 486.640054 
" style="fill:none;stroke:#b0b0b0;stroke-width:0.8;"/>
   </g>
   <g id="xtick_9">
    <g id="line2d_11">
     <path d="M 447.796351 670.726172 
L 456.613291 673.605516 
" style="fill:none;stroke:#000000;stroke-linecap:square;stroke-width:0.8;"/>
    </g>
    <g id="text_11">
     <!-- −1.0 -->
     <defs>
      <path d="M 10.6875 12.40625 
L 21 12.40625 
L 21 0 
L 10.6875 0 
z
" id="DejaVuSans-2e"/>
     </defs>
     <g transform="translate(449.717207 693.572735)scale(0.1 -0.1)">
      <use xlink:href="#DejaVuSans-2212"/>
      <use x="83.789062" xlink:href="#DejaVuSans-31"/>
      <use x="147.412109" xlink:href="#DejaVuSans-2e"/>
      <use x="179.199219" xlink:href="#DejaVuSans-30"/>
     </g>
    </g>
   </g>
   <g id="xtick_10">
    <g id="line2d_12">
     <path d="M 471.975762 646.05758 
L 480.734748 648.881828 
" style="fill:none;stroke:#000000;stroke-linecap:square;stroke-width:0.8;"/>
    </g>
    <g id="text_12">
     <!-- −0.5 -->
     <defs>
      <path d="M 10.796875 72.90625 
L 49.515625 72.90625 
L 49.515625 64.59375 
L 19.828125 64.59375 
L 19.828125 46.734375 
Q 21.96875 47.46875 24.109375 47.828125 
Q 26.265625 48.1875 28.421875 48.1875 
Q 40.625 48.1875 47.75 41.5 
Q 54.890625 34.8125 54.890625 23.390625 
Q 54.890625 11.625 47.5625 5.09375 
Q 40.234375 -1.421875 26.90625 -1.421875 
Q 22.3125 -1.421875 17.546875 -0.640625 
Q 12.796875 0.140625 7.71875 1.703125 
L 7.71875 11.625 
Q 12.109375 9.234375 16.796875 8.0625 
Q 21.484375 6.890625 26.703125 6.890625 
Q 35.15625 6.890625 40.078125 11.328125 
Q 45.015625 15.765625 45.015625 23.390625 
Q 45.015625 31 40.078125 35.4375 
Q 35.15625 39.890625 26.703125 39.890625 
Q 22.75 39.890625 18.8125 39.015625 
Q 14.890625 38.140625 10.796875 36.28125 
z
" id="DejaVuSans-35"/>
     </defs>
     <g transform="translate(473.765123 668.753899)scale(0.1 -0.1)">
      <use xlink:href="#DejaVuSans-2212"/>
      <use x="83.789062" xlink:href="#DejaVuSans-30"/>
      <use x="147.412109" xlink:href="#DejaVuSans-2e"/>
      <use x="179.199219" xlink:href="#DejaVuSans-35"/>
     </g>
    </g>
   </g>
   <g id="xtick_11">
    <g id="line2d_13">
     <path d="M 495.694951 621.858519 
L 504.396582 624.629238 
" style="fill:none;stroke:#000000;stroke-linecap:square;stroke-width:0.8;"/>
    </g>
    <g id="text_13">
     <!-- 0.0 -->
     <g transform="translate(501.545097 644.407525)scale(0.1 -0.1)">
      <use xlink:href="#DejaVuSans-30"/>
      <use x="63.623047" xlink:href="#DejaVuSans-2e"/>
      <use x="95.410156" xlink:href="#DejaVuSans-30"/>
     </g>
    </g>
   </g>
   <g id="xtick_12">
    <g id="line2d_14">
     <path d="M 518.966935 598.115712 
L 527.611805 600.83441 
" style="fill:none;stroke:#000000;stroke-linecap:square;stroke-width:0.8;"/>
    </g>
    <g id="text_14">
     <!-- 0.5 -->
     <g transform="translate(524.690388 620.52025)scale(0.1 -0.1)">
      <use xlink:href="#DejaVuSans-30"/>
      <use x="63.623047" xlink:href="#DejaVuSans-2e"/>
      <use x="95.410156" xlink:href="#DejaVuSans-35"/>
     </g>
    </g>
   </g>
   <g id="xtick_13">
    <g id="line2d_15">
     <path d="M 541.804242 574.816375 
L 550.392944 577.484503 
" style="fill:none;stroke:#000000;stroke-linecap:square;stroke-width:0.8;"/>
    </g>
    <g id="text_15">
     <!-- 1.0 -->
     <g transform="translate(547.403307 597.079209)scale(0.1 -0.1)">
      <use xlink:href="#DejaVuSans-31"/>
      <use x="63.623047" xlink:href="#DejaVuSans-2e"/>
      <use x="95.410156" xlink:href="#DejaVuSans-30"/>
     </g>
    </g>
   </g>
   <g id="xtick_14">
    <g id="line2d_16">
     <path d="M 564.218939 551.948199 
L 572.752061 554.567154 
" style="fill:none;stroke:#000000;stroke-linecap:square;stroke-width:0.8;"/>
    </g>
    <g id="text_16">
     <!-- 1.5 -->
     <g transform="translate(569.695855 574.072014)scale(0.1 -0.1)">
      <use xlink:href="#DejaVuSans-31"/>
      <use x="63.623047" xlink:href="#DejaVuSans-2e"/>
      <use x="95.410156" xlink:href="#DejaVuSans-35"/>
     </g>
    </g>
   </g>
   <g id="xtick_15">
    <g id="line2d_17">
     <path d="M 586.222648 529.499325 
L 594.700776 532.070455 
" style="fill:none;stroke:#000000;stroke-linecap:square;stroke-width:0.8;"/>
    </g>
    <g id="text_17">
     <!-- 2.0 -->
     <g transform="translate(591.579598 551.48673)scale(0.1 -0.1)">
      <use xlink:href="#DejaVuSans-32"/>
      <use x="63.623047" xlink:href="#DejaVuSans-2e"/>
      <use x="95.410156" xlink:href="#DejaVuSans-30"/>
     </g>
    </g>
   </g>
   <g id="xtick_16">
    <g id="line2d_18">
     <path d="M 607.826571 507.458325 
L 616.250284 509.982928 
" style="fill:none;stroke:#000000;stroke-linecap:square;stroke-width:0.8;"/>
    </g>
    <g id="text_18">
     <!-- 2.5 -->
     <g transform="translate(613.065677 529.311858)scale(0.1 -0.1)">
      <use xlink:href="#DejaVuSans-32"/>
      <use x="63.623047" xlink:href="#DejaVuSans-2e"/>
      <use x="95.410156" xlink:href="#DejaVuSans-35"/>
     </g>
    </g>
   </g>
   <g id="xtick_17">
    <g id="line2d_19">
     <path d="M 629.041505 485.814185 
L 637.411379 488.293512 
" style="fill:none;stroke:#000000;stroke-linecap:square;stroke-width:0.8;"/>
    </g>
    <g id="text_19">
     <!-- 3.0 -->
     <g transform="translate(634.164834 507.536312)scale(0.1 -0.1)">
      <use xlink:href="#DejaVuSans-33"/>
      <use x="63.623047" xlink:href="#DejaVuSans-2e"/>
      <use x="95.410156" xlink:href="#DejaVuSans-30"/>
     </g>
    </g>
   </g>
  </g>
  <g id="axis3d_3">
   <g id="line2d_20">
    <path d="M 635.325302 483.068056 
L 649.291529 135.581012 
" style="fill:none;stroke:#000000;stroke-linecap:square;stroke-width:0.8;"/>
   </g>
   <g id="Line3DCollection_3">
    <path d="M 637.055034 440.031414 
L 301.089172 342.521013 
L 93.601999 516.975251 
" style="fill:none;stroke:#b0b0b0;stroke-width:0.8;"/>
    <path d="M 639.191592 386.872728 
L 300.56364 290.851009 
L 91.32182 462.687093 
" style="fill:none;stroke:#b0b0b0;stroke-width:0.8;"/>
    <path d="M 641.362578 332.85747 
L 300.029999 238.383701 
L 89.003669 407.494878 
" style="fill:none;stroke:#b0b0b0;stroke-width:0.8;"/>
    <path d="M 643.56883 277.964769 
L 299.48806 185.10049 
L 86.64659 351.375836 
" style="fill:none;stroke:#b0b0b0;stroke-width:0.8;"/>
    <path d="M 645.811214 222.173068 
L 298.937627 130.982194 
L 84.249595 294.306423 
" style="fill:none;stroke:#b0b0b0;stroke-width:0.8;"/>
    <path d="M 648.090627 165.460101 
L 298.378499 76.009028 
L 81.81166 236.262289 
" style="fill:none;stroke:#b0b0b0;stroke-width:0.8;"/>
   </g>
   <g id="xtick_18">
    <g id="line2d_21">
     <path d="M 634.251243 439.217645 
L 642.66848 441.660655 
" style="fill:none;stroke:#000000;stroke-linecap:square;stroke-width:0.8;"/>
    </g>
    <g id="text_20">
     <!-- −2 -->
     <g transform="translate(645.802799 445.347691)scale(0.1 -0.1)">
      <use xlink:href="#DejaVuSans-2212"/>
      <use x="83.789062" xlink:href="#DejaVuSans-32"/>
     </g>
    </g>
   </g>
   <g id="xtick_19">
    <g id="line2d_22">
     <path d="M 636.364651 386.071117 
L 644.851436 388.47764 
" style="fill:none;stroke:#000000;stroke-linecap:square;stroke-width:0.8;"/>
    </g>
    <g id="text_21">
     <!-- −1 -->
     <g transform="translate(648.065954 392.223115)scale(0.1 -0.1)">
      <use xlink:href="#DejaVuSans-2212"/>
      <use x="83.789062" xlink:href="#DejaVuSans-31"/>
     </g>
    </g>
   </g>
   <g id="xtick_20">
    <g id="line2d_23">
     <path d="M 638.5121 332.068517 
L 647.069592 334.437053 
" style="fill:none;stroke:#000000;stroke-linecap:square;stroke-width:0.8;"/>
    </g>
    <g id="text_22">
     <!-- 0 -->
     <g transform="translate(654.555385 338.243366)scale(0.1 -0.1)">
      <use xlink:href="#DejaVuSans-30"/>
     </g>
    </g>
   </g>
   <g id="xtick_21">
    <g id="line2d_24">
     <path d="M 640.694421 277.188992 
L 649.323806 279.517984 
" style="fill:none;stroke:#000000;stroke-linecap:square;stroke-width:0.8;"/>
    </g>
    <g id="text_23">
     <!-- 1 -->
     <g transform="translate(656.89229 283.387627)scale(0.1 -0.1)">
      <use xlink:href="#DejaVuSans-31"/>
     </g>
    </g>
   </g>
   <g id="xtick_22">
    <g id="line2d_25">
     <path d="M 642.91247 221.411006 
L 651.614965 223.698837 
" style="fill:none;stroke:#000000;stroke-linecap:square;stroke-width:0.8;"/>
    </g>
    <g id="text_24">
     <!-- 2 -->
     <g transform="translate(659.267428 227.6344)scale(0.1 -0.1)">
      <use xlink:href="#DejaVuSans-32"/>
     </g>
    </g>
   </g>
   <g id="xtick_23">
    <g id="line2d_26">
     <path d="M 645.167131 164.712315 
L 653.943985 166.957301 
" style="fill:none;stroke:#000000;stroke-linecap:square;stroke-width:0.8;"/>
    </g>
    <g id="text_25">
     <!-- 3 -->
     <g transform="translate(661.681747 170.961479)scale(0.1 -0.1)">
      <use xlink:href="#DejaVuSans-33"/>
     </g>
    </g>
   </g>
  </g>
  <g id="axes_1">
   <g id="Path3DCollection_1">
    <defs>
     <path d="M 0 3.535534 
C 0.937635 3.535534 1.836992 3.163008 2.5 2.5 
C 3.163008 1.836992 3.535534 0.937635 3.535534 0 
C 3.535534 -0.937635 3.163008 -1.836992 2.5 -2.5 
C 1.836992 -3.163008 0.937635 -3.535534 0 -3.535534 
C -0.937635 -3.535534 -1.836992 -3.163008 -2.5 -2.5 
C -3.163008 -1.836992 -3.535534 -0.937635 -3.535534 0 
C -3.535534 0.937635 -3.163008 1.836992 -2.5 2.5 
C -1.836992 3.163008 -0.937635 3.535534 0 3.535534 
z
" id="C0_0_7c07238ac8"/>
    </defs>
    <g clip-path="url(#pd0f422cd47)">
     <use style="fill:#0000ff;fill-opacity:0.819064;stroke:#0000ff;stroke-opacity:0.819064;" x="328.668596" xlink:href="#C0_0_7c07238ac8" y="423.609193"/>
    </g>
    <g clip-path="url(#pd0f422cd47)">
     <use style="fill:#0000ff;fill-opacity:0.751334;stroke:#0000ff;stroke-opacity:0.751334;" x="360.605421" xlink:href="#C0_0_7c07238ac8" y="406.017851"/>
    </g>
    <g clip-path="url(#pd0f422cd47)">
     <use style="fill:#0000ff;fill-opacity:0.916933;stroke:#0000ff;stroke-opacity:0.916933;" x="374.172723" xlink:href="#C0_0_7c07238ac8" y="465.775348"/>
    </g>
    <g clip-path="url(#pd0f422cd47)">
     <use style="fill:#0000ff;fill-opacity:0.695173;stroke:#0000ff;stroke-opacity:0.695173;" x="394.415441" xlink:href="#C0_0_7c07238ac8" y="433.90507"/>
    </g>
    <g clip-path="url(#pd0f422cd47)">
     <use style="fill:#0000ff;fill-opacity:0.691105;stroke:#0000ff;stroke-opacity:0.691105;" x="413.162939" xlink:href="#C0_0_7c07238ac8" y="395.317479"/>
    </g>
    <g clip-path="url(#pd0f422cd47)">
     <use style="fill:#0000ff;fill-opacity:0.80068;stroke:#0000ff;stroke-opacity:0.80068;" x="329.155508" xlink:href="#C0_0_7c07238ac8" y="449.133152"/>
    </g>
    <g clip-path="url(#pd0f422cd47)">
     <use style="fill:#0000ff;fill-opacity:0.674269;stroke:#0000ff;stroke-opacity:0.674269;" x="428.216927" xlink:href="#C0_0_7c07238ac8" y="440.470915"/>
    </g>
    <g clip-path="url(#pd0f422cd47)">
     <use style="fill:#0000ff;fill-opacity:0.577266;stroke:#0000ff;stroke-opacity:0.577266;" x="372.520218" xlink:href="#C0_0_7c07238ac8" y="383.061206"/>
    </g>
    <g clip-path="url(#pd0f422cd47)">
     <use style="fill:#0000ff;fill-opacity:0.744368;stroke:#0000ff;stroke-opacity:0.744368;" x="401.60817" xlink:href="#C0_0_7c07238ac8" y="443.562826"/>
    </g>
    <g clip-path="url(#pd0f422cd47)">
     <use style="fill:#0000ff;fill-opacity:0.901967;stroke:#0000ff;stroke-opacity:0.901967;" x="323.494183" xlink:href="#C0_0_7c07238ac8" y="446.894828"/>
    </g>
    <g clip-path="url(#pd0f422cd47)">
     <use style="fill:#0000ff;fill-opacity:0.687408;stroke:#0000ff;stroke-opacity:0.687408;" x="402.269198" xlink:href="#C0_0_7c07238ac8" y="347.491624"/>
    </g>
    <g clip-path="url(#pd0f422cd47)">
     <use style="fill:#0000ff;fill-opacity:0.55621;stroke:#0000ff;stroke-opacity:0.55621;" x="418.142266" xlink:href="#C0_0_7c07238ac8" y="289.483509"/>
    </g>
    <g clip-path="url(#pd0f422cd47)">
     <use style="fill:#0000ff;fill-opacity:0.955827;stroke:#0000ff;stroke-opacity:0.955827;" x="356.156917" xlink:href="#C0_0_7c07238ac8" y="372.650901"/>
    </g>
    <g clip-path="url(#pd0f422cd47)">
     <use style="fill:#0000ff;fill-opacity:0.86061;stroke:#0000ff;stroke-opacity:0.86061;" x="230.403279" xlink:href="#C0_0_7c07238ac8" y="413.772525"/>
    </g>
    <g clip-path="url(#pd0f422cd47)">
     <use style="fill:#0000ff;fill-opacity:0.799606;stroke:#0000ff;stroke-opacity:0.799606;" x="367.040772" xlink:href="#C0_0_7c07238ac8" y="373.023316"/>
    </g>
    <g clip-path="url(#pd0f422cd47)">
     <use style="fill:#0000ff;fill-opacity:0.873219;stroke:#0000ff;stroke-opacity:0.873219;" x="390.894438" xlink:href="#C0_0_7c07238ac8" y="423.836851"/>
    </g>
    <g clip-path="url(#pd0f422cd47)">
     <use style="fill:#0000ff;fill-opacity:0.816972;stroke:#0000ff;stroke-opacity:0.816972;" x="368.186505" xlink:href="#C0_0_7c07238ac8" y="334.560286"/>
    </g>
    <g clip-path="url(#pd0f422cd47)">
     <use style="fill:#0000ff;fill-opacity:0.796246;stroke:#0000ff;stroke-opacity:0.796246;" x="275.477335" xlink:href="#C0_0_7c07238ac8" y="344.41877"/>
    </g>
    <g clip-path="url(#pd0f422cd47)">
     <use style="fill:#0000ff;stroke:#0000ff;" x="341.937254" xlink:href="#C0_0_7c07238ac8" y="408.983518"/>
    </g>
    <g clip-path="url(#pd0f422cd47)">
     <use style="fill:#0000ff;fill-opacity:0.702061;stroke:#0000ff;stroke-opacity:0.702061;" x="347.492803" xlink:href="#C0_0_7c07238ac8" y="293.575343"/>
    </g>
    <g clip-path="url(#pd0f422cd47)">
     <use style="fill:#0000ff;fill-opacity:0.831019;stroke:#0000ff;stroke-opacity:0.831019;" x="297.340239" xlink:href="#C0_0_7c07238ac8" y="350.277714"/>
    </g>
    <g clip-path="url(#pd0f422cd47)">
     <use style="fill:#0000ff;fill-opacity:0.607746;stroke:#0000ff;stroke-opacity:0.607746;" x="336.464246" xlink:href="#C0_0_7c07238ac8" y="330.172073"/>
    </g>
    <g clip-path="url(#pd0f422cd47)">
     <use style="fill:#0000ff;fill-opacity:0.995197;stroke:#0000ff;stroke-opacity:0.995197;" x="263.82955" xlink:href="#C0_0_7c07238ac8" y="437.24711"/>
    </g>
    <g clip-path="url(#pd0f422cd47)">
     <use style="fill:#0000ff;fill-opacity:0.967563;stroke:#0000ff;stroke-opacity:0.967563;" x="370.220677" xlink:href="#C0_0_7c07238ac8" y="238.847537"/>
    </g>
    <g clip-path="url(#pd0f422cd47)">
     <use style="fill:#0000ff;fill-opacity:0.60136;stroke:#0000ff;stroke-opacity:0.60136;" x="294.458614" xlink:href="#C0_0_7c07238ac8" y="223.391888"/>
    </g>
    <g clip-path="url(#pd0f422cd47)">
     <use style="fill:#0000ff;fill-opacity:0.3;stroke:#0000ff;stroke-opacity:0.3;" x="399.853071" xlink:href="#C0_0_7c07238ac8" y="197.522921"/>
    </g>
    <g clip-path="url(#pd0f422cd47)">
     <use style="fill:#0000ff;fill-opacity:0.723745;stroke:#0000ff;stroke-opacity:0.723745;" x="333.404957" xlink:href="#C0_0_7c07238ac8" y="372.151083"/>
    </g>
    <g clip-path="url(#pd0f422cd47)">
     <use style="fill:#0000ff;fill-opacity:0.693425;stroke:#0000ff;stroke-opacity:0.693425;" x="397.417365" xlink:href="#C0_0_7c07238ac8" y="426.908036"/>
    </g>
    <g clip-path="url(#pd0f422cd47)">
     <use style="fill:#0000ff;fill-opacity:0.727095;stroke:#0000ff;stroke-opacity:0.727095;" x="312.182253" xlink:href="#C0_0_7c07238ac8" y="443.375103"/>
    </g>
    <g clip-path="url(#pd0f422cd47)">
     <use style="fill:#0000ff;fill-opacity:0.73802;stroke:#0000ff;stroke-opacity:0.73802;" x="389.684929" xlink:href="#C0_0_7c07238ac8" y="430.404169"/>
    </g>
   </g>
   <g id="Path3DCollection_2">
    <defs>
     <path d="M 0 3.535534 
C 0.937635 3.535534 1.836992 3.163008 2.5 2.5 
C 3.163008 1.836992 3.535534 0.937635 3.535534 0 
C 3.535534 -0.937635 3.163008 -1.836992 2.5 -2.5 
C 1.836992 -3.163008 0.937635 -3.535534 0 -3.535534 
C -0.937635 -3.535534 -1.836992 -3.163008 -2.5 -2.5 
C -3.163008 -1.836992 -3.535534 -0.937635 -3.535534 0 
C -3.535534 0.937635 -3.163008 1.836992 -2.5 2.5 
C -1.836992 3.163008 -0.937635 3.535534 0 3.535534 
z
" id="C1_0_55ee4f3cec"/>
    </defs>
    <g clip-path="url(#pd0f422cd47)">
     <use style="fill:#ff0000;fill-opacity:0.827486;stroke:#ff0000;stroke-opacity:0.827486;" x="518.483179" xlink:href="#C1_0_55ee4f3cec" y="484.441846"/>
    </g>
    <g clip-path="url(#pd0f422cd47)">
     <use style="fill:#ff0000;fill-opacity:0.386785;stroke:#ff0000;stroke-opacity:0.386785;" x="203.574936" xlink:href="#C1_0_55ee4f3cec" y="546.844391"/>
    </g>
    <g clip-path="url(#pd0f422cd47)">
     <use style="fill:#ff0000;fill-opacity:0.810831;stroke:#ff0000;stroke-opacity:0.810831;" x="62.785276" xlink:href="#C1_0_55ee4f3cec" y="592.361322"/>
    </g>
    <g clip-path="url(#pd0f422cd47)">
     <use style="fill:#ff0000;fill-opacity:0.862968;stroke:#ff0000;stroke-opacity:0.862968;" x="48.373508" xlink:href="#C1_0_55ee4f3cec" y="574.51212"/>
    </g>
    <g clip-path="url(#pd0f422cd47)">
     <use style="fill:#ff0000;fill-opacity:0.658831;stroke:#ff0000;stroke-opacity:0.658831;" x="47.449119" xlink:href="#C1_0_55ee4f3cec" y="552.958166"/>
    </g>
    <g clip-path="url(#pd0f422cd47)">
     <use style="fill:#ff0000;fill-opacity:0.324981;stroke:#ff0000;stroke-opacity:0.324981;" x="361.716509" xlink:href="#C1_0_55ee4f3cec" y="490.366607"/>
    </g>
    <g clip-path="url(#pd0f422cd47)">
     <use style="fill:#ff0000;fill-opacity:0.3;stroke:#ff0000;stroke-opacity:0.3;" x="369.327359" xlink:href="#C1_0_55ee4f3cec" y="465.005826"/>
    </g>
    <g clip-path="url(#pd0f422cd47)">
     <use style="fill:#ff0000;fill-opacity:0.551206;stroke:#ff0000;stroke-opacity:0.551206;" x="237.071092" xlink:href="#C1_0_55ee4f3cec" y="339.633353"/>
    </g>
    <g clip-path="url(#pd0f422cd47)">
     <use style="fill:#ff0000;fill-opacity:0.358846;stroke:#ff0000;stroke-opacity:0.358846;" x="163.855087" xlink:href="#C1_0_55ee4f3cec" y="178.407493"/>
    </g>
    <g clip-path="url(#pd0f422cd47)">
     <use style="fill:#ff0000;fill-opacity:0.666086;stroke:#ff0000;stroke-opacity:0.666086;" x="518.520276" xlink:href="#C1_0_55ee4f3cec" y="299.463665"/>
    </g>
    <g clip-path="url(#pd0f422cd47)">
     <use style="fill:#ff0000;fill-opacity:0.699597;stroke:#ff0000;stroke-opacity:0.699597;" x="89.096216" xlink:href="#C1_0_55ee4f3cec" y="486.036898"/>
    </g>
    <g clip-path="url(#pd0f422cd47)">
     <use style="fill:#ff0000;fill-opacity:0.408276;stroke:#ff0000;stroke-opacity:0.408276;" x="423.360701" xlink:href="#C1_0_55ee4f3cec" y="431.002806"/>
    </g>
    <g clip-path="url(#pd0f422cd47)">
     <use style="fill:#ff0000;fill-opacity:0.347761;stroke:#ff0000;stroke-opacity:0.347761;" x="375.279318" xlink:href="#C1_0_55ee4f3cec" y="438.495576"/>
    </g>
    <g clip-path="url(#pd0f422cd47)">
     <use style="fill:#ff0000;fill-opacity:0.680278;stroke:#ff0000;stroke-opacity:0.680278;" x="86.151458" xlink:href="#C1_0_55ee4f3cec" y="554.450185"/>
    </g>
    <g clip-path="url(#pd0f422cd47)">
     <use style="fill:#ff0000;fill-opacity:0.77837;stroke:#ff0000;stroke-opacity:0.77837;" x="445.212149" xlink:href="#C1_0_55ee4f3cec" y="412.408304"/>
    </g>
    <g clip-path="url(#pd0f422cd47)">
     <use style="fill:#ff0000;fill-opacity:0.791686;stroke:#ff0000;stroke-opacity:0.791686;" x="96.448894" xlink:href="#C1_0_55ee4f3cec" y="421.731515"/>
    </g>
    <g clip-path="url(#pd0f422cd47)">
     <use style="fill:#ff0000;stroke:#ff0000;" x="68.955908" xlink:href="#C1_0_55ee4f3cec" y="513.374471"/>
    </g>
   </g>
   <g id="Path3DCollection_3">
    <defs>
     <path d="M 0 3.535534 
C 0.937635 3.535534 1.836992 3.163008 2.5 2.5 
C 3.163008 1.836992 3.535534 0.937635 3.535534 0 
C 3.535534 -0.937635 3.163008 -1.836992 2.5 -2.5 
C 1.836992 -3.163008 0.937635 -3.535534 0 -3.535534 
C -0.937635 -3.535534 -1.836992 -3.163008 -2.5 -2.5 
C -3.163008 -1.836992 -3.535534 -0.937635 -3.535534 0 
C -3.535534 0.937635 -3.163008 1.836992 -2.5 2.5 
C -1.836992 3.163008 -0.937635 3.535534 0 3.535534 
z
" id="C2_0_4e7548e79a"/>
    </defs>
    <g clip-path="url(#pd0f422cd47)">
     <use style="fill:#008000;fill-opacity:0.3;stroke:#008000;stroke-opacity:0.3;" x="555.566562" xlink:href="#C2_0_4e7548e79a" y="463.462841"/>
    </g>
    <g clip-path="url(#pd0f422cd47)">
     <use style="fill:#008000;fill-opacity:0.383865;stroke:#008000;stroke-opacity:0.383865;" x="492.524913" xlink:href="#C2_0_4e7548e79a" y="471.651593"/>
    </g>
    <g clip-path="url(#pd0f422cd47)">
     <use style="fill:#008000;fill-opacity:0.651789;stroke:#008000;stroke-opacity:0.651789;" x="473.123095" xlink:href="#C2_0_4e7548e79a" y="529.898204"/>
    </g>
    <g clip-path="url(#pd0f422cd47)">
     <use style="fill:#008000;fill-opacity:0.763376;stroke:#008000;stroke-opacity:0.763376;" x="447.278883" xlink:href="#C2_0_4e7548e79a" y="513.974029"/>
    </g>
    <g clip-path="url(#pd0f422cd47)">
     <use style="fill:#008000;stroke:#008000;" x="547.649036" xlink:href="#C2_0_4e7548e79a" y="533.381741"/>
    </g>
    <g clip-path="url(#pd0f422cd47)">
     <use style="fill:#008000;fill-opacity:0.37124;stroke:#008000;stroke-opacity:0.37124;" x="521.184372" xlink:href="#C2_0_4e7548e79a" y="431.401554"/>
    </g>
    <g clip-path="url(#pd0f422cd47)">
     <use style="fill:#008000;fill-opacity:0.682887;stroke:#008000;stroke-opacity:0.682887;" x="386.370366" xlink:href="#C2_0_4e7548e79a" y="486.887732"/>
    </g>
    <g clip-path="url(#pd0f422cd47)">
     <use style="fill:#008000;fill-opacity:0.542995;stroke:#008000;stroke-opacity:0.542995;" x="356.287648" xlink:href="#C2_0_4e7548e79a" y="528.880833"/>
    </g>
    <g clip-path="url(#pd0f422cd47)">
     <use style="fill:#008000;fill-opacity:0.774189;stroke:#008000;stroke-opacity:0.774189;" x="444.432108" xlink:href="#C2_0_4e7548e79a" y="567.747609"/>
    </g>
    <g clip-path="url(#pd0f422cd47)">
     <use style="fill:#008000;fill-opacity:0.388241;stroke:#008000;stroke-opacity:0.388241;" x="535.409639" xlink:href="#C2_0_4e7548e79a" y="463.378874"/>
    </g>
    <g clip-path="url(#pd0f422cd47)">
     <use style="fill:#008000;fill-opacity:0.528867;stroke:#008000;stroke-opacity:0.528867;" x="443.023499" xlink:href="#C2_0_4e7548e79a" y="428.122344"/>
    </g>
    <g clip-path="url(#pd0f422cd47)">
     <use style="fill:#008000;fill-opacity:0.581477;stroke:#008000;stroke-opacity:0.581477;" x="364.423505" xlink:href="#C2_0_4e7548e79a" y="415.269548"/>
    </g>
   </g>
   <g id="text_26">
    <!-- 3 Component PCA -->
    <defs>
     <path d="M 34.1875 63.1875 
L 20.796875 26.90625 
L 47.609375 26.90625 
z
M 28.609375 72.90625 
L 39.796875 72.90625 
L 67.578125 0 
L 57.328125 0 
L 50.6875 18.703125 
L 17.828125 18.703125 
L 11.1875 0 
L 0.78125 0 
z
" id="DejaVuSans-41"/>
    </defs>
    <g transform="translate(269.370313 51.6)scale(0.2 -0.2)">
     <use xlink:href="#DejaVuSans-33"/>
     <use x="63.623047" xlink:href="#DejaVuSans-20"/>
     <use x="95.410156" xlink:href="#DejaVuSans-43"/>
     <use x="165.234375" xlink:href="#DejaVuSans-6f"/>
     <use x="226.416016" xlink:href="#DejaVuSans-6d"/>
     <use x="323.828125" xlink:href="#DejaVuSans-70"/>
     <use x="387.304688" xlink:href="#DejaVuSans-6f"/>
     <use x="448.486328" xlink:href="#DejaVuSans-6e"/>
     <use x="511.865234" xlink:href="#DejaVuSans-65"/>
     <use x="573.388672" xlink:href="#DejaVuSans-6e"/>
     <use x="636.767578" xlink:href="#DejaVuSans-74"/>
     <use x="675.976562" xlink:href="#DejaVuSans-20"/>
     <use x="707.763672" xlink:href="#DejaVuSans-50"/>
     <use x="768.066406" xlink:href="#DejaVuSans-43"/>
     <use x="837.890625" xlink:href="#DejaVuSans-41"/>
    </g>
   </g>
   <g id="legend_1">
    <g id="patch_6">
     <path d="M 653.815625 52.034375 
L 713 52.034375 
Q 715 52.034375 715 50.034375 
L 715 7 
Q 715 5 713 5 
L 653.815625 5 
Q 651.815625 5 651.815625 7 
L 651.815625 50.034375 
Q 651.815625 52.034375 653.815625 52.034375 
z
" style="fill:#ffffff;opacity:0.8;stroke:#cccccc;stroke-linejoin:miter;"/>
    </g>
    <g id="Path3DCollection_4">
     <defs>
      <path d="M 0 3.535534 
C 0.937635 3.535534 1.836992 3.163008 2.5 2.5 
C 3.163008 1.836992 3.535534 0.937635 3.535534 0 
C 3.535534 -0.937635 3.163008 -1.836992 2.5 -2.5 
C 1.836992 -3.163008 0.937635 -3.535534 0 -3.535534 
C -0.937635 -3.535534 -1.836992 -3.163008 -2.5 -2.5 
C -3.163008 -1.836992 -3.535534 -0.937635 -3.535534 0 
C -3.535534 0.937635 -3.163008 1.836992 -2.5 2.5 
C -1.836992 3.163008 -0.937635 3.535534 0 3.535534 
z
" id="m9355f8e146" style="stroke:#ff0000;"/>
     </defs>
     <g>
      <use style="fill:#ff0000;stroke:#ff0000;" x="665.815625" xlink:href="#m9355f8e146" y="13.973437"/>
     </g>
    </g>
    <g id="text_27">
     <!-- NF -->
     <defs>
      <path d="M 9.8125 72.90625 
L 23.09375 72.90625 
L 55.421875 11.921875 
L 55.421875 72.90625 
L 64.984375 72.90625 
L 64.984375 0 
L 51.703125 0 
L 19.390625 60.984375 
L 19.390625 0 
L 9.8125 0 
z
" id="DejaVuSans-4e"/>
      <path d="M 9.8125 72.90625 
L 51.703125 72.90625 
L 51.703125 64.59375 
L 19.671875 64.59375 
L 19.671875 43.109375 
L 48.578125 43.109375 
L 48.578125 34.8125 
L 19.671875 34.8125 
L 19.671875 0 
L 9.8125 0 
z
" id="DejaVuSans-46"/>
     </defs>
     <g transform="translate(683.815625 16.598437)scale(0.1 -0.1)">
      <use xlink:href="#DejaVuSans-4e"/>
      <use x="74.804688" xlink:href="#DejaVuSans-46"/>
     </g>
    </g>
    <g id="Path3DCollection_5">
     <defs>
      <path d="M 0 3.535534 
C 0.937635 3.535534 1.836992 3.163008 2.5 2.5 
C 3.163008 1.836992 3.535534 0.937635 3.535534 0 
C 3.535534 -0.937635 3.163008 -1.836992 2.5 -2.5 
C 1.836992 -3.163008 0.937635 -3.535534 0 -3.535534 
C -0.937635 -3.535534 -1.836992 -3.163008 -2.5 -2.5 
C -3.163008 -1.836992 -3.535534 -0.937635 -3.535534 0 
C -3.535534 0.937635 -3.163008 1.836992 -2.5 2.5 
C -1.836992 3.163008 -0.937635 3.535534 0 3.535534 
z
" id="m5b4b9a1202" style="stroke:#008000;"/>
     </defs>
     <g>
      <use style="fill:#008000;stroke:#008000;" x="665.815625" xlink:href="#m5b4b9a1202" y="28.651562"/>
     </g>
    </g>
    <g id="text_28">
     <!-- PV+ -->
     <defs>
      <path d="M 28.609375 0 
L 0.78125 72.90625 
L 11.078125 72.90625 
L 34.1875 11.53125 
L 57.328125 72.90625 
L 67.578125 72.90625 
L 39.796875 0 
z
" id="DejaVuSans-56"/>
      <path d="M 46 62.703125 
L 46 35.5 
L 73.1875 35.5 
L 73.1875 27.203125 
L 46 27.203125 
L 46 0 
L 37.796875 0 
L 37.796875 27.203125 
L 10.59375 27.203125 
L 10.59375 35.5 
L 37.796875 35.5 
L 37.796875 62.703125 
z
" id="DejaVuSans-2b"/>
     </defs>
     <g transform="translate(683.815625 31.276562)scale(0.1 -0.1)">
      <use xlink:href="#DejaVuSans-50"/>
      <use x="60.302734" xlink:href="#DejaVuSans-56"/>
      <use x="128.710938" xlink:href="#DejaVuSans-2b"/>
     </g>
    </g>
    <g id="Path3DCollection_6">
     <defs>
      <path d="M 0 3.535534 
C 0.937635 3.535534 1.836992 3.163008 2.5 2.5 
C 3.163008 1.836992 3.535534 0.937635 3.535534 0 
C 3.535534 -0.937635 3.163008 -1.836992 2.5 -2.5 
C 1.836992 -3.163008 0.937635 -3.535534 0 -3.535534 
C -0.937635 -3.535534 -1.836992 -3.163008 -2.5 -2.5 
C -3.163008 -1.836992 -3.535534 -0.937635 -3.535534 0 
C -3.535534 0.937635 -3.163008 1.836992 -2.5 2.5 
C -1.836992 3.163008 -0.937635 3.535534 0 3.535534 
z
" id="m12fe1c1239" style="stroke:#0000ff;"/>
     </defs>
     <g>
      <use style="fill:#0000ff;stroke:#0000ff;" x="665.815625" xlink:href="#m12fe1c1239" y="43.329687"/>
     </g>
    </g>
    <g id="text_29">
     <!-- SST+ -->
     <defs>
      <path d="M 53.515625 70.515625 
L 53.515625 60.890625 
Q 47.90625 63.578125 42.921875 64.890625 
Q 37.9375 66.21875 33.296875 66.21875 
Q 25.25 66.21875 20.875 63.09375 
Q 16.5 59.96875 16.5 54.203125 
Q 16.5 49.359375 19.40625 46.890625 
Q 22.3125 44.4375 30.421875 42.921875 
L 36.375 41.703125 
Q 47.40625 39.59375 52.65625 34.296875 
Q 57.90625 29 57.90625 20.125 
Q 57.90625 9.515625 50.796875 4.046875 
Q 43.703125 -1.421875 29.984375 -1.421875 
Q 24.8125 -1.421875 18.96875 -0.25 
Q 13.140625 0.921875 6.890625 3.21875 
L 6.890625 13.375 
Q 12.890625 10.015625 18.65625 8.296875 
Q 24.421875 6.59375 29.984375 6.59375 
Q 38.421875 6.59375 43.015625 9.90625 
Q 47.609375 13.234375 47.609375 19.390625 
Q 47.609375 24.75 44.3125 27.78125 
Q 41.015625 30.8125 33.5 32.328125 
L 27.484375 33.5 
Q 16.453125 35.6875 11.515625 40.375 
Q 6.59375 45.0625 6.59375 53.421875 
Q 6.59375 63.09375 13.40625 68.65625 
Q 20.21875 74.21875 32.171875 74.21875 
Q 37.3125 74.21875 42.625 73.28125 
Q 47.953125 72.359375 53.515625 70.515625 
z
" id="DejaVuSans-53"/>
      <path d="M -0.296875 72.90625 
L 61.375 72.90625 
L 61.375 64.59375 
L 35.5 64.59375 
L 35.5 0 
L 25.59375 0 
L 25.59375 64.59375 
L -0.296875 64.59375 
z
" id="DejaVuSans-54"/>
     </defs>
     <g transform="translate(683.815625 45.954687)scale(0.1 -0.1)">
      <use xlink:href="#DejaVuSans-53"/>
      <use x="63.476562" xlink:href="#DejaVuSans-53"/>
      <use x="126.953125" xlink:href="#DejaVuSans-54"/>
      <use x="188.037109" xlink:href="#DejaVuSans-2b"/>
     </g>
    </g>
   </g>
  </g>
 </g>
 <defs>
  <clipPath id="pd0f422cd47">
   <rect height="720" width="720" x="0" y="0"/>
  </clipPath>
 </defs>
</svg>
